<svg width="19" height="18" viewBox="0 0 19 18" fill="none" xmlns="http://www.w3.org/2000/svg">
<path d="M12.5827 0C12.6246 0 12.6665 0 12.7107 0C12.8135 1.2694 12.329 2.21789 11.7401 2.90476C11.1623 3.58688 10.3711 4.24845 9.09145 4.14807C9.00608 2.89685 9.49139 2.01871 10.0795 1.33342C10.6248 0.69477 11.6247 0.126466 12.5827 0Z" fill="black"/>
<path d="M16.4565 13.2125C16.4565 13.2251 16.4565 13.2362 16.4565 13.2481C16.0968 14.3373 15.5839 15.2707 14.9579 16.137C14.3864 16.9235 13.6861 17.9818 12.4357 17.9818C11.3552 17.9818 10.6375 17.2871 9.53012 17.2681C8.35874 17.2491 7.71455 17.849 6.64355 18C6.52103 18 6.39852 18 6.27838 18C5.49192 17.8862 4.85722 17.2634 4.39483 16.7022C3.03138 15.0439 1.97776 12.9019 1.78174 10.1607C1.78174 9.89199 1.78174 9.62404 1.78174 9.3553C1.86473 7.39351 2.81797 5.79846 4.08499 5.02544C4.75368 4.61442 5.67292 4.26427 6.6965 4.42077C7.13518 4.48875 7.58334 4.63893 7.97618 4.78752C8.34846 4.93059 8.81401 5.18431 9.25506 5.17087C9.55383 5.16218 9.85103 5.00647 10.1522 4.8966C11.0343 4.57807 11.899 4.2129 13.0387 4.38442C14.4085 4.5915 15.3807 5.20012 15.9814 6.13912C14.8227 6.87658 13.9066 7.98789 14.0631 9.88567C14.2022 11.6096 15.2045 12.6181 16.4565 13.2125Z" fill="black"/>
</svg>
