<svg width="17" height="17" viewBox="0 0 17 17" fill="none" xmlns="http://www.w3.org/2000/svg">
<g clip-path="url(#clip0)">
<path d="M9.24214 16.0217C9.10397 16.0217 8.99196 15.9097 8.99196 15.7715V15.1063C8.99196 15.011 8.91444 14.9335 8.81917 14.9335H8.14752C8.05225 14.9335 7.97473 15.011 7.97473 15.1063V15.7715C7.97473 15.9097 7.86271 16.0217 7.72455 16.0217C7.58638 16.0217 7.47437 15.9097 7.47437 15.7715V15.1063C7.47437 14.7351 7.77635 14.4331 8.14752 14.4331H8.81917C9.19033 14.4331 9.49232 14.7351 9.49232 15.1063V15.7715C9.49232 15.9097 9.38034 16.0217 9.24214 16.0217Z" fill="black"/>
<path d="M10.8887 6.87651C10.8065 6.76547 10.6498 6.74215 10.5387 6.82431C10.4277 6.90653 10.4043 7.06321 10.4865 7.17426L11.7289 8.85217C11.8671 9.03881 11.8571 9.31991 11.7061 9.49217L10.3676 11.0196H6.59893L5.26047 9.49217C5.10952 9.31991 5.09952 9.03881 5.23772 8.85217L7.7042 5.5209V7.41907C7.39154 7.65938 7.20877 8.02691 7.20877 8.42807C7.20877 9.13084 7.78052 9.70259 8.48329 9.70259C9.18606 9.70259 9.75781 9.13084 9.75781 8.42807C9.75781 8.04496 9.58732 7.6872 9.29574 7.44619V5.56597L9.84511 6.30794C9.92733 6.41902 10.084 6.44233 10.1951 6.36014C10.3061 6.27791 10.3295 6.12123 10.2473 6.01019L9.17416 4.56081C9.00523 4.33264 8.75342 4.20178 8.48332 4.20178C8.21323 4.20178 7.96141 4.33264 7.79249 4.56081L4.83559 8.55446C4.55829 8.92899 4.57917 9.47389 4.88419 9.82197L6.00043 11.0958C5.7217 11.2258 5.52796 11.5085 5.52796 11.8357V13.0293C5.52796 13.3947 5.76937 13.7047 6.10107 13.8084L6.16932 15.7803C6.17399 15.9155 6.285 16.0218 6.4192 16.0218C6.42214 16.0218 6.42507 16.0218 6.42801 16.0217C6.56611 16.0169 6.67415 15.9011 6.66938 15.763L6.603 13.8454H10.397L10.3306 15.763C10.3259 15.9011 10.4339 16.0169 10.572 16.0217C10.5749 16.0218 10.5779 16.0218 10.5808 16.0218C10.715 16.0218 10.826 15.9155 10.8307 15.7803L10.8993 13.797C11.2135 13.6834 11.4387 13.3822 11.4387 13.0293V11.8357C11.4387 11.5085 11.2449 11.2258 10.9662 11.0958L12.0825 9.82197C12.3875 9.47392 12.4084 8.92899 12.1311 8.55446L10.8887 6.87651ZM8.48329 4.70211C8.59477 4.70211 8.69731 4.75765 8.77197 4.85849L8.79538 4.89011V7.57191C8.79538 7.65608 8.83771 7.73463 8.90803 7.7809C9.12682 7.92487 9.25745 8.16681 9.25745 8.428C9.25745 8.85487 8.91016 9.20216 8.48329 9.20216C8.05642 9.20216 7.70913 8.85487 7.70913 8.428C7.70913 8.15444 7.84917 7.90652 8.08374 7.76479C8.15872 7.71949 8.20456 7.63826 8.20456 7.55067V4.84638C8.27828 4.75351 8.37655 4.70211 8.48329 4.70211ZM10.9383 13.0292C10.9383 13.2033 10.7967 13.3449 10.6226 13.3449H6.34398C6.16989 13.3449 6.02829 13.2033 6.02829 13.0292V11.8357C6.02829 11.6616 6.16992 11.52 6.34398 11.52H10.6226C10.7967 11.52 10.9383 11.6616 10.9383 11.8357V13.0292Z" fill="black"/>
<path d="M3.50464 6.95321C3.53749 6.16057 3.75795 5.38451 4.14813 4.69681C4.21632 4.57662 4.17419 4.42395 4.054 4.35576C3.93381 4.28755 3.78114 4.32971 3.71295 4.4499C3.28051 5.21202 3.03737 6.0725 3.00387 6.95077C2.57213 7.06055 2.25183 7.45247 2.25183 7.9179C2.25183 8.4681 2.69945 8.91572 3.24965 8.91572C3.79985 8.91572 4.24747 8.4681 4.24747 7.9179C4.24747 7.4558 3.93171 7.06619 3.50464 6.95321ZM3.24965 8.41536C2.97535 8.41536 2.75219 8.1922 2.75219 7.9179C2.75219 7.6436 2.97535 7.42044 3.24965 7.42044C3.52395 7.42044 3.74711 7.6436 3.74711 7.9179C3.74711 8.1922 3.52395 8.41536 3.24965 8.41536Z" fill="black"/>
<path d="M16.4703 0.978271H15.6663C15.3742 0.978271 15.1366 1.21591 15.1366 1.50799V1.6598H9.43171V1.50799C9.43171 1.21591 9.19407 0.978271 8.90199 0.978271H8.09801C7.80593 0.978271 7.56829 1.21591 7.56829 1.50799V1.6598H1.86341V1.50799C1.86341 1.21591 1.62577 0.978271 1.3337 0.978271H0.529716C0.237638 0.978271 0 1.21591 0 1.50799V2.31197C0 2.60404 0.237638 2.84168 0.529716 2.84168H1.3337C1.62577 2.84168 1.86341 2.60404 1.86341 2.31197V2.16016H6.20645C5.51188 2.47919 4.88489 2.94262 4.37002 3.52751C4.27872 3.63122 4.28876 3.7893 4.3925 3.8806C4.44004 3.92243 4.49898 3.94301 4.55772 3.94301C4.62711 3.94301 4.69616 3.91432 4.74559 3.85815C5.48539 3.01778 6.47924 2.45283 7.56829 2.24732V2.312C7.56829 2.60408 7.80593 2.84172 8.09801 2.84172H8.90199C9.19407 2.84172 9.43171 2.60408 9.43171 2.312V2.24729C11.7029 2.67523 13.3998 4.63381 13.4957 6.95321C13.0685 7.06609 12.7525 7.45578 12.7525 7.91798C12.7525 8.46817 13.2002 8.9158 13.7504 8.9158C14.3006 8.9158 14.7482 8.46817 14.7482 7.91798C14.7482 7.45261 14.4279 7.06069 13.9962 6.95088C13.9162 4.84639 12.6381 3.00924 10.7937 2.16022H15.1366V2.31203C15.1366 2.60411 15.3742 2.84175 15.6663 2.84175H16.4703C16.7624 2.84175 17 2.60411 17 2.31203V1.50799C17 1.21591 16.7624 0.978271 16.4703 0.978271ZM1.36305 2.31197C1.36305 2.32814 1.34987 2.34132 1.3337 2.34132H0.529716C0.513537 2.34132 0.500361 2.32814 0.500361 2.31197V1.50799C0.500361 1.49181 0.513537 1.47863 0.529716 1.47863H1.3337C1.34987 1.47863 1.36305 1.49181 1.36305 1.50799V2.31197ZM14.2478 7.91791C14.2478 8.19221 14.0247 8.41537 13.7504 8.41537C13.4761 8.41537 13.2529 8.19221 13.2529 7.91791C13.2529 7.64361 13.4761 7.42045 13.7504 7.42045C14.0247 7.42045 14.2478 7.64361 14.2478 7.91791ZM8.93134 2.31197C8.93134 2.32814 8.91817 2.34132 8.90199 2.34132H8.09801C8.08183 2.34132 8.06866 2.32814 8.06866 2.31197V1.50799C8.06866 1.49181 8.08183 1.47863 8.09801 1.47863H8.90199C8.91817 1.47863 8.93134 1.49181 8.93134 1.50799V2.31197ZM16.4996 2.31197C16.4996 2.32814 16.4865 2.34132 16.4703 2.34132H15.6663C15.6501 2.34132 15.6369 2.32814 15.6369 2.31197V1.50799C15.6369 1.49181 15.6501 1.47863 15.6663 1.47863H16.4703C16.4865 1.47863 16.4996 1.49181 16.4996 1.50799V2.31197Z" fill="black"/>
</g>
<defs>
<clipPath id="clip0">
<rect width="17" height="17" fill="white"/>
</clipPath>
</defs>
</svg>
