<svg width="50" height="50" viewBox="0 0 50 50" fill="none" xmlns="http://www.w3.org/2000/svg">
<path d="M49.1667 48.3333H44.1667V20.8333C44.1667 20.3731 43.7935 20 43.3333 20H31.6667V0.833333C31.6667 0.373125 31.2935 0 30.8333 0H9.16667C8.70646 0 8.33333 0.373125 8.33333 0.833333V48.3333H0.833333C0.373125 48.3333 0 48.7065 0 49.1667C0 49.6269 0.373125 50 0.833333 50H49.1667C49.6269 50 50 49.6269 50 49.1667C50 48.7065 49.6269 48.3333 49.1667 48.3333ZM17.5 48.3333H14.1667V40.8333C14.1667 40.3731 14.5398 40 15 40H16.6667C17.1269 40 17.5 40.3731 17.5 40.8333V48.3333ZM20.8333 20.8333V48.3333H19.1667V40.8333C19.1667 39.4526 18.0474 38.3333 16.6667 38.3333H15C13.6193 38.3333 12.5 39.4526 12.5 40.8333V48.3333H10V1.66667H30V20H21.6667C21.2065 20 20.8333 20.3731 20.8333 20.8333ZM42.5 48.3333H22.5V21.6667H42.5V48.3333Z" fill="#444444"/>
<path d="M26.6668 11.6667H21.6668C21.2066 11.6667 20.8335 12.0398 20.8335 12.5V17.5C20.8335 17.9602 21.2066 18.3333 21.6668 18.3333H26.6668C27.127 18.3333 27.5002 17.9602 27.5002 17.5V12.5C27.5002 12.0398 27.127 11.6667 26.6668 11.6667ZM25.8335 16.6667H22.5002V13.3333H25.8335V16.6667Z" fill="#444444"/>
<path d="M26.6668 3.33334H21.6668C21.2066 3.33334 20.8335 3.70646 20.8335 4.16667V9.16667C20.8335 9.62688 21.2066 10 21.6668 10H26.6668C27.127 10 27.5002 9.62688 27.5002 9.16667V4.16667C27.5002 3.70646 27.127 3.33334 26.6668 3.33334ZM25.8335 8.33334H22.5002V5H25.8335V8.33334Z" fill="#444444"/>
<path d="M18.3333 11.6667H13.3333C12.8731 11.6667 12.5 12.0398 12.5 12.5V17.5C12.5 17.9602 12.8731 18.3333 13.3333 18.3333H18.3333C18.7935 18.3333 19.1667 17.9602 19.1667 17.5V12.5C19.1667 12.0398 18.7935 11.6667 18.3333 11.6667ZM17.5 16.6667H14.1667V13.3333H17.5V16.6667Z" fill="#444444"/>
<path d="M18.3333 3.33334H13.3333C12.8731 3.33334 12.5 3.70646 12.5 4.16667V9.16667C12.5 9.62688 12.8731 10 13.3333 10H18.3333C18.7935 10 19.1667 9.62688 19.1667 9.16667V4.16667C19.1667 3.70646 18.7935 3.33334 18.3333 3.33334ZM17.5 8.33334H14.1667V5H17.5V8.33334Z" fill="#444444"/>
<path d="M18.3333 20H13.3333C12.8731 20 12.5 20.3731 12.5 20.8333V25.8333C12.5 26.2935 12.8731 26.6667 13.3333 26.6667H18.3333C18.7935 26.6667 19.1667 26.2935 19.1667 25.8333V20.8333C19.1667 20.3731 18.7935 20 18.3333 20ZM17.5 25H14.1667V21.6667H17.5V25Z" fill="#444444"/>
<path d="M18.3333 28.3333H13.3333C12.8731 28.3333 12.5 28.7065 12.5 29.1667V34.1667C12.5 34.6269 12.8731 35 13.3333 35H18.3333C18.7935 35 19.1667 34.6269 19.1667 34.1667V29.1667C19.1667 28.7065 18.7935 28.3333 18.3333 28.3333ZM17.5 33.3333H14.1667V30H17.5V33.3333Z" fill="#444444"/>
<path d="M34.1668 38.3333H39.1668C39.627 38.3333 40.0002 37.9602 40.0002 37.5V32.5C40.0002 32.0398 39.627 31.6667 39.1668 31.6667H34.1668C33.7066 31.6667 33.3335 32.0398 33.3335 32.5V37.5C33.3335 37.9602 33.7066 38.3333 34.1668 38.3333ZM35.0002 33.3333H38.3335V36.6667H35.0002V33.3333Z" fill="#444444"/>
<path d="M34.1668 30H39.1668C39.627 30 40.0002 29.6269 40.0002 29.1667V24.1667C40.0002 23.7065 39.627 23.3333 39.1668 23.3333H34.1668C33.7066 23.3333 33.3335 23.7065 33.3335 24.1667V29.1667C33.3335 29.6269 33.7066 30 34.1668 30ZM35.0002 25H38.3335V28.3333H35.0002V25Z" fill="#444444"/>
<path d="M34.1668 46.6667H39.1668C39.627 46.6667 40.0002 46.2935 40.0002 45.8333V40.8333C40.0002 40.3731 39.627 40 39.1668 40H34.1668C33.7066 40 33.3335 40.3731 33.3335 40.8333V45.8333C33.3335 46.2935 33.7066 46.6667 34.1668 46.6667ZM35.0002 41.6667H38.3335V45H35.0002V41.6667Z" fill="#444444"/>
<path d="M25.8333 38.3333H30.8333C31.2935 38.3333 31.6667 37.9602 31.6667 37.5V32.5C31.6667 32.0398 31.2935 31.6667 30.8333 31.6667H25.8333C25.3731 31.6667 25 32.0398 25 32.5V37.5C25 37.9602 25.3731 38.3333 25.8333 38.3333ZM26.6667 33.3333H30V36.6667H26.6667V33.3333Z" fill="#444444"/>
<path d="M25.8333 30H30.8333C31.2935 30 31.6667 29.6269 31.6667 29.1667V24.1667C31.6667 23.7065 31.2935 23.3333 30.8333 23.3333H25.8333C25.3731 23.3333 25 23.7065 25 24.1667V29.1667C25 29.6269 25.3731 30 25.8333 30ZM26.6667 25H30V28.3333H26.6667V25Z" fill="#444444"/>
<path d="M25.8333 46.6667H30.8333C31.2935 46.6667 31.6667 46.2935 31.6667 45.8333V40.8333C31.6667 40.3731 31.2935 40 30.8333 40H25.8333C25.3731 40 25 40.3731 25 40.8333V45.8333C25 46.2935 25.3731 46.6667 25.8333 46.6667ZM26.6667 41.6667H30V45H26.6667V41.6667Z" fill="#444444"/>
</svg>
