<svg width="46" height="46" viewBox="0 0 46 46" fill="none" xmlns="http://www.w3.org/2000/svg">
<path d="M35.9377 13.6562H23C22.5038 13.6562 22.1016 14.0585 22.1016 14.5547C22.1016 15.0509 22.5038 15.4531 23 15.4531H35.9377C36.4339 15.4531 36.8361 15.0509 36.8361 14.5547C36.8361 14.0585 36.4339 13.6562 35.9377 13.6562Z" fill="#444444"/>
<path d="M32.7939 18.232C32.6268 18.0649 32.395 17.9688 32.1587 17.9688C31.9224 17.9688 31.6906 18.0649 31.5235 18.232C31.3564 18.3991 31.2603 18.6309 31.2603 18.8672C31.2603 19.1035 31.3564 19.3353 31.5235 19.5024C31.6906 19.6695 31.9224 19.7656 32.1587 19.7656C32.395 19.7656 32.6268 19.6695 32.7939 19.5024C32.961 19.3353 33.0571 19.1035 33.0571 18.8672C33.0571 18.6309 32.961 18.3991 32.7939 18.232Z" fill="#444444"/>
<path d="M23.6342 4.12652C23.4671 3.95941 23.2353 3.86328 22.999 3.86328C22.7627 3.86328 22.5309 3.95941 22.3638 4.12652C22.1967 4.29363 22.1006 4.52543 22.1006 4.76172C22.1006 4.99801 22.1967 5.2298 22.3638 5.39691C22.5309 5.56402 22.7627 5.66015 22.999 5.66015C23.2353 5.66015 23.4671 5.56402 23.6342 5.39691C23.8013 5.2298 23.8975 4.99801 23.8975 4.76172C23.8975 4.52543 23.8013 4.29363 23.6342 4.12652Z" fill="#444444"/>
<path d="M28.3796 17.9688H23C22.5038 17.9688 22.1016 18.371 22.1016 18.8672C22.1016 19.3634 22.5038 19.7656 23 19.7656H28.3796C28.8758 19.7656 29.278 19.3634 29.278 18.8672C29.278 18.371 28.8758 17.9688 28.3796 17.9688Z" fill="#444444"/>
<path d="M35.9377 23.3594H23C22.5038 23.3594 22.1016 23.7616 22.1016 24.2578C22.1016 24.754 22.5038 25.1562 23 25.1562H35.9377C36.4339 25.1562 36.8361 24.754 36.8361 24.2578C36.8361 23.7616 36.4339 23.3594 35.9377 23.3594Z" fill="#444444"/>
<path d="M32.7939 27.9351C32.6268 27.768 32.395 27.6719 32.1587 27.6719C31.9224 27.6719 31.6906 27.768 31.5235 27.9351C31.3564 28.1022 31.2603 28.334 31.2603 28.5703C31.2603 28.8066 31.3564 29.0384 31.5235 29.2055C31.6906 29.3726 31.9224 29.4687 32.1587 29.4687C32.395 29.4687 32.6268 29.3726 32.7939 29.2055C32.961 29.0384 33.0571 28.8066 33.0571 28.5703C33.0571 28.334 32.961 28.1022 32.7939 27.9351Z" fill="#444444"/>
<path d="M28.3796 27.6719H23C22.5038 27.6719 22.1016 28.0741 22.1016 28.5703C22.1016 29.0665 22.5038 29.4687 23 29.4687H28.3796C28.8758 29.4687 29.278 29.0665 29.278 28.5703C29.278 28.0741 28.8758 27.6719 28.3796 27.6719Z" fill="#444444"/>
<path d="M35.9377 33.0625H23C22.5038 33.0625 22.1016 33.4647 22.1016 33.9609C22.1016 34.4571 22.5038 34.8594 23 34.8594H35.9377C36.4339 34.8594 36.8361 34.4571 36.8361 33.9609C36.8361 33.4647 36.4339 33.0625 35.9377 33.0625Z" fill="#444444"/>
<path d="M32.7939 37.6382C32.6268 37.4711 32.395 37.375 32.1587 37.375C31.9224 37.375 31.6906 37.4711 31.5235 37.6382C31.3564 37.8053 31.2603 38.0371 31.2603 38.2734C31.2603 38.5097 31.3564 38.7415 31.5235 38.9086C31.6906 39.0757 31.9224 39.1719 32.1587 39.1719C32.395 39.1719 32.6268 39.0757 32.7939 38.9086C32.961 38.7415 33.0571 38.5097 33.0571 38.2734C33.0571 38.0371 32.961 37.8053 32.7939 37.6382Z" fill="#444444"/>
<path d="M28.3796 37.375H23C22.5038 37.375 22.1016 37.7772 22.1016 38.2734C22.1016 38.7696 22.5038 39.1719 23 39.1719H28.3796C28.8758 39.1719 29.278 38.7696 29.278 38.2734C29.278 37.7772 28.8758 37.375 28.3796 37.375Z" fill="#444444"/>
<path d="M37.6662 3.50399H30.804C29.8121 2.55875 28.4712 1.97656 26.996 1.97656H26.209C25.6073 0.785413 24.3712 0 22.9999 0C21.6286 0 20.3925 0.785413 19.7908 1.97656H19.0018C17.5267 1.97656 16.1859 2.55875 15.1939 3.50399H8.33372C5.91827 3.50399 3.95312 5.46914 3.95312 7.88458V41.6194C3.95312 44.0349 5.91827 46 8.33372 46H37.6661C40.0816 46 42.0467 44.0349 42.0467 41.6194V7.88458C42.0468 5.46914 40.0817 3.50399 37.6662 3.50399ZM19.0019 3.77343H20.4022C20.8063 3.77343 21.1607 3.50363 21.2682 3.11416C21.4825 2.33854 22.1946 1.79687 23 1.79687C23.8053 1.79687 24.5174 2.33854 24.7316 3.11416C24.8391 3.50363 25.1936 3.77343 25.5976 3.77343H26.996C28.9461 3.77343 30.5512 5.27831 30.7114 7.18758H15.2865C15.4467 5.27831 17.052 3.77343 19.0019 3.77343ZM40.2499 41.6195C40.2499 43.0441 39.0909 44.2032 37.6662 44.2032H8.33372C6.90907 44.2032 5.75 43.0441 5.75 41.6195V7.88458C5.75 6.45993 6.90907 5.30086 8.33372 5.30086H13.9352C13.6409 5.97577 13.4765 6.71985 13.4765 7.50203V8.08601C13.4765 8.58222 13.8788 8.98445 14.375 8.98445H31.6231C32.1193 8.98445 32.5215 8.58222 32.5215 8.08601V7.50203C32.5215 6.71994 32.3572 5.97577 32.0628 5.30086H37.6662C39.0909 5.30086 40.2499 6.45993 40.2499 7.88458V41.6195Z" fill="#444444"/>
<path d="M17.2868 13.4404C16.9359 13.0895 16.3671 13.0895 16.0162 13.4403L12.1743 17.2823L10.9908 16.0987C10.64 15.7479 10.0711 15.7479 9.72016 16.0987C9.36932 16.4495 9.36932 17.0184 9.72016 17.3693L11.539 19.1882C11.7145 19.3637 11.9444 19.4514 12.1743 19.4514C12.4042 19.4514 12.6342 19.3637 12.8096 19.1882L17.2868 14.711C17.6376 14.3602 17.6376 13.7913 17.2868 13.4404Z" fill="#444444"/>
<path d="M15.0937 33.0625H10.7812C10.285 33.0625 9.88281 33.4647 9.88281 33.9609V38.2734C9.88281 38.7696 10.285 39.1719 10.7812 39.1719H15.0937C15.5899 39.1719 15.9922 38.7696 15.9922 38.2734V33.9609C15.9922 33.4647 15.5899 33.0625 15.0937 33.0625ZM14.1953 37.375H11.6797V34.8594H14.1953V37.375Z" fill="#444444"/>
<path d="M15.0937 23.3594H10.7812C10.285 23.3594 9.88281 23.7616 9.88281 24.2578V28.5703C9.88281 29.0665 10.285 29.4687 10.7812 29.4687H15.0937C15.5899 29.4687 15.9922 29.0665 15.9922 28.5703V24.2578C15.9922 23.7616 15.5899 23.3594 15.0937 23.3594ZM14.1953 27.6719H11.6797V25.1562H14.1953V27.6719Z" fill="#444444"/>
</svg>
