<svg width="18" height="18" viewBox="0 0 18 18" fill="none" xmlns="http://www.w3.org/2000/svg">
<path d="M9 0C9.82617 0 10.623 0.105469 11.3906 0.316406C12.1582 0.527344 12.876 0.829102 13.5439 1.22168C14.2119 1.61426 14.8184 2.08301 15.3633 2.62793C15.9082 3.17285 16.377 3.78223 16.7695 4.45605C17.1621 5.12988 17.4639 5.84766 17.6748 6.60938C17.8857 7.37109 17.9941 8.16797 18 9C18 9.32227 17.9707 9.65625 17.9121 10.002C17.8535 10.3477 17.7598 10.6904 17.6309 11.0303C17.502 11.3701 17.3467 11.6865 17.165 11.9795C16.9834 12.2725 16.7666 12.5332 16.5146 12.7617C16.2627 12.9902 15.9785 13.1689 15.6621 13.2979C15.3457 13.4268 15 13.4941 14.625 13.5C14.3086 13.5 14.001 13.459 13.7021 13.377C13.4033 13.2949 13.1221 13.1719 12.8584 13.0078C12.5947 12.8438 12.3604 12.6504 12.1553 12.4277C11.9502 12.2051 11.7715 11.9473 11.6191 11.6543C11.4434 11.9297 11.2412 12.1787 11.0127 12.4014C10.7842 12.624 10.5352 12.8203 10.2656 12.9902C9.99609 13.1602 9.70898 13.2861 9.4043 13.3682C9.09961 13.4502 8.77734 13.4941 8.4375 13.5C7.83984 13.5 7.29785 13.3711 6.81152 13.1133C6.3252 12.8555 5.91211 12.5127 5.57227 12.085C5.23242 11.6572 4.96875 11.1768 4.78125 10.6436C4.59375 10.1104 4.5 9.5625 4.5 9C4.5 8.44336 4.59082 7.89551 4.77246 7.35645C4.9541 6.81738 5.21777 6.33691 5.56348 5.91504C5.90918 5.49316 6.3252 5.15332 6.81152 4.89551C7.29785 4.6377 7.83984 4.50586 8.4375 4.5C8.99414 4.5 9.50977 4.62012 9.98438 4.86035C10.459 5.10059 10.8809 5.42871 11.25 5.84473V4.5H12.375V10.125C12.375 10.4355 12.4336 10.7256 12.5508 10.9951C12.668 11.2646 12.8291 11.5049 13.0342 11.7158C13.2393 11.9268 13.4766 12.0879 13.7461 12.1992C14.0156 12.3105 14.3086 12.3691 14.625 12.375C14.8828 12.375 15.1172 12.3223 15.3281 12.2168C15.5391 12.1113 15.7295 11.9678 15.8994 11.7861C16.0693 11.6045 16.2158 11.3994 16.3389 11.1709C16.4619 10.9424 16.5615 10.6992 16.6377 10.4414C16.7139 10.1836 16.7725 9.93457 16.8135 9.69434C16.8545 9.4541 16.875 9.22266 16.875 9C16.875 8.2793 16.7812 7.58496 16.5938 6.91699C16.4062 6.24902 16.1426 5.62207 15.8027 5.03613C15.4629 4.4502 15.0498 3.91699 14.5635 3.43652C14.0771 2.95605 13.5469 2.5459 12.9727 2.20605C12.3984 1.86621 11.7715 1.59961 11.0918 1.40625C10.4121 1.21289 9.71484 1.11914 9 1.125C8.2793 1.125 7.58496 1.21875 6.91699 1.40625C6.24902 1.59375 5.62207 1.85742 5.03613 2.19727C4.4502 2.53711 3.91699 2.9502 3.43652 3.43652C2.95605 3.92285 2.5459 4.45312 2.20605 5.02734C1.86621 5.60156 1.59961 6.22852 1.40625 6.9082C1.21289 7.58789 1.11914 8.28516 1.125 9C1.125 9.7207 1.21875 10.415 1.40625 11.083C1.59375 11.751 1.85742 12.3779 2.19727 12.9639C2.53711 13.5498 2.9502 14.083 3.43652 14.5635C3.92285 15.0439 4.45312 15.4541 5.02734 15.7939C5.60156 16.1338 6.22852 16.4004 6.9082 16.5938C7.58789 16.7871 8.28516 16.8809 9 16.875C10.043 16.875 11.0479 16.6758 12.0146 16.2773L12.4453 17.3145C11.8945 17.543 11.332 17.7129 10.7578 17.8242C10.1836 17.9355 9.59766 17.9941 9 18C8.17383 18 7.37695 17.8945 6.60938 17.6836C5.8418 17.4727 5.12402 17.1709 4.45605 16.7783C3.78809 16.3857 3.18164 15.917 2.63672 15.3721C2.0918 14.8271 1.62305 14.2178 1.23047 13.5439C0.837891 12.8701 0.536133 12.1553 0.325195 11.3994C0.114258 10.6436 0.00585938 9.84375 0 9C0 8.17383 0.105469 7.37695 0.316406 6.60938C0.527344 5.8418 0.829102 5.12402 1.22168 4.45605C1.61426 3.78809 2.08301 3.18164 2.62793 2.63672C3.17285 2.0918 3.78223 1.62305 4.45605 1.23047C5.12988 0.837891 5.84473 0.536133 6.60059 0.325195C7.35645 0.114258 8.15625 0.00585938 9 0ZM8.4375 12.375C8.87695 12.375 9.26953 12.2754 9.61523 12.0762C9.96094 11.877 10.2568 11.6133 10.5029 11.2852C10.749 10.957 10.9336 10.5967 11.0566 10.2041C11.1797 9.81152 11.2441 9.41016 11.25 9C11.25 8.60156 11.1855 8.20312 11.0566 7.80469C10.9277 7.40625 10.7432 7.04297 10.5029 6.71484C10.2627 6.38672 9.96973 6.12598 9.62402 5.93262C9.27832 5.73926 8.88281 5.63672 8.4375 5.625C7.99805 5.625 7.60547 5.72461 7.25977 5.92383C6.91406 6.12305 6.61816 6.38672 6.37207 6.71484C6.12598 7.04297 5.94141 7.40332 5.81836 7.7959C5.69531 8.18848 5.63086 8.58984 5.625 9C5.625 9.39844 5.68945 9.79688 5.81836 10.1953C5.94727 10.5938 6.13184 10.957 6.37207 11.2852C6.6123 11.6133 6.90527 11.874 7.25098 12.0674C7.59668 12.2607 7.99219 12.3633 8.4375 12.375Z" fill="#0000FF"/>
</svg>
