<svg width="50" height="50" viewBox="0 0 50 50" fill="none" xmlns="http://www.w3.org/2000/svg">
<g clip-path="url(#clip0)">
<path d="M41.9792 25C41.9792 15.6377 34.3623 8.02083 25 8.02083C15.6377 8.02083 8.02083 15.6377 8.02083 25C8.02083 29.4084 9.7101 33.4295 12.4747 36.4509L8.86385 40.0618C8.33719 40.5883 8.7175 41.4844 9.45312 41.4844C9.66635 41.4844 9.87969 41.403 10.0424 41.2403L13.6584 37.6243C16.6842 40.3453 20.6668 41.9795 25.0009 41.9793C34.3629 41.9786 41.9792 34.362 41.9792 25ZM33.1937 24.1667H25.8333V10.4696C28.1532 12.3011 32.8558 16.8876 33.1937 24.1667ZM24.1667 9.71042V24.1667H16.8074C17.0462 19.1344 19.4072 15.4015 21.4057 13.1157C21.7086 12.7693 21.6733 12.2428 21.3269 11.9399C20.9804 11.6369 20.454 11.6723 20.151 12.0187C17.964 14.5201 15.3784 18.6187 15.1393 24.1667H9.71042C10.1298 16.3853 16.3853 10.1298 24.1667 9.71042ZM9.71042 25.8333H15.1385C15.4396 32.9099 19.5181 37.6671 22.2149 40.0579C15.4074 38.8018 10.0965 32.9966 9.71042 25.8333ZM16.8057 25.8333H24.1667V39.5222C20.0432 36.249 17.0643 31.4509 16.8057 25.8333ZM25.8333 40.2896V25.8333H33.1924C32.9458 31.0406 30.4348 34.8687 28.3098 37.2027C27.9999 37.543 28.0247 38.0701 28.365 38.3799C28.7053 38.6898 29.2324 38.665 29.5422 38.3247C31.866 35.7724 34.614 31.572 34.8607 25.8333H37.5C37.9602 25.8333 38.3333 25.4602 38.3333 25C38.3333 24.5398 37.9602 24.1667 37.5 24.1667H34.8616C34.561 17.0918 30.4843 12.3341 27.7886 9.94281C34.905 11.2576 40.3125 17.5089 40.3125 25C40.3125 33.1637 33.8906 39.8553 25.8333 40.2896ZM43.7433 42.669L39.7039 38.6295C39.3784 38.3041 38.8508 38.3041 38.5254 38.6295C38.1999 38.9549 38.1999 39.4825 38.5254 39.8079L42.5874 43.8699C40.9248 46.5289 42.8474 50 45.9896 50C48.2009 50 50 48.2009 50 45.9896C50 42.7711 46.3853 40.8759 43.7433 42.669ZM45.9896 48.3333C44.6972 48.3333 43.6458 47.282 43.6458 45.9896C43.6458 44.6972 44.6972 43.6458 45.9896 43.6458C47.282 43.6458 48.3333 44.6972 48.3333 45.9896C48.3333 47.282 47.282 48.3333 45.9896 48.3333ZM6.13 7.41271L10.192 11.4747C10.5175 11.8002 11.045 11.8001 11.3704 11.4747C11.6959 11.1493 11.6959 10.6217 11.3704 10.2963L7.33104 6.25667C9.12396 3.61469 7.22865 0 4.01042 0C1.79906 0 0 1.79906 0 4.01042C0 7.15708 3.47583 9.07219 6.13 7.41271ZM4.01042 1.66667C5.30281 1.66667 6.35417 2.71802 6.35417 4.01042C6.35417 5.30281 5.30281 6.35417 4.01042 6.35417C2.71802 6.35417 1.66667 5.30281 1.66667 4.01042C1.66667 2.71802 2.71802 1.66667 4.01042 1.66667ZM4.01042 41.9792C1.79906 41.9792 0 43.7782 0 45.9896C0 48.2009 1.79906 50 4.01042 50C6.22177 50 8.02083 48.2009 8.02083 45.9896C8.02083 43.7782 6.22177 41.9792 4.01042 41.9792ZM4.01042 48.3333C2.71802 48.3333 1.66667 47.282 1.66667 45.9896C1.66667 44.6972 2.71802 43.6458 4.01042 43.6458C5.30281 43.6458 6.35417 44.6972 6.35417 45.9896C6.35417 47.282 5.30281 48.3333 4.01042 48.3333ZM39.7039 11.3705L43.7433 7.33104C46.3853 9.12396 50 7.22865 50 4.01042C50 1.79906 48.2009 0 45.9896 0C42.8429 0 40.9278 3.47583 42.5873 6.13L38.5253 10.192C38.1998 10.5174 38.1998 11.045 38.5253 11.3704C38.8508 11.6959 39.3784 11.6959 39.7039 11.3705ZM45.9896 1.66667C47.282 1.66667 48.3333 2.71802 48.3333 4.01042C48.3333 5.30281 47.282 6.35417 45.9896 6.35417C44.6972 6.35417 43.6458 5.30281 43.6458 4.01042C43.6458 2.71802 44.6972 1.66667 45.9896 1.66667Z" fill="#444444"/>
</g>
<defs>
<clipPath id="clip0">
<rect width="50" height="50" fill="white"/>
</clipPath>
</defs>
</svg>
