<svg width="18" height="18" viewBox="0 0 18 18" fill="none" xmlns="http://www.w3.org/2000/svg">
<g clip-path="url(#clip0)">
<path d="M3.98918 10.8776L3.36262 13.2166L1.07258 13.2651C0.388195 11.9957 0 10.5434 0 9.00001C0 7.50759 0.362953 6.10021 1.00631 4.86099H1.0068L3.04559 5.23477L3.93869 7.26132C3.75177 7.80628 3.64989 8.39128 3.64989 9.00001C3.64996 9.66066 3.76963 10.2937 3.98918 10.8776Z" fill="#FBBB00"/>
<path d="M17.8428 7.3187C17.9461 7.86312 18 8.42538 18 9.00001C18 9.64435 17.9323 10.2729 17.8032 10.8791C17.3651 12.9422 16.2203 14.7437 14.6344 16.0185L14.6339 16.018L12.066 15.887L11.7025 13.6182C12.7548 13.0011 13.5772 12.0353 14.0104 10.8791H9.19788V7.3187H14.0806H17.8428Z" fill="#518EF8"/>
<path d="M14.6338 16.018L14.6343 16.0185C13.092 17.2582 11.1327 18 8.99993 18C5.57251 18 2.59263 16.0843 1.07251 13.2651L3.98911 10.8777C4.74915 12.9061 6.70591 14.3501 8.99993 14.3501C9.98596 14.3501 10.9097 14.0835 11.7024 13.6182L14.6338 16.018Z" fill="#28B446"/>
<path d="M14.7447 2.07197L11.8291 4.45894C11.0087 3.94615 10.039 3.64992 9.00004 3.64992C6.65409 3.64992 4.66073 5.16013 3.93877 7.26131L1.00684 4.86098H1.00635C2.50422 1.97307 5.52168 0 9.00004 0C11.1838 0 13.186 0.777867 14.7447 2.07197Z" fill="#F14336"/>
</g>
<defs>
<clipPath id="clip0">
<rect width="18" height="18" fill="white"/>
</clipPath>
</defs>
</svg>
