<svg width="50" height="50" viewBox="0 0 50 50" fill="none" xmlns="http://www.w3.org/2000/svg">
<path d="M31.25 21.875H35.1562C35.3635 21.875 35.5622 21.7927 35.7087 21.6462C35.8552 21.4997 35.9375 21.301 35.9375 21.0938C35.9375 20.8865 35.8552 20.6878 35.7087 20.5413C35.5622 20.3948 35.3635 20.3125 35.1562 20.3125H31.25C31.0428 20.3125 30.8441 20.3948 30.6976 20.5413C30.5511 20.6878 30.4688 20.8865 30.4688 21.0938C30.4688 21.301 30.5511 21.4997 30.6976 21.6462C30.8441 21.7927 31.0428 21.875 31.25 21.875Z" fill="#444444"/>
<path d="M47.6562 20.3125C47.4491 20.3125 47.2503 20.3948 47.1038 20.5413C46.9573 20.6878 46.875 20.8865 46.875 21.0938V46.875H7.03125C6.25867 46.875 5.50343 46.6459 4.86105 46.2167C4.21867 45.7875 3.718 45.1774 3.42235 44.4636C3.12669 43.7498 3.04933 42.9644 3.20006 42.2067C3.35078 41.4489 3.72282 40.7529 4.26911 40.2066C4.81541 39.6603 5.51144 39.2883 6.26918 39.1376C7.02692 38.9868 7.81233 39.0642 8.52611 39.3598C9.23988 39.6555 9.84995 40.1562 10.2792 40.7986C10.7084 41.4409 10.9375 42.1962 10.9375 42.9688C10.9375 43.176 11.0198 43.3747 11.1663 43.5212C11.3128 43.6677 11.5115 43.75 11.7188 43.75C11.926 43.75 12.1247 43.6677 12.2712 43.5212C12.4177 43.3747 12.5 43.176 12.5 42.9688V21.875H14.8438C15.051 21.875 15.2497 21.7927 15.3962 21.6462C15.5427 21.4997 15.625 21.301 15.625 21.0938C15.625 20.8865 15.5427 20.6878 15.3962 20.5413C15.2497 20.3948 15.051 20.3125 14.8438 20.3125H12.5V17.9688C12.5 16.5183 11.9238 15.1273 10.8982 14.1018C9.87265 13.0762 8.48165 12.5 7.03125 12.5C5.58085 12.5 4.18985 13.0762 3.16426 14.1018C2.13867 15.1273 1.5625 16.5183 1.5625 17.9688V42.9688C1.56415 44.4186 2.14086 45.8087 3.16609 46.8339C4.19132 47.8591 5.58136 48.4358 7.03125 48.4375H47.6562C47.8634 48.4375 48.0622 48.3552 48.2087 48.2087C48.3552 48.0622 48.4375 47.8634 48.4375 47.6562V21.0938C48.4375 20.8865 48.3552 20.6878 48.2087 20.5413C48.0622 20.3948 47.8634 20.3125 47.6562 20.3125ZM3.125 17.9688C3.125 16.9327 3.53655 15.9392 4.26911 15.2066C5.00168 14.4741 5.99525 14.0625 7.03125 14.0625C8.06725 14.0625 9.06082 14.4741 9.79339 15.2066C10.5259 15.9392 10.9375 16.9327 10.9375 17.9688V39.1406C10.4288 38.6201 9.8212 38.2064 9.15039 37.9241C8.47957 37.6417 7.75908 37.4962 7.03125 37.4962C6.30342 37.4962 5.58293 37.6417 4.91211 37.9241C4.2413 38.2064 3.63369 38.6201 3.125 39.1406V17.9688Z" fill="#444444"/>
<path d="M37.5555 29.9781L38.8055 33.1031L40.6805 37.7906C40.7383 37.9359 40.8384 38.0604 40.9678 38.1481C41.0972 38.2359 41.2499 38.2827 41.4062 38.2827C41.5626 38.2827 41.7153 38.2359 41.8447 38.1481C41.9741 38.0604 42.0742 37.9359 42.132 37.7906L44.007 33.1031L45.257 29.9781C45.2884 29.8946 45.305 29.8064 45.3063 29.7172C45.3063 29.707 45.3125 29.6984 45.3125 29.6875V16.4062C45.3125 16.199 45.2302 16.0003 45.0837 15.8538C44.9372 15.7073 44.7385 15.625 44.5312 15.625C44.324 15.625 44.1253 15.7073 43.9788 15.8538C43.8323 16.0003 43.75 16.199 43.75 16.4062V28.9062H42.1875V10.9375H43.75V13.2812C43.75 13.4885 43.8323 13.6872 43.9788 13.8337C44.1253 13.9802 44.324 14.0625 44.5312 14.0625C44.7385 14.0625 44.9372 13.9802 45.0837 13.8337C45.2302 13.6872 45.3125 13.4885 45.3125 13.2812V5.46875C45.3125 4.43275 44.9009 3.43918 44.1684 2.70661C43.4358 1.97405 42.4423 1.5625 41.4062 1.5625C40.3702 1.5625 39.3767 1.97405 38.6441 2.70661C37.9116 3.43918 37.5 4.43275 37.5 5.46875V29.6875C37.5 29.6984 37.5055 29.707 37.5062 29.718C37.5075 29.8069 37.5242 29.8949 37.5555 29.9781ZM40.6852 33.5938H42.1273L41.4062 35.3969L40.6852 33.5938ZM42.7523 32.0312H40.0602L39.4352 30.4688H43.3773L42.7523 32.0312ZM40.625 28.9062H39.0625V10.9375H40.625V28.9062ZM39.0625 9.375V7.8125H43.75V9.375H39.0625ZM39.0625 5.46875C39.0625 4.84715 39.3094 4.25101 39.749 3.81147C40.1885 3.37193 40.7846 3.125 41.4062 3.125C42.0279 3.125 42.624 3.37193 43.0635 3.81147C43.5031 4.25101 43.75 4.84715 43.75 5.46875V6.25H39.0625V5.46875Z" fill="#444444"/>
<path d="M18.7498 16.9533V17.3291C18.2931 17.4882 17.8973 17.7854 17.6172 18.1796C17.3371 18.5738 17.1866 19.0455 17.1866 19.5291C17.1866 20.0126 17.3371 20.4843 17.6172 20.8785C17.8973 21.2727 18.2931 21.57 18.7498 21.7291V21.8751C18.7513 22.8632 19.0646 23.8257 19.645 24.6253C20.2255 25.4249 21.0436 26.0208 21.9826 26.3283C21.1482 27.1669 20.1002 27.7613 18.9521 28.047L17.7607 28.3455C16.8463 28.5714 16.0463 29.1246 15.512 29.9004C14.9778 30.6763 14.7463 31.6209 14.8614 32.5559C14.9764 33.4908 15.4301 34.3512 16.1365 34.9743C16.8429 35.5974 17.7531 35.9401 18.6951 35.9376H20.3123C20.5195 35.9376 20.7182 35.8553 20.8647 35.7088C21.0112 35.5623 21.0936 35.3636 21.0936 35.1564C21.0936 34.9492 21.0112 34.7505 20.8647 34.604C20.7182 34.4575 20.5195 34.3751 20.3123 34.3751H18.6951C18.1366 34.3746 17.5975 34.17 17.1793 33.7997C16.7612 33.4294 16.4928 32.9191 16.4246 32.3648C16.3564 31.8104 16.4932 31.2503 16.8092 30.7897C17.1252 30.3292 17.5987 30 18.1404 29.8642L19.3318 29.5666C21.1419 29.1125 22.7379 28.0434 23.8467 26.5423C25.0138 26.4391 26.1 25.9029 26.8917 25.0392C27.6834 24.1755 28.1233 23.0468 28.1248 21.8751V21.7314C28.5815 21.5723 28.9773 21.275 29.2574 20.8808C29.5376 20.4866 29.688 20.015 29.688 19.5314C29.688 19.0478 29.5376 18.5762 29.2574 18.182C28.9773 17.7878 28.5815 17.4905 28.1248 17.3314V16.9533C29.3376 15.8715 30.1369 14.402 30.3859 12.796C30.6348 11.1901 30.318 9.54753 29.4896 8.14936C29.3843 7.97086 29.2123 7.84152 29.0116 7.78981C28.8109 7.73809 28.5978 7.76822 28.4193 7.87358C28.2408 7.97895 28.1115 8.1509 28.0598 8.35162C28.0081 8.55235 28.0382 8.76539 28.1436 8.9439C28.8146 10.075 29.0538 11.4107 28.8168 12.7044C28.5799 13.9981 27.8829 15.1623 26.8545 15.9822C26.7633 16.0554 26.6897 16.1482 26.6391 16.2536C26.5885 16.3591 26.5623 16.4746 26.5623 16.5916V17.1876H25.8725L26.5576 11.0236C26.5721 10.8933 26.5535 10.7615 26.5036 10.6402C26.4538 10.519 26.3742 10.4123 26.2723 10.3299C26.1703 10.2475 26.0493 10.192 25.9203 10.1687C25.7913 10.1453 25.6585 10.1548 25.5342 10.1962L23.4373 10.8955L21.3404 10.1962C21.2161 10.1548 21.0833 10.1453 20.9543 10.1687C20.8253 10.192 20.7043 10.2475 20.6023 10.3299C20.5004 10.4123 20.4208 10.519 20.371 10.6402C20.3211 10.7615 20.3025 10.8933 20.317 11.0236L21.0021 17.1876H20.3123V16.5939C20.3123 16.4769 20.2861 16.3614 20.2355 16.256C20.1849 16.1505 20.1113 16.0577 20.0201 15.9845C18.9379 15.1221 18.2233 13.8812 18.0206 12.5124C17.8179 11.1435 18.1422 9.74873 18.9279 8.6097C19.7137 7.47066 20.9024 6.67224 22.2541 6.37566C23.6057 6.07909 25.0195 6.30646 26.21 7.01187C26.3885 7.11723 26.6015 7.14736 26.8022 7.09564C27.003 7.04392 27.1749 6.91459 27.2803 6.73608C27.3856 6.55758 27.4158 6.34453 27.3641 6.14381C27.3123 5.94309 27.183 5.77113 27.0045 5.66577C25.5025 4.78154 23.7256 4.48707 22.0187 4.83954C20.3118 5.19202 18.7968 6.16628 17.768 7.57312C16.7391 8.97996 16.2699 10.719 16.4513 12.4524C16.6327 14.1858 17.4519 15.79 18.7498 16.9533ZM23.4373 25.0001C22.6085 25.0001 21.8136 24.6709 21.2276 24.0849C20.6415 23.4988 20.3123 22.7039 20.3123 21.8751H26.5623C26.5623 22.7039 26.2331 23.4988 25.647 24.0849C25.061 24.6709 24.2661 25.0001 23.4373 25.0001ZM22.0053 12.065L23.1904 12.4603C23.3507 12.5137 23.5239 12.5137 23.6842 12.4603L24.8693 12.065L24.3006 17.1876H22.5779L22.0053 12.065ZM21.8748 18.7501H27.3436C27.5508 18.7501 27.7495 18.8325 27.896 18.979C28.0425 19.1255 28.1248 19.3242 28.1248 19.5314C28.1248 19.7386 28.0425 19.9373 27.896 20.0838C27.7495 20.2303 27.5508 20.3126 27.3436 20.3126H19.5311C19.3239 20.3126 19.1251 20.2303 18.9786 20.0838C18.8321 19.9373 18.7498 19.7386 18.7498 19.5314C18.7498 19.3242 18.8321 19.1255 18.9786 18.979C19.1251 18.8325 19.3239 18.7501 19.5311 18.7501H21.8748Z" fill="#444444"/>
<path d="M14.0625 12.5C14.494 12.5 14.8438 12.1502 14.8438 11.7188C14.8438 11.2873 14.494 10.9375 14.0625 10.9375C13.631 10.9375 13.2812 11.2873 13.2812 11.7188C13.2812 12.1502 13.631 12.5 14.0625 12.5Z" fill="#444444"/>
<path d="M32.8125 12.5C33.244 12.5 33.5938 12.1502 33.5938 11.7188C33.5938 11.2873 33.244 10.9375 32.8125 10.9375C32.381 10.9375 32.0312 11.2873 32.0312 11.7188C32.0312 12.1502 32.381 12.5 32.8125 12.5Z" fill="#444444"/>
<path d="M23.4375 3.125C23.869 3.125 24.2188 2.77522 24.2188 2.34375C24.2188 1.91228 23.869 1.5625 23.4375 1.5625C23.006 1.5625 22.6562 1.91228 22.6562 2.34375C22.6562 2.77522 23.006 3.125 23.4375 3.125Z" fill="#444444"/>
<path d="M14.9282 7.70782C15.062 7.78508 15.2157 7.82093 15.3699 7.81083C15.5241 7.80073 15.6718 7.74513 15.7944 7.65107C15.917 7.55701 16.009 7.4287 16.0586 7.28239C16.1083 7.13607 16.1135 6.97831 16.0735 6.82906C16.0335 6.6798 15.9501 6.54576 15.834 6.44388C15.7178 6.342 15.574 6.27685 15.4208 6.25668C15.2676 6.23652 15.1119 6.26223 14.9733 6.33057C14.8347 6.39891 14.7195 6.50681 14.6423 6.64063C14.5387 6.82007 14.5106 7.03331 14.5642 7.23344C14.6178 7.43358 14.7488 7.60421 14.9282 7.70782Z" fill="#444444"/>
<path d="M31.1655 17.0828C31.2993 17.1601 31.453 17.1959 31.6072 17.1858C31.7614 17.1757 31.9091 17.1201 32.0317 17.0261C32.1543 16.932 32.2463 16.8037 32.2959 16.6574C32.3456 16.5111 32.3508 16.3533 32.3108 16.2041C32.2708 16.0548 32.1874 15.9208 32.0713 15.8189C31.9551 15.717 31.8113 15.6519 31.6581 15.6317C31.5049 15.6115 31.3492 15.6372 31.2106 15.7056C31.072 15.7739 30.9568 15.8818 30.8796 16.0156C30.776 16.1951 30.7479 16.4083 30.8015 16.6084C30.8551 16.8086 30.9861 16.9792 31.1655 17.0828Z" fill="#444444"/>
<path d="M28.327 4.35491C28.7438 4.24323 28.9911 3.81485 28.8794 3.39808C28.7678 2.98131 28.3394 2.73398 27.9226 2.84565C27.5058 2.95732 27.2585 3.38571 27.3702 3.80248C27.4818 4.21925 27.9102 4.46658 28.327 4.35491Z" fill="#444444"/>
<path d="M31.9468 7.70784C32.0806 7.63058 32.1885 7.51537 32.2568 7.37679C32.3252 7.23821 32.3509 7.08247 32.3307 6.92928C32.3106 6.77608 32.2454 6.6323 32.1435 6.51613C32.0416 6.39996 31.9076 6.31661 31.7583 6.27662C31.6091 6.23663 31.4513 6.24179 31.305 6.29147C31.1587 6.34114 31.0304 6.43308 30.9363 6.55567C30.8423 6.67826 30.7867 6.82599 30.7766 6.98018C30.7665 7.13436 30.8023 7.28808 30.8796 7.4219C30.9832 7.60133 31.1538 7.73226 31.354 7.78588C31.5541 7.83951 31.7673 7.81143 31.9468 7.70784Z" fill="#444444"/>
<path d="M15.9954 16.0156C15.9182 15.8818 15.803 15.7739 15.6644 15.7056C15.5258 15.6372 15.3701 15.6115 15.2169 15.6317C15.0637 15.6519 14.9199 15.717 14.8037 15.8189C14.6876 15.9208 14.6042 16.0548 14.5642 16.2041C14.5242 16.3533 14.5294 16.5111 14.5791 16.6574C14.6287 16.8037 14.7207 16.932 14.8433 17.0261C14.9659 17.1201 15.1136 17.1757 15.2678 17.1858C15.422 17.1959 15.5757 17.1601 15.7095 17.0828C15.8889 16.9792 16.0199 16.8086 16.0735 16.6084C16.1271 16.4083 16.099 16.1951 15.9954 16.0156Z" fill="#444444"/>
<path d="M19.1406 4.27668C19.2744 4.19943 19.3823 4.08422 19.4507 3.94564C19.519 3.80706 19.5447 3.65132 19.5246 3.49812C19.5044 3.34493 19.4393 3.20115 19.3374 3.08498C19.2355 2.96881 19.1014 2.88546 18.9522 2.84547C18.8029 2.80548 18.6452 2.81064 18.4989 2.86031C18.3525 2.90998 18.2242 3.00193 18.1302 3.12452C18.0361 3.24711 17.9805 3.39484 17.9704 3.54902C17.9603 3.70321 17.9962 3.85693 18.0734 3.99075C18.177 4.17018 18.3477 4.30111 18.5478 4.35473C18.7479 4.40835 18.9612 4.38028 19.1406 4.27668Z" fill="#444444"/>
<path d="M27.3437 42.1875H30.4687C30.6759 42.1875 30.8747 42.1052 31.0212 41.9587C31.1677 41.8122 31.25 41.6135 31.25 41.4062V40.093C31.5152 39.9679 31.7697 39.8213 32.0109 39.6547L33.1469 40.3109C33.3263 40.4145 33.5395 40.4426 33.7397 40.389C33.9398 40.3354 34.1105 40.2044 34.2141 40.025L35.7766 37.3188C35.8802 37.1393 35.9082 36.9261 35.8546 36.7259C35.801 36.5258 35.6701 36.3552 35.4906 36.2516L34.3562 35.5961C34.3687 35.4484 34.375 35.3023 34.375 35.1562C34.375 35.0102 34.3687 34.8641 34.3562 34.7164L35.4906 34.0609C35.6701 33.9573 35.801 33.7867 35.8546 33.5866C35.9082 33.3864 35.8802 33.1732 35.7766 32.9937L34.2141 30.2875C34.1105 30.1081 33.9398 29.9771 33.7397 29.9235C33.5395 29.8699 33.3263 29.898 33.1469 30.0016L32.0109 30.6578C31.7697 30.4912 31.5152 30.3446 31.25 30.2195V28.9062C31.25 28.699 31.1677 28.5003 31.0212 28.3538C30.8747 28.2073 30.6759 28.125 30.4687 28.125H27.3437C27.1365 28.125 26.9378 28.2073 26.7913 28.3538C26.6448 28.5003 26.5625 28.699 26.5625 28.9062V30.2195C26.2973 30.3446 26.0428 30.4912 25.8016 30.6578L24.6656 30.0016C24.4862 29.898 24.2729 29.8699 24.0728 29.9235C23.8727 29.9771 23.702 30.1081 23.5984 30.2875L22.0359 32.9937C21.9323 33.1732 21.9043 33.3864 21.9579 33.5866C22.0115 33.7867 22.1424 33.9573 22.3219 34.0609L23.4562 34.7164C23.4437 34.8641 23.4375 35.0102 23.4375 35.1562C23.4375 35.3023 23.4437 35.4484 23.4562 35.5961L22.3219 36.2516C22.2323 36.3025 22.1537 36.3706 22.0906 36.4521C22.0274 36.5335 21.981 36.6266 21.9541 36.726C21.9271 36.8255 21.92 36.9292 21.9333 37.0314C21.9466 37.1336 21.9799 37.2321 22.0314 37.3214C22.0829 37.4106 22.1516 37.4887 22.2334 37.5513C22.3153 37.6139 22.4087 37.6597 22.5083 37.686C22.6079 37.7123 22.7118 37.7187 22.8138 37.7048C22.9159 37.6908 23.0142 37.6568 23.1031 37.6047L24.6875 36.6875C24.8273 36.6069 24.9387 36.485 25.0064 36.3385C25.0741 36.1921 25.0948 36.0282 25.0656 35.8695C24.974 35.3984 24.974 34.9141 25.0656 34.443C25.0948 34.2843 25.0741 34.1204 25.0064 33.974C24.9387 33.8275 24.8273 33.7056 24.6875 33.625L23.7766 33.0984L24.5578 31.7453L25.4687 32.2719C25.6087 32.3527 25.7702 32.3881 25.9311 32.3733C26.092 32.3584 26.2444 32.2941 26.3672 32.1891C26.7315 31.8781 27.1499 31.6368 27.6016 31.4773C27.7543 31.424 27.8866 31.3245 27.9804 31.1927C28.0741 31.0608 28.1247 30.9032 28.125 30.7414V29.6875H29.6875V30.7414C29.6876 30.9028 29.7377 31.0602 29.8308 31.192C29.924 31.3238 30.0557 31.4234 30.2078 31.4773C30.6595 31.6368 31.0779 31.8781 31.4422 32.1891C31.565 32.2941 31.7173 32.3584 31.8782 32.3733C32.0391 32.3881 32.2007 32.3527 32.3406 32.2719L33.2516 31.7453L34.0328 33.0984L33.125 33.625C32.9852 33.7056 32.8738 33.8275 32.8061 33.974C32.7384 34.1204 32.7177 34.2843 32.7469 34.443C32.8385 34.9141 32.8385 35.3984 32.7469 35.8695C32.7177 36.0282 32.7384 36.1921 32.8061 36.3385C32.8738 36.485 32.9852 36.6069 33.125 36.6875L34.0359 37.2141L33.2547 38.5672L32.3437 38.0406C32.2038 37.9598 32.0423 37.9244 31.8814 37.9392C31.7205 37.9541 31.5681 38.0184 31.4453 38.1234C31.081 38.4344 30.6626 38.6757 30.2109 38.8352C30.0588 38.8891 29.9271 38.9887 29.834 39.1205C29.7408 39.2523 29.6907 39.4097 29.6906 39.5711V40.625H28.125V39.5711C28.1249 39.4097 28.0748 39.2523 27.9817 39.1205C27.8885 38.9887 27.7568 38.8891 27.6047 38.8352C27.153 38.6757 26.7346 38.4344 26.3703 38.1234C26.2475 38.0184 26.0952 37.9541 25.9343 37.9392C25.7733 37.9244 25.6118 37.9598 25.4719 38.0406L23.8844 38.9578C23.7948 39.0087 23.7162 39.0769 23.6531 39.1583C23.5899 39.2397 23.5435 39.3328 23.5166 39.4323C23.4896 39.5317 23.4825 39.6355 23.4958 39.7377C23.5091 39.8398 23.5424 39.9384 23.5939 40.0276C23.6454 40.1168 23.7141 40.195 23.7959 40.2576C23.8778 40.3202 23.9712 40.3659 24.0708 40.3923C24.1704 40.4186 24.2743 40.425 24.3763 40.411C24.4784 40.3971 24.5767 40.363 24.6656 40.3109L25.8016 39.6547C26.0428 39.8213 26.2973 39.9679 26.5625 40.093V41.4062C26.5625 41.6135 26.6448 41.8122 26.7913 41.9587C26.9378 42.1052 27.1365 42.1875 27.3437 42.1875Z" fill="#444444"/>
<path d="M31.25 35.1563C31.25 34.6927 31.1125 34.2396 30.855 33.8541C30.5975 33.4687 30.2314 33.1683 29.8032 32.9909C29.3749 32.8135 28.9037 32.7671 28.449 32.8575C27.9944 32.948 27.5768 33.1712 27.249 33.499C26.9212 33.8268 26.698 34.2444 26.6075 34.699C26.5171 35.1537 26.5635 35.6249 26.7409 36.0532C26.9183 36.4814 27.2187 36.8475 27.6041 37.105C27.9896 37.3625 28.4427 37.5 28.9063 37.5C29.5279 37.5 30.124 37.2531 30.5635 36.8135C31.0031 36.374 31.25 35.7779 31.25 35.1563ZM28.125 35.1563C28.125 35.0017 28.1708 34.8507 28.2567 34.7222C28.3425 34.5937 28.4645 34.4936 28.6073 34.4345C28.75 34.3753 28.9071 34.3599 29.0587 34.39C29.2102 34.4202 29.3494 34.4946 29.4587 34.6038C29.5679 34.7131 29.6423 34.8523 29.6725 35.0038C29.7026 35.1554 29.6872 35.3125 29.628 35.4552C29.5689 35.598 29.4688 35.72 29.3403 35.8058C29.2118 35.8917 29.0608 35.9375 28.9063 35.9375C28.6991 35.9375 28.5003 35.8552 28.3538 35.7087C28.2073 35.5622 28.125 35.3635 28.125 35.1563Z" fill="#444444"/>
<path d="M29.6875 45.3125H39.0625C39.8913 45.3125 40.6862 44.9833 41.2722 44.3972C41.8583 43.8112 42.1875 43.0163 42.1875 42.1875V40.625C42.1875 40.4178 42.1052 40.2191 41.9587 40.0726C41.8122 39.9261 41.6135 39.8438 41.4062 39.8438C41.199 39.8438 41.0003 39.9261 40.8538 40.0726C40.7073 40.2191 40.625 40.4178 40.625 40.625V42.1875C40.625 42.6019 40.4604 42.9993 40.1674 43.2924C39.8743 43.5854 39.4769 43.75 39.0625 43.75H29.6875C29.4803 43.75 29.2816 43.8323 29.1351 43.9788C28.9886 44.1253 28.9062 44.324 28.9062 44.5312C28.9062 44.7385 28.9886 44.9372 29.1351 45.0837C29.2816 45.2302 29.4803 45.3125 29.6875 45.3125Z" fill="#444444"/>
<path d="M15.625 42.1875C15.625 42.6511 15.7625 43.1042 16.02 43.4896C16.2775 43.875 16.6436 44.1755 17.0718 44.3528C17.5001 44.5302 17.9714 44.5767 18.426 44.4862C18.8806 44.3958 19.2983 44.1726 19.626 43.8448C19.9538 43.517 20.177 43.0994 20.2675 42.6447C20.3579 42.1901 20.3115 41.7189 20.1341 41.2906C19.9567 40.8623 19.6563 40.4963 19.2709 40.2387C18.8854 39.9812 18.4323 39.8438 17.9687 39.8438C17.3471 39.8438 16.751 40.0907 16.3115 40.5302C15.8719 40.9698 15.625 41.5659 15.625 42.1875ZM18.75 42.1875C18.75 42.342 18.7042 42.4931 18.6183 42.6215C18.5325 42.75 18.4105 42.8502 18.2677 42.9093C18.125 42.9684 17.9679 42.9839 17.8163 42.9537C17.6648 42.9236 17.5256 42.8492 17.4163 42.7399C17.3071 42.6307 17.2327 42.4915 17.2025 42.3399C17.1724 42.1884 17.1878 42.0313 17.247 41.8885C17.3061 41.7458 17.4062 41.6238 17.5347 41.5379C17.6632 41.4521 17.8142 41.4063 17.9687 41.4063C18.1759 41.4063 18.3747 41.4886 18.5212 41.6351C18.6677 41.7816 18.75 41.9803 18.75 42.1875Z" fill="#444444"/>
</svg>
