<svg width="50" height="50" viewBox="0 0 50 50" fill="none" xmlns="http://www.w3.org/2000/svg">
<path d="M35.8648 38.3853C35.7749 38.3853 35.686 38.3673 35.6031 38.3325C35.5203 38.2977 35.4452 38.2468 35.3823 38.1826C35.0793 37.8743 34.7446 37.5989 34.3837 37.361C34.2428 37.2588 34.1467 37.1063 34.1155 36.9351C34.0842 36.7638 34.1203 36.5872 34.2161 36.4419C34.3119 36.2966 34.4601 36.1939 34.6298 36.1551C34.7995 36.1164 34.9775 36.1446 35.1269 36.2339C35.5662 36.5248 35.9739 36.8609 36.3431 37.2366C36.4363 37.3317 36.4993 37.4521 36.5243 37.5828C36.5493 37.7134 36.5351 37.8486 36.4836 37.9713C36.432 38.0939 36.3455 38.1987 36.2347 38.2723C36.1238 38.346 35.9938 38.3853 35.8607 38.3853H35.8648Z" fill="#444444"/>
<path d="M37.7704 48.6487H12.1488C11.9696 48.6487 11.7978 48.5775 11.671 48.4508C11.5443 48.324 11.4731 48.1522 11.4731 47.973V42.3987C11.4753 40.4371 12.2555 38.5564 13.6425 37.1694C15.0296 35.7823 16.9102 35.0021 18.8718 35H31.0204C31.1996 35 31.3715 35.0712 31.4982 35.1979C31.6249 35.3246 31.6961 35.4965 31.6961 35.6757C31.6961 35.8549 31.6249 36.0267 31.4982 36.1535C31.3715 36.2802 31.1996 36.3514 31.0204 36.3514H18.8718C17.2685 36.3531 15.7314 36.9908 14.5977 38.1245C13.464 39.2582 12.8263 40.7954 12.8245 42.3987V47.2973H37.0948V42.3987C37.0961 41.9267 37.0412 41.4563 36.9313 40.9973C36.9078 40.9104 36.902 40.8197 36.9142 40.7305C36.9263 40.6413 36.9562 40.5554 37.002 40.4779C37.0478 40.4004 37.1086 40.3328 37.1809 40.2791C37.2531 40.2255 37.3354 40.1868 37.4228 40.1653C37.5103 40.1439 37.6011 40.1402 37.69 40.1543C37.7789 40.1685 37.8641 40.2003 37.9405 40.2478C38.017 40.2954 38.0831 40.3577 38.1351 40.4312C38.1872 40.5047 38.224 40.5878 38.2434 40.6757C38.3789 41.2391 38.4469 41.8165 38.4461 42.396V47.973C38.4461 48.1522 38.3749 48.324 38.2482 48.4508C38.1215 48.5775 37.9496 48.6487 37.7704 48.6487Z" fill="#444444"/>
<path d="M24.958 32.4283C23.5575 32.4283 22.1885 32.013 21.024 31.2349C19.8595 30.4568 18.9519 29.3509 18.416 28.057C17.88 26.7631 17.7398 25.3393 18.013 23.9657C18.2862 22.5922 18.9607 21.3304 19.951 20.3401C20.9413 19.3498 22.203 18.6754 23.5766 18.4022C24.9502 18.129 26.374 18.2692 27.6679 18.8051C28.9618 19.3411 30.0677 20.2487 30.8457 21.4132C31.6238 22.5776 32.0391 23.9467 32.0391 25.3472C32.0372 27.2246 31.2905 29.0246 29.963 30.3521C28.6354 31.6796 26.8355 32.4263 24.958 32.4283ZM24.958 19.6175C23.8248 19.6175 22.717 19.9535 21.7748 20.5831C20.8325 21.2127 20.0981 22.1076 19.6645 23.1545C19.2308 24.2015 19.1173 25.3536 19.3384 26.465C19.5595 27.5765 20.1052 28.5974 20.9065 29.3987C21.7078 30.2 22.7288 30.7458 23.8402 30.9668C24.9517 31.1879 26.1037 31.0744 27.1507 30.6408C28.1977 30.2071 29.0925 29.4727 29.7221 28.5305C30.3517 27.5882 30.6878 26.4804 30.6878 25.3472C30.6862 23.8281 30.082 22.3716 29.0078 21.2974C27.9336 20.2233 26.4772 19.6191 24.958 19.6175Z" fill="#444444"/>
<path d="M31.5405 48.6485H18.3783C18.1991 48.6485 18.0273 48.5774 17.9005 48.4506C17.7738 48.3239 17.7026 48.1521 17.7026 47.9729V44.1161C17.7026 43.9369 17.7738 43.765 17.9005 43.6383C18.0273 43.5116 18.1991 43.4404 18.3783 43.4404C18.5575 43.4404 18.7294 43.5116 18.8561 43.6383C18.9828 43.765 19.054 43.9369 19.054 44.1161V47.2972H30.8648V44.1161C30.8648 43.9369 30.936 43.765 31.0627 43.6383C31.1894 43.5116 31.3613 43.4404 31.5405 43.4404C31.7197 43.4404 31.8915 43.5116 32.0183 43.6383C32.145 43.765 32.2162 43.9369 32.2162 44.1161V47.9729C32.2162 48.1521 32.145 48.3239 32.0183 48.4506C31.8915 48.5774 31.7197 48.6485 31.5405 48.6485Z" fill="#444444"/>
<path d="M45.5952 20.3379C45.4857 20.3378 45.3778 20.3111 45.281 20.2602L41.7897 18.425L38.2992 20.2602C38.1876 20.319 38.0617 20.3455 37.9359 20.3365C37.81 20.3275 37.6892 20.2834 37.5871 20.2093C37.485 20.1352 37.4057 20.034 37.3581 19.9171C37.3106 19.8002 37.2967 19.6724 37.3181 19.548L37.985 15.6608L35.1614 12.9054C35.071 12.8175 35.0071 12.706 34.9768 12.5837C34.9465 12.4613 34.9511 12.3329 34.99 12.213C35.0288 12.093 35.1005 11.9864 35.1968 11.9051C35.2931 11.8237 35.4103 11.771 35.535 11.7527L39.4384 11.1852L41.1837 7.64868C41.2458 7.54318 41.3344 7.45573 41.4407 7.39497C41.547 7.33421 41.6673 7.30225 41.7897 7.30225C41.9122 7.30225 42.0325 7.33421 42.1388 7.39497C42.2451 7.45573 42.3337 7.54318 42.3958 7.64868L44.1411 11.1852L48.0445 11.7527C48.1693 11.7709 48.2865 11.8235 48.3829 11.9048C48.4793 11.9861 48.5511 12.0928 48.59 12.2127C48.629 12.3327 48.6336 12.4611 48.6033 12.5835C48.573 12.7059 48.5091 12.8175 48.4188 12.9054L45.5945 15.6581L46.2614 19.5453C46.278 19.6423 46.2732 19.7418 46.2474 19.8367C46.2216 19.9317 46.1754 20.0199 46.1119 20.0951C46.0484 20.1704 45.9693 20.2308 45.8801 20.2723C45.7908 20.3137 45.6936 20.3352 45.5952 20.3352V20.3379ZM41.7897 16.9858C41.8993 16.9857 42.0071 17.0123 42.1039 17.0636L44.6979 18.4271L44.2019 15.5406C44.1834 15.4324 44.1915 15.3214 44.2255 15.2171C44.2596 15.1128 44.3185 15.0184 44.3972 14.9419L46.4952 12.8967L43.5952 12.4757C43.4867 12.46 43.3838 12.4181 43.2951 12.3537C43.2065 12.2893 43.1349 12.2044 43.0864 12.1061L41.7897 9.47841L40.4931 12.1034C40.4446 12.2017 40.373 12.2866 40.2843 12.351C40.1957 12.4154 40.0928 12.4573 39.9843 12.473L37.0843 12.894L39.183 14.9392C39.2616 15.0157 39.3204 15.1102 39.3543 15.2145C39.3882 15.3188 39.3962 15.4298 39.3776 15.5379L38.8816 18.4257L41.4756 17.0622C41.5724 17.011 41.6802 16.9843 41.7897 16.9845V16.9858Z" fill="#444444"/>
<path d="M28.8052 14.4141C28.6958 14.414 28.5881 14.3876 28.491 14.3371L24.9998 12.4999L21.5086 14.3357C21.397 14.3944 21.2712 14.4207 21.1455 14.4116C21.0198 14.4025 20.8991 14.3584 20.7971 14.2843C20.6951 14.2102 20.6158 14.1091 20.5683 13.9923C20.5208 13.8755 20.5069 13.7478 20.5282 13.6235L21.1951 9.7357L18.3708 6.983C18.2804 6.89502 18.2165 6.78351 18.1862 6.66108C18.156 6.53866 18.1606 6.41021 18.1995 6.29027C18.2385 6.17033 18.3102 6.06369 18.4066 5.9824C18.503 5.90111 18.6203 5.84842 18.7451 5.8303L22.6485 5.26341L24.3917 1.72827C24.4538 1.62277 24.5424 1.53532 24.6487 1.47456C24.755 1.4138 24.8753 1.38184 24.9978 1.38184C25.1202 1.38184 25.2405 1.4138 25.3468 1.47456C25.4531 1.53532 25.5417 1.62277 25.6039 1.72827L27.3512 5.26476L31.2545 5.83165C31.3793 5.84977 31.4966 5.90246 31.593 5.98375C31.6894 6.06504 31.7611 6.17168 31.8001 6.29162C31.839 6.41156 31.8436 6.54001 31.8134 6.66243C31.7831 6.78486 31.7192 6.89637 31.6289 6.98435L28.8045 9.73706L29.4714 13.6249C29.488 13.7218 29.4831 13.8212 29.4572 13.9161C29.4314 14.011 29.3851 14.0991 29.3217 14.1743C29.2582 14.2494 29.1791 14.3098 29.0899 14.3512C29.0007 14.3927 28.9036 14.4141 28.8052 14.4141ZM24.9998 11.0627C25.1092 11.0626 25.2171 11.089 25.314 11.1398L27.9052 12.5033L27.4093 9.61543C27.3908 9.50745 27.3989 9.3966 27.4328 9.29243C27.4667 9.18826 27.5254 9.09389 27.6039 9.01746L29.7025 6.97219L26.8052 6.55395C26.6967 6.53814 26.5937 6.49616 26.5051 6.43166C26.4164 6.36715 26.3448 6.28204 26.2964 6.18368L24.9998 3.55395L23.7032 6.18097C23.6548 6.27934 23.5832 6.36445 23.4945 6.42895C23.4059 6.49346 23.3029 6.53543 23.1944 6.55125L20.2944 6.97219L22.3931 9.01746C22.4715 9.09389 22.5303 9.18826 22.5642 9.29243C22.5981 9.3966 22.6061 9.50745 22.5876 9.61543L22.0944 12.5033L24.6883 11.1398C24.7845 11.0894 24.8913 11.063 24.9998 11.0627Z" fill="#444444"/>
<path d="M12.0155 20.3377C11.9058 20.3378 11.7977 20.3111 11.7006 20.26L8.21008 18.4249L4.71887 20.2587C4.60728 20.3173 4.48151 20.3436 4.35577 20.3345C4.23003 20.3255 4.10933 20.2814 4.00733 20.2073C3.90533 20.1332 3.8261 20.032 3.77858 19.9153C3.73107 19.7985 3.71717 19.6708 3.73846 19.5465L4.40535 15.6593L1.58103 12.9053C1.49187 12.8172 1.42899 12.7059 1.39943 12.5841C1.36986 12.4623 1.37478 12.3346 1.41362 12.2154C1.45247 12.0962 1.52371 11.9902 1.61938 11.9092C1.71506 11.8281 1.83138 11.7753 1.95536 11.7566L5.85873 11.1891L7.604 7.65259C7.66613 7.54709 7.75473 7.45963 7.86103 7.39887C7.96733 7.33811 8.08765 7.30615 8.21008 7.30615C8.33252 7.30615 8.45284 7.33811 8.55914 7.39887C8.66543 7.45963 8.75403 7.54709 8.81616 7.65259L10.5614 11.1891L14.4648 11.7566C14.5896 11.7749 14.7067 11.8276 14.803 11.909C14.8994 11.9903 14.971 12.0969 15.0099 12.2169C15.0487 12.3368 15.0533 12.4652 15.023 12.5876C14.9927 12.7099 14.9288 12.8214 14.8385 12.9093L12.0148 15.662L12.6817 19.5492C12.6983 19.6462 12.6936 19.7457 12.6678 19.8406C12.6419 19.9356 12.5957 20.0238 12.5322 20.099C12.4688 20.1743 12.3897 20.2347 12.3004 20.2762C12.2111 20.3176 12.1139 20.3391 12.0155 20.3391V20.3377ZM8.21008 16.9857C8.31959 16.9855 8.42747 17.0122 8.52427 17.0634L11.1182 18.4269L10.6222 15.5404C10.6037 15.4323 10.6117 15.3214 10.6456 15.2171C10.6795 15.1128 10.7383 15.0183 10.8168 14.9418L12.9155 12.8965L10.0155 12.4756C9.90707 12.4598 9.80411 12.418 9.71548 12.3536C9.62684 12.2892 9.55519 12.2042 9.5067 12.106L8.21008 9.47827L6.91346 12.106C6.86497 12.2042 6.79332 12.2892 6.70469 12.3536C6.61605 12.418 6.51309 12.4598 6.40468 12.4756L3.50468 12.8965L5.59927 14.9418C5.67858 15.0179 5.73812 15.1122 5.77274 15.2165C5.80735 15.3208 5.816 15.432 5.79792 15.5404L5.30198 18.4256L7.89589 17.062C7.99269 17.0108 8.10057 16.9842 8.21008 16.9843V16.9857Z" fill="#444444"/>
</svg>
