<svg width="50" height="50" viewBox="0 0 50 50" fill="none" xmlns="http://www.w3.org/2000/svg">
<g clip-path="url(#clip0)">
<path d="M36.6193 31.3889H34.1362C33.744 31.3889 33.4263 31.7066 33.4263 32.0988C33.4263 32.491 33.744 32.8087 34.1362 32.8087H36.6193C37.0115 32.8087 37.3292 32.491 37.3292 32.0988C37.3292 31.7066 37.0115 31.3889 36.6193 31.3889Z" fill="#444444"/>
<path d="M36.6193 35.8511H34.1362C33.744 35.8511 33.4263 36.1688 33.4263 36.561C33.4263 36.9532 33.744 37.2709 34.1362 37.2709H36.6193C37.0115 37.2709 37.3292 36.9532 37.3292 36.561C37.3292 36.1688 37.0115 35.8511 36.6193 35.8511Z" fill="#444444"/>
<path d="M36.6193 40.2119H34.1362C33.744 40.2119 33.4263 40.5296 33.4263 40.9218C33.4263 41.314 33.744 41.6317 34.1362 41.6317H36.6193C37.0115 41.6317 37.3292 41.314 37.3292 40.9218C37.3292 40.5296 37.0115 40.2119 36.6193 40.2119Z" fill="#444444"/>
<path d="M27.4316 25.3966C27.8238 25.3966 28.1415 25.0789 28.1415 24.6867V21.8486C28.1415 21.4564 27.8238 21.1387 27.4316 21.1387C27.0394 21.1387 26.7217 21.4564 26.7217 21.8486V24.6867C26.7217 25.0789 27.0394 25.3966 27.4316 25.3966Z" fill="#444444"/>
<path d="M22.9692 25.3966C23.3614 25.3966 23.6791 25.0789 23.6791 24.6867V21.8486C23.6791 21.4564 23.3614 21.1387 22.9692 21.1387C22.577 21.1387 22.2593 21.4564 22.2593 21.8486V24.6867C22.2593 25.0789 22.577 25.3966 22.9692 25.3966Z" fill="#444444"/>
<path d="M18.5068 25.3966C18.899 25.3966 19.2167 25.0789 19.2167 24.6867V21.8486C19.2167 21.4564 18.899 21.1387 18.5068 21.1387C18.1146 21.1387 17.7969 21.4564 17.7969 21.8486V24.6867C17.7969 25.0789 18.1146 25.3966 18.5068 25.3966Z" fill="#444444"/>
<path d="M36.6193 26.9265H34.1362C33.744 26.9265 33.4263 27.2442 33.4263 27.6364C33.4263 28.0286 33.744 28.3463 34.1362 28.3463H36.6193C37.0115 28.3463 37.3292 28.0286 37.3292 27.6364C37.3292 27.2442 37.0115 26.9265 36.6193 26.9265Z" fill="#444444"/>
<path d="M41.6403 31.3889H39.1572C38.765 31.3889 38.4473 31.7066 38.4473 32.0988C38.4473 32.491 38.765 32.8087 39.1572 32.8087H41.6403C42.0325 32.8087 42.3502 32.491 42.3502 32.0988C42.3502 31.7066 42.0325 31.3889 41.6403 31.3889Z" fill="#444444"/>
<path d="M41.6403 35.8511H39.1572C38.765 35.8511 38.4473 36.1688 38.4473 36.561C38.4473 36.9532 38.765 37.2709 39.1572 37.2709H41.6403C42.0325 37.2709 42.3502 36.9532 42.3502 36.561C42.3502 36.1688 42.0325 35.8511 41.6403 35.8511Z" fill="#444444"/>
<path d="M41.6403 40.2119H39.1572C38.765 40.2119 38.4473 40.5296 38.4473 40.9218C38.4473 41.314 38.765 41.6317 39.1572 41.6317H41.6403C42.0325 41.6317 42.3502 41.314 42.3502 40.9218C42.3502 40.5296 42.0325 40.2119 41.6403 40.2119Z" fill="#444444"/>
<path d="M39.1572 28.3463H41.6403C42.0325 28.3463 42.3502 28.0286 42.3502 27.6364C42.3502 27.2442 42.0325 26.9265 41.6403 26.9265H39.1572C38.765 26.9265 38.4473 27.2442 38.4473 27.6364C38.4473 28.0286 38.765 28.3463 39.1572 28.3463Z" fill="#444444"/>
<path d="M22.9692 17.8941C23.3614 17.8941 23.6791 17.5764 23.6791 17.1842V14.3461C23.6791 13.9543 23.3614 13.6362 22.9692 13.6362C22.577 13.6362 22.2593 13.9543 22.2593 14.3461V17.1842C22.2593 17.5764 22.577 17.8941 22.9692 17.8941Z" fill="#444444"/>
<path d="M18.5068 17.8941C18.899 17.8941 19.2167 17.5764 19.2167 17.1842V14.3461C19.2167 13.9543 18.899 13.6362 18.5068 13.6362C18.1146 13.6362 17.7969 13.9543 17.7969 14.3461V17.1842C17.7969 17.5764 18.1146 17.8941 18.5068 17.8941Z" fill="#444444"/>
<path d="M27.4316 32.899C27.8238 32.899 28.1415 32.5813 28.1415 32.1891V29.351C28.1415 28.9592 27.8238 28.6411 27.4316 28.6411C27.0394 28.6411 26.7217 28.9592 26.7217 29.351V32.1891C26.7217 32.5813 27.0394 32.899 27.4316 32.899Z" fill="#444444"/>
<path d="M22.9692 32.899C23.3614 32.899 23.6791 32.5813 23.6791 32.1891V29.351C23.6791 28.9592 23.3614 28.6411 22.9692 28.6411C22.577 28.6411 22.2593 28.9592 22.2593 29.351V32.1891C22.2593 32.5813 22.577 32.899 22.9692 32.899Z" fill="#444444"/>
<path d="M18.5068 32.899C18.899 32.899 19.2167 32.5813 19.2167 32.1891V29.351C19.2167 28.9592 18.899 28.6411 18.5068 28.6411C18.1146 28.6411 17.7969 28.9592 17.7969 29.351V32.1891C17.7969 32.5813 18.1146 32.899 18.5068 32.899Z" fill="#444444"/>
<path d="M27.4316 40.4014C27.8238 40.4014 28.1415 40.0837 28.1415 39.6915V36.8535C28.1415 36.4613 27.8238 36.1436 27.4316 36.1436C27.0394 36.1436 26.7217 36.4613 26.7217 36.8535V39.6915C26.7217 40.0837 27.0394 40.4014 27.4316 40.4014Z" fill="#444444"/>
<path d="M22.9692 40.4014C23.3614 40.4014 23.6791 40.0837 23.6791 39.6915V36.8535C23.6791 36.4613 23.3614 36.1436 22.9692 36.1436C22.577 36.1436 22.2593 36.4613 22.2593 36.8535V39.6915C22.2593 40.0837 22.577 40.4014 22.9692 40.4014Z" fill="#444444"/>
<path d="M18.5068 40.4014C18.899 40.4014 19.2167 40.0837 19.2167 39.6915V36.8535C19.2167 36.4613 18.899 36.1436 18.5068 36.1436C18.1146 36.1436 17.7969 36.4613 17.7969 36.8535V39.6915C17.7969 40.0837 18.1146 40.4014 18.5068 40.4014Z" fill="#444444"/>
<path d="M38.4624 2.84132C35.5534 2.83657 32.7526 3.94264 30.6316 5.93333H14.43C14.2485 5.92421 14.0711 5.99077 13.9403 6.11714C13.8096 6.24352 13.7371 6.41822 13.7403 6.60006V21.2472H6.1816C5.77395 21.2586 5.44395 21.5819 5.42415 21.9895V27.4335H0.711863C0.319668 27.4335 0.0490935 27.7532 0.0490935 28.1454V32.8807C-0.0523226 32.9266 0.0348318 32.9742 0.0348318 33.0225C0.0348318 33.0708 -0.0523226 33.1188 0.0490935 33.1651V37.3145C-0.0523226 37.3604 0.0348318 37.408 0.0348318 37.4567C0.0348318 37.5054 -0.0523226 37.5537 0.0490935 37.6001V41.749C-0.0523226 41.795 0.0348318 41.8429 0.0348318 41.8917C0.0348318 41.9404 -0.0523226 41.9879 0.0490935 42.0335V46.4692C0.0490935 46.8614 0.319668 47.2097 0.711863 47.2097H43.7741C44.169 47.1938 44.4784 46.8646 44.4693 46.4692V24.2112C48.8837 21.5225 50.9687 16.2239 49.5699 11.2482C48.1714 6.27244 43.6311 2.83617 38.4624 2.84132ZM15.1601 7.35315H29.3306C27.8775 9.22063 27.0404 11.493 26.9347 13.8569C26.7972 13.982 26.7195 14.1603 26.7215 14.3461V17.1842C26.7203 17.372 26.7944 17.5526 26.9267 17.6857C27.059 17.8188 27.2389 17.8941 27.4267 17.8941C27.4362 17.8937 27.4457 17.8929 27.4552 17.8917C28.1164 19.947 29.3373 21.7776 30.981 23.1772V45.7898H15.1601V7.35315ZM13.7403 36.7638H1.46892V33.7213H13.7403V36.7638ZM1.46892 38.1836H13.7403V41.2261H1.46892V38.1836ZM6.1816 28.8534C6.57379 28.8534 6.84397 28.5376 6.84397 28.1454V22.667H13.7403V32.3015H1.46892V28.8534H6.1816ZM1.46892 42.6459H13.7403V45.7898H1.46892V42.6459ZM43.0495 45.7898H32.4008V24.2064C34.2263 25.286 36.2309 25.9099 38.439 25.9099C40.0253 25.9107 41.5948 25.5843 43.0495 24.9516V45.7898ZM38.4624 24.4897C32.8703 24.4897 28.3374 19.9565 28.3374 14.3647C28.3374 8.77258 32.8703 4.23976 38.4624 4.23976C44.0542 4.23976 48.5874 8.77258 48.5874 14.3647C48.581 19.9541 44.0518 24.4834 38.4624 24.4897Z" fill="#444444"/>
<path d="M38.4858 9.6687C38.0936 9.6687 37.7759 9.98642 37.7759 10.3786V15.1056C37.7759 15.4977 38.0936 15.8155 38.4858 15.8155C38.878 15.8155 39.1957 15.4977 39.1957 15.1056V10.3786C39.1957 9.98642 38.878 9.6687 38.4858 9.6687Z" fill="#444444"/>
<path d="M38.4858 16.9707C38.0936 16.9707 37.7759 17.2884 37.7759 17.6806V18.351C37.7759 18.7432 38.0936 19.0609 38.4858 19.0609C38.878 19.0609 39.1958 18.7432 39.1958 18.351V17.6806C39.1958 17.2884 38.878 16.9707 38.4858 16.9707Z" fill="#444444"/>
</g>
<defs>
<clipPath id="clip0">
<rect width="50" height="50" fill="white"/>
</clipPath>
</defs>
</svg>
