<svg width="50" height="50" viewBox="0 0 50 50" fill="none" xmlns="http://www.w3.org/2000/svg">
<path d="M34.8672 30.6434C44.8148 23.5038 44.074 8.4956 33.558 2.31961C33.526 2.2971 33.4912 2.27726 33.4546 2.2601C27.2077 -1.34937 19.1983 -0.621144 13.6785 4.34178C13.3775 4.61224 13.3527 5.07534 13.6231 5.37594C13.8936 5.67692 14.3567 5.70133 14.6577 5.43087C18.2553 2.19639 23.1599 0.837215 27.8852 1.73481C27.8176 2.53285 27.2618 3.39688 26.6545 3.97442C25.4617 5.10891 20.522 4.13006 18.728 8.05271C18.4774 8.59974 18.1317 9.57135 17.8212 10.0581C17.6637 9.50878 17.5351 8.6459 16.8428 8.06034C16.4273 7.70901 15.9829 7.55375 15.5217 7.59838C14.6924 7.67964 14.1172 8.40023 13.7731 8.83053C13.0464 9.74072 13.3699 10.5578 13.6056 11.1548C13.8242 11.7068 14.0126 12.1833 13.6617 12.9771C13.3252 13.7389 14.0241 14.5705 14.2537 14.8436C15.1952 15.9636 17.5576 17.8206 18.9973 17.464C22.511 16.5904 23.5059 22.317 25.8451 22.9136C27.5968 23.3603 29.2817 24.3735 29.0692 25.2963C28.4146 28.1375 25.7188 27.8598 24.0285 28.609C23.0977 29.0217 21.412 30.1932 20.2806 31.6264C19.3872 31.3414 18.5288 30.9794 17.7136 30.5453C17.8243 30.2874 17.946 30.0177 18.0806 29.7343C19.3048 27.1647 19.2239 25.8269 16.3281 23.4366C14.9404 22.2911 15.4195 20.7419 16.0661 19.6444C16.4781 18.9452 16.2744 18.0377 15.6022 17.5788C14.5577 16.8643 11.4991 15.0332 10.072 12.926C10.5977 10.9488 11.4907 9.12922 12.7328 7.51103C12.9792 7.18983 12.9186 6.73016 12.5978 6.48373C12.2766 6.2373 11.8169 6.29795 11.5708 6.61877C7.47805 11.9513 6.73991 19.6212 10.658 25.8845C15.8208 34.1376 26.7865 36.3002 34.7016 30.7601C34.7768 30.7216 34.8218 30.6857 34.8672 30.6434ZM34.6547 28.9676C34.5296 27.8365 35.5546 26.1397 36.4797 24.6089C37.6924 22.6024 38.8375 20.7072 37.927 19.3526C37.0637 18.069 35.7896 18.587 34.2984 17.3564C33.4245 16.635 32.6112 15.7218 33.0899 13.2235C33.2254 12.5155 33.9063 11.634 35.0068 10.7413C35.724 10.1596 35.9922 9.17614 35.6736 8.29457C35.5466 7.94285 35.5413 7.7155 35.5756 7.62738C36.1013 6.27812 33.875 5.5518 33.682 4.12167C42.3158 9.97799 42.7388 22.5062 34.6547 28.9676ZM9.69325 14.8024C11.3633 16.651 13.6563 18.0224 14.7759 18.7884C14.8145 18.8144 14.8263 18.8628 14.8042 18.9009C13.5003 21.1146 13.7158 23.1799 15.3958 24.5665C18.1748 26.8603 17.5153 27.3536 16.4453 29.7889C11.686 26.6299 8.846 20.8682 9.69325 14.8024ZM21.8568 32.0407C22.7655 31.0702 23.9408 30.2504 24.6224 29.9483C26.0182 29.33 29.6254 29.4093 30.4971 25.6247C30.9537 23.643 28.6717 22.1221 26.2075 21.4938C24.8643 21.1512 23.2221 14.9058 18.6448 16.0418C18.5525 16.0636 18.0997 16.0094 17.2521 15.4822C16.0707 14.7471 15.2124 13.8007 15.0559 13.4417C15.5763 12.1543 15.212 11.2323 14.9682 10.6158C14.7443 10.0493 14.7397 9.96807 14.9179 9.74491C15.0498 9.57974 15.4512 9.07734 15.6644 9.05636C15.7136 9.05064 15.8006 9.09718 15.8967 9.17881C16.501 9.68998 16.1927 11.4352 17.5267 11.6889C18.9534 11.9597 19.5211 9.84104 20.0601 8.66192C21.52 5.47016 25.8893 6.72405 27.6643 5.03567C28.5863 4.15867 29.1684 3.09361 29.318 2.07737C30.3506 2.37683 31.3386 2.77775 32.2709 3.2729C31.8231 5.40608 33.6736 6.63098 34.1558 7.26231C34.0383 7.69566 34.0852 8.2095 34.2958 8.792C34.4026 9.08802 34.3175 9.41418 34.084 9.60339C33.1159 10.3885 31.9081 11.6061 31.651 12.9477C31.0502 16.0849 32.1809 17.5078 33.3657 18.4863C36.1199 20.7595 38.4782 18.4691 35.2258 23.8509C34.0058 25.8696 32.6436 28.1249 33.3798 29.8842C30.0798 32.0159 25.9778 32.8982 21.8568 32.0407Z" fill="#444444"/>
<path d="M12.0114 42.4317C12.1545 42.6301 12.3784 42.7354 12.6057 42.7354C13.1917 42.7354 13.5533 42.0648 13.1989 41.5742C12.2372 40.2417 7.97737 38.0155 5.70342 35.7728C4.82147 34.9027 3.27575 31.8978 2.87025 30.6313L1.86965 27.0291C1.75445 26.6141 2.35946 26.3482 2.57079 26.8128C3.73695 29.2992 3.83689 29.8062 4.42169 30.5596C5.76599 32.2919 7.51121 33.7201 9.47349 34.699L12.5928 37.8354C12.7358 37.9796 12.9239 38.0513 13.1119 38.0513C13.7589 38.0513 14.0912 37.2647 13.6315 36.8024L10.4836 33.6369L9.2427 31.709C9.03365 31.2787 9.58946 30.8587 9.95681 31.2383C14.2152 35.7152 14.0115 35.5802 14.2312 35.687L18.8016 37.9071C21.2964 39.1191 21.1179 41.7615 21.1774 41.9496C21.2144 42.3524 21.5699 42.648 21.9739 42.6118C22.3771 42.5748 22.6735 42.2181 22.6365 41.8153L22.572 41.1141C22.3935 39.1744 21.1938 37.4402 19.4417 36.5891L14.9914 34.4274L11.0154 30.2255C10.3841 29.5728 9.37927 29.4412 8.62586 29.9127C7.94608 30.338 7.62489 31.1303 7.76908 31.8803C6.95503 31.2295 6.21688 30.483 5.57868 29.6613C5.1583 29.1196 5.14533 28.8731 3.90441 26.2063C3.53935 25.4029 2.66425 24.9562 1.8235 25.1435C0.801538 25.3716 0.177453 26.4119 0.457834 27.4209C1.80595 32.2732 1.37794 30.7698 1.46987 31.062C1.93183 32.5181 3.58589 35.7423 4.6746 36.8154C5.91476 38.0387 7.65579 39.2274 9.19158 40.276C9.82864 40.7109 11.6368 41.9133 12.0114 42.4317Z" fill="#444444"/>
<path d="M48.3619 25.1951C47.4677 24.8949 46.4995 25.3157 46.1097 26.1728C44.8562 28.8679 44.8424 29.1178 44.4205 29.661C43.7823 30.4831 43.0442 31.2296 42.2301 31.8804C42.3743 31.1304 42.0527 30.3377 41.3733 29.9128C40.6203 29.4413 39.6151 29.5725 38.9785 30.2309L35.0078 34.4271L30.5579 36.5889C27.2376 38.2017 27.4272 41.6407 27.3601 41.8455C27.3231 42.2487 27.6195 42.605 28.0223 42.642C28.4244 42.6794 28.7818 42.3826 28.8188 41.9798C28.8779 41.7925 28.6982 39.1207 31.198 37.9068C35.9809 35.5654 35.8073 35.7138 35.9801 35.5314L40.0371 31.2437C40.4139 30.8542 40.9644 31.2807 40.7561 31.7087L39.5156 33.6367L36.3677 36.8021C35.9076 37.2645 36.2407 38.051 36.8873 38.051C37.4434 38.051 37.4663 37.6711 40.5257 34.6983C43.373 33.2785 45.5558 30.9324 46.1745 29.5714L47.4437 26.779C47.6264 26.3765 48.2547 26.5791 48.1204 27.0628L47.129 30.6307C46.7235 31.8976 45.1777 34.9024 44.2962 35.7721C42.0279 38.0095 37.7757 40.2323 36.8068 41.5648C36.452 42.0515 36.8071 42.7286 37.3984 42.7286C37.6246 42.7286 37.8478 42.6241 37.9912 42.4269C38.7282 41.4148 42.9961 39.1123 45.3246 36.8155C46.4129 35.742 48.0674 32.5178 48.5293 31.0618C48.6216 30.7688 48.2432 32.0925 49.5318 27.455C49.7977 26.4975 49.2839 25.5049 48.3619 25.1951Z" fill="#444444"/>
<path d="M22.4116 44.1138H13.441C12.5045 44.1138 11.7427 44.8756 11.7427 45.8121V48.3019C11.7427 49.2381 12.5045 49.9998 13.441 49.9998H22.4116C23.3477 49.9998 24.1095 49.2381 24.1095 48.3019V45.8121C24.1095 44.8756 23.3477 44.1138 22.4116 44.1138ZM22.6447 48.3019C22.6447 48.4305 22.5402 48.535 22.4116 48.535H13.441C13.3124 48.535 13.2079 48.4305 13.2079 48.3019V45.8121C13.2079 45.6835 13.3124 45.579 13.441 45.579H22.4116C22.5402 45.579 22.6447 45.6835 22.6447 45.8121V48.3019Z" fill="#444444"/>
<path d="M36.5586 44.1138H27.5876C26.6514 44.1138 25.8896 44.8756 25.8896 45.8121V48.3019C25.8896 49.2381 26.6514 49.9998 27.5876 49.9998H36.5586C37.4947 49.9998 38.2565 49.2381 38.2565 48.3019V45.8121C38.2565 44.8756 37.4947 44.1138 36.5586 44.1138ZM36.7913 48.3019C36.7913 48.4305 36.6871 48.535 36.5586 48.535H27.5876C27.4594 48.535 27.3549 48.4305 27.3549 48.3019V45.8121C27.3549 45.6835 27.4594 45.579 27.5876 45.579H36.5586C36.6871 45.579 36.7913 45.6835 36.7913 45.8121V48.3019Z" fill="#444444"/>
</svg>
