<svg width="50" height="50" viewBox="0 0 50 50" fill="none" xmlns="http://www.w3.org/2000/svg">
<path d="M43.6803 27.412L43.4092 27.5607C42.4247 26.3244 40.6982 25.8419 39.3857 26.5181L39.3725 26.525L38.7695 26.8546C38.0835 26.2548 37.2263 25.8859 36.319 25.8002C35.4118 25.7146 34.5007 25.9164 33.7145 26.3773L30.5639 28.1183H26.3738C25.4624 28.1168 24.5634 27.9074 23.7452 27.5061L23.1699 27.2229C21.5398 26.416 19.7158 26.0834 17.9058 26.2629C16.0958 26.4425 14.3727 27.127 12.9329 28.2385C12.9199 28.2483 12.9075 28.2586 12.8958 28.2694L11.507 29.5263C10.9718 30.0113 10.3348 30.3702 9.64265 30.5768L8.84041 27.9025C8.8042 27.7818 8.73004 27.676 8.62894 27.6007C8.52784 27.5255 8.40519 27.4849 8.27918 27.4849H1.56248C1.47964 27.4849 1.39774 27.5025 1.32219 27.5364C1.24664 27.5704 1.17915 27.62 1.12418 27.682C1.06921 27.744 1.028 27.8169 1.00327 27.8959C0.978547 27.975 0.970866 28.0584 0.980738 28.1407L3.2196 46.7983C3.23668 46.9405 3.30531 47.0716 3.41251 47.1667C3.5197 47.2619 3.65804 47.3144 3.80134 47.3144H13.8763C13.9677 47.3144 14.0578 47.293 14.1394 47.252C14.221 47.211 14.2919 47.1515 14.3464 47.0782C14.401 47.0049 14.4376 46.9199 14.4534 46.83C14.4692 46.74 14.4638 46.6476 14.4376 46.5601L13.1012 42.1055L17.2563 39.4362C17.8134 39.122 18.4703 39.0353 19.0897 39.1944C19.102 39.1975 19.1144 39.2002 19.1269 39.2026L27.5119 40.7714C29.7855 41.1844 32.1318 40.8478 34.1976 39.8123C34.2226 39.7997 34.2466 39.7854 34.2695 39.7694L48.7728 29.6496C48.8941 29.565 48.9789 29.4377 49.0102 29.2932C49.0415 29.1487 49.017 28.9977 48.9417 28.8704C48.4281 27.9891 47.5906 27.3434 46.6076 27.0709C45.6247 26.7985 44.5742 26.9209 43.6803 27.412ZM39.9279 27.5568C40.6827 27.1721 41.7052 27.4457 42.3587 28.1365L36.7929 31.1875L36.4342 31.3798C36.2556 30.8461 35.9848 30.3478 35.6343 29.9074L39.9279 27.5568ZM34.288 27.3997C34.2927 27.3972 34.2977 27.3945 34.3018 27.3917C34.8111 27.0919 35.394 26.9404 35.9849 26.9543C36.5757 26.9683 37.1508 27.1471 37.6454 27.4706L34.7548 29.0537C34.1872 28.6284 33.5303 28.3376 32.8338 28.2035L34.288 27.3997ZM4.32117 46.1425L2.22293 28.6568H7.84324L13.0888 46.1425H4.32117ZM33.634 38.7842C31.8057 39.6909 29.7337 39.9839 27.7258 39.6195L19.3602 38.054C18.4473 37.825 17.4811 37.9579 16.6639 38.4251C16.6547 38.4304 16.6457 38.4359 16.6368 38.4416L12.751 40.9374L9.97937 31.6991C10.8383 31.4427 11.6288 30.9972 12.2931 30.3953L13.6637 29.1551C14.9301 28.1829 16.4436 27.5852 18.0325 27.4296C19.6214 27.2741 21.2221 27.5669 22.653 28.275L23.2283 28.5577C24.2075 29.0379 25.2832 29.2884 26.3738 29.2902H31.9519C33.7097 29.2902 35.1746 30.5945 35.462 32.3032L31.368 32.115C29.9 32.0479 28.4289 32.117 26.9735 32.3212C26.8196 32.3429 26.6806 32.4248 26.5871 32.5489C26.4936 32.673 26.4533 32.8292 26.4749 32.9831C26.4966 33.137 26.5785 33.2759 26.7026 33.3694C26.8267 33.463 26.9829 33.5033 27.1368 33.4817C28.5203 33.2874 29.9188 33.2218 31.3143 33.2856L36.0723 33.5044C36.0813 33.5048 36.0903 33.505 36.0993 33.505C36.2547 33.505 36.4037 33.4433 36.5136 33.3334C36.6235 33.2235 36.6852 33.0745 36.6852 32.9191C36.6852 32.8056 36.68 32.6934 36.6722 32.5818L37.3514 32.2178L44.2437 28.439C44.7889 28.1395 45.4199 28.0348 46.0325 28.1421C46.6452 28.2494 47.203 28.5624 47.6139 29.0293L33.634 38.7842Z" fill="#444444"/>
<path d="M6.38186 43.464C6.38613 43.8447 6.50292 44.2155 6.71751 44.53C6.9321 44.8444 7.23491 45.0883 7.58782 45.231C7.94074 45.3737 8.32798 45.4089 8.70081 45.332C9.07364 45.2551 9.41539 45.0696 9.68305 44.7989C9.95071 44.5283 10.1323 44.1844 10.205 43.8108C10.2777 43.4371 10.2382 43.0503 10.0916 42.699C9.94492 42.3477 9.69762 42.0477 9.38081 41.8366C9.06399 41.6256 8.69183 41.5129 8.31115 41.5129C7.79677 41.5164 7.30477 41.7238 6.94309 42.0896C6.5814 42.4553 6.37957 42.9496 6.38186 43.464ZM8.31115 42.6848C8.46623 42.6804 8.61909 42.7224 8.75018 42.8053C8.88128 42.8883 8.98464 43.0084 9.04705 43.1505C9.10946 43.2925 9.12807 43.4499 9.10051 43.6026C9.07295 43.7553 9.00046 43.8962 8.89233 44.0075C8.7842 44.1187 8.64534 44.1952 8.49351 44.227C8.34168 44.2589 8.1838 44.2448 8.04006 44.1864C7.89632 44.1281 7.77326 44.0281 7.68662 43.8995C7.59999 43.7708 7.55372 43.6192 7.55373 43.464C7.55109 43.2603 7.62935 43.0639 7.77134 42.9178C7.91334 42.7717 8.10746 42.688 8.31115 42.6848Z" fill="#444444"/>
<path d="M27.8178 2.68555C21.9443 2.68555 17.166 7.45811 17.166 13.3244C17.166 19.1907 21.9443 23.9632 27.8178 23.9632C33.6912 23.9632 38.4695 19.1906 38.4695 13.3244C38.4695 7.4582 33.6915 2.68555 27.8178 2.68555ZM27.8178 22.7913C25.9459 22.7888 24.1168 22.2314 22.5617 21.1896C21.0066 20.1478 19.7952 18.6683 19.0806 16.9382C18.366 15.2081 18.1804 13.305 18.5472 11.4695C18.9139 9.6339 19.8166 7.94825 21.1411 6.62556C22.4656 5.30287 24.1525 4.40252 25.9885 4.03829C27.8246 3.67405 29.7275 3.8623 31.4566 4.57922C33.1857 5.29615 34.6635 6.50958 35.7031 8.06615C36.7428 9.62272 37.2977 11.4526 37.2977 13.3244C37.2931 15.836 36.2924 18.2433 34.5152 20.0181C32.738 21.7928 30.3294 22.7902 27.8178 22.7913Z" fill="#444444"/>
<path d="M28.0849 8.98838C29.6 9.05068 29.9588 10.2976 29.9954 10.4435C30.0313 10.5946 30.1259 10.7254 30.2582 10.8068C30.3906 10.8883 30.5498 10.9139 30.701 10.8779C30.8522 10.842 30.9829 10.7474 31.0644 10.6151C31.1459 10.4827 31.1715 10.3235 31.1355 10.1723C30.9768 9.57809 30.6485 9.04301 30.1907 8.63242C29.7328 8.22183 29.1653 7.95351 28.5574 7.86025V7.11914C28.5574 6.96374 28.4957 6.8147 28.3858 6.70482C28.2759 6.59494 28.1268 6.5332 27.9714 6.5332C27.816 6.5332 27.667 6.59494 27.5571 6.70482C27.4472 6.8147 27.3855 6.96374 27.3855 7.11914V7.8625C26.8584 7.94391 26.369 8.1851 25.9834 8.55351C25.1564 9.3585 25.1075 10.4969 25.1122 10.8272C25.1302 12.0968 26.0775 13.1684 27.4152 13.4334L27.5324 13.4567C27.6325 13.4763 27.7554 13.5014 27.8306 13.516C27.8738 13.5244 27.9861 13.5587 28.0343 13.5734C28.0512 13.5785 28.0677 13.5847 28.0839 13.5919C28.0917 13.5953 28.0994 13.5985 28.1073 13.6017L28.2911 13.6732C28.3073 13.6795 28.3232 13.6867 28.3386 13.6947C28.4254 13.7395 28.4465 13.7521 28.5095 13.7896C28.5354 13.8048 28.5661 13.823 28.6056 13.8462L28.6252 13.859C28.6313 13.8629 28.638 13.8673 28.6457 13.8719C28.8353 13.9891 29.7829 14.6181 29.8206 15.5334C29.8434 16.0892 29.7024 16.5113 29.3894 16.8238C28.9089 17.3036 28.1348 17.4047 27.7512 17.3874C27.3542 17.3479 26.9741 17.2066 26.6477 16.9772C26.3645 16.7812 26.0154 16.4424 25.9602 15.9407C25.9528 15.8634 25.9301 15.7884 25.8935 15.72C25.8568 15.6515 25.8069 15.5911 25.7467 15.5421C25.6865 15.4931 25.6171 15.4566 25.5427 15.4346C25.4682 15.4126 25.3901 15.4057 25.3129 15.4142C25.2358 15.4227 25.1611 15.4464 25.0931 15.484C25.0252 15.5216 24.9654 15.5723 24.9173 15.6332C24.8692 15.6941 24.8336 15.764 24.8127 15.8388C24.7918 15.9135 24.7859 15.9917 24.7955 16.0687C24.9502 17.4772 26.3068 18.3418 27.3851 18.5239V19.151C27.3851 19.3064 27.4469 19.4554 27.5567 19.5653C27.6666 19.6752 27.8157 19.7369 27.9711 19.7369C28.1265 19.7369 28.2755 19.6752 28.3854 19.5653C28.4953 19.4554 28.557 19.3064 28.557 19.151V18.4905C29.1809 18.3814 29.7585 18.09 30.2172 17.6532C30.7597 17.1115 31.0277 16.3618 30.9914 15.4853C30.9309 14.0189 29.6576 13.1197 29.259 12.8735C29.2539 12.8702 29.2102 12.8425 29.2054 12.8398L29.1068 12.7817C29.0302 12.7363 28.9884 12.7119 28.8764 12.6539C28.824 12.6268 28.7703 12.6025 28.7153 12.5812L28.5423 12.5139C28.4882 12.4905 28.4328 12.4701 28.3763 12.4528C28.2611 12.4176 28.1497 12.3845 28.0541 12.3659C27.9803 12.3516 27.8598 12.3274 27.762 12.3078L27.6428 12.2841C26.7159 12.1004 26.2922 11.4117 26.2836 10.8107C26.2773 10.3748 26.4099 9.77363 26.8005 9.39346C27.1005 9.10156 27.5321 8.96484 28.0849 8.98838Z" fill="#444444"/>
</svg>
