<svg width="50" height="50" viewBox="0 0 50 50" fill="none" xmlns="http://www.w3.org/2000/svg">
<path d="M45.8333 0H4.16667C1.8666 0.00270928 0.00270928 1.8666 0 4.16667V45.8333C0.00270928 48.1334 1.8666 49.9973 4.16667 50H45.8333C48.1334 49.9973 49.9973 48.1334 50 45.8333V4.16667C49.9973 1.8666 48.1334 0.00270928 45.8333 0ZM4.16667 1.66667H45.8333C47.2134 1.66818 48.3318 2.78658 48.3333 4.16667V10H1.66667V4.16667C1.66818 2.78658 2.78658 1.66818 4.16667 1.66667ZM45.8333 48.3333H4.16667C2.78658 48.3318 1.66818 47.2134 1.66667 45.8333V11.6667H48.3333V45.8333C48.3318 47.2134 47.2134 48.3318 45.8333 48.3333Z" fill="#444444"/>
<path d="M5.8335 8.33325C7.21421 8.33325 8.3335 7.21396 8.3335 5.83325C8.3335 4.45254 7.21421 3.33325 5.8335 3.33325C4.45278 3.33325 3.3335 4.45254 3.3335 5.83325C3.33501 7.21334 4.45341 8.33174 5.8335 8.33325ZM5.8335 4.99992C6.29373 4.99992 6.66683 5.37301 6.66683 5.83325C6.66683 6.29349 6.29373 6.66659 5.8335 6.66659C5.37326 6.66659 5.00016 6.29349 5.00016 5.83325C5.00058 5.37319 5.37343 5.00033 5.8335 4.99992Z" fill="#444444"/>
<path d="M12.5 8.33325C13.8807 8.33325 15 7.21396 15 5.83325C15 4.45254 13.8807 3.33325 12.5 3.33325C11.1193 3.33325 10 4.45254 10 5.83325C10.0015 7.21334 11.1199 8.33174 12.5 8.33325ZM12.5 4.99992C12.9602 4.99992 13.3333 5.37301 13.3333 5.83325C13.3333 6.29349 12.9602 6.66659 12.5 6.66659C12.0398 6.66659 11.6667 6.29349 11.6667 5.83325C11.6671 5.37319 12.0399 5.00033 12.5 4.99992Z" fill="#444444"/>
<path d="M19.1665 8.33325C20.5472 8.33325 21.6665 7.21396 21.6665 5.83325C21.6665 4.45254 20.5472 3.33325 19.1665 3.33325C17.7858 3.33325 16.6665 4.45254 16.6665 5.83325C16.668 7.21334 17.7864 8.33174 19.1665 8.33325ZM19.1665 4.99992C19.6267 4.99992 19.9998 5.37301 19.9998 5.83325C19.9998 6.29349 19.6267 6.66659 19.1665 6.66659C18.7063 6.66659 18.3332 6.29349 18.3332 5.83325C18.3336 5.37319 18.7064 5.00033 19.1665 4.99992Z" fill="#444444"/>
<path d="M15 14.1667C10.8579 14.1667 7.5 17.5246 7.5 21.6667C7.5 25.8089 10.8579 29.1667 15 29.1667C19.1421 29.1667 22.5 25.8089 22.5 21.6667C22.4954 17.5265 19.1402 14.1713 15 14.1667ZM15 27.5001C11.7783 27.5001 9.16667 24.8884 9.16667 21.6667C9.16667 18.4451 11.7783 15.8334 15 15.8334C18.2217 15.8334 20.8333 18.4451 20.8333 21.6667C20.8296 24.8869 18.2201 27.4964 15 27.5001Z" fill="#444444"/>
<path d="M15 30.8333C10.8579 30.8333 7.5 34.1911 7.5 38.3333C7.5 42.4754 10.8579 45.8333 15 45.8333C19.1421 45.8333 22.5 42.4754 22.5 38.3333C22.4954 34.193 19.1402 30.8378 15 30.8333ZM15 44.1666C11.7783 44.1666 9.16667 41.5549 9.16667 38.3333C9.16667 35.1116 11.7783 32.4999 15 32.4999C18.2217 32.4999 20.8333 35.1116 20.8333 38.3333C20.8296 41.5534 18.2201 44.1629 15 44.1666Z" fill="#444444"/>
<path d="M11.6668 21.6667C12.1271 21.6667 12.5002 21.2936 12.5002 20.8333C12.5002 20.3731 12.1271 20 11.6668 20C11.2066 20 10.8335 20.3731 10.8335 20.8333C10.8335 21.2936 11.2066 21.6667 11.6668 21.6667Z" fill="#444444"/>
<path d="M18.3333 21.6667C18.7936 21.6667 19.1667 21.2936 19.1667 20.8333C19.1667 20.3731 18.7936 20 18.3333 20C17.8731 20 17.5 20.3731 17.5 20.8333C17.5 21.2936 17.8731 21.6667 18.3333 21.6667Z" fill="#444444"/>
<path d="M16.861 22.3816C16.4372 22.2028 15.9487 22.4002 15.7681 22.8233C15.7259 22.9229 15.6648 23.0134 15.5883 23.0899C15.5126 23.1656 15.4231 23.226 15.3245 23.2678C15.1168 23.3548 14.8829 23.3548 14.6752 23.2678C14.4752 23.1827 14.3162 23.0232 14.2316 22.823C14.0518 22.3992 13.5625 22.2013 13.1387 22.3811C12.7148 22.5609 12.517 23.0502 12.6968 23.474C12.8224 23.7701 13.004 24.0392 13.2314 24.2667C13.6999 24.7363 14.3359 25.0004 14.9993 25.0005C15.6626 25.0007 16.2988 24.737 16.7674 24.2675C16.9953 24.0399 17.1771 23.7705 17.3029 23.474C17.4825 23.0503 17.2847 22.5612 16.861 22.3816Z" fill="#444444"/>
<path d="M11.6668 38.3334C12.1271 38.3334 12.5002 37.9603 12.5002 37.5001C12.5002 37.0398 12.1271 36.6667 11.6668 36.6667C11.2066 36.6667 10.8335 37.0398 10.8335 37.5001C10.8335 37.9603 11.2066 38.3334 11.6668 38.3334Z" fill="#444444"/>
<path d="M18.3333 38.3334C18.7936 38.3334 19.1667 37.9603 19.1667 37.5001C19.1667 37.0398 18.7936 36.6667 18.3333 36.6667C17.8731 36.6667 17.5 37.0398 17.5 37.5001C17.5 37.9603 17.8731 38.3334 18.3333 38.3334Z" fill="#444444"/>
<path d="M16.7683 39.9C16.5405 39.6709 16.2701 39.4885 15.9723 39.3633C15.3502 39.1029 14.6495 39.1029 14.0273 39.3633C13.7299 39.4884 13.4598 39.6704 13.2323 39.8992C13.0044 40.1268 12.8226 40.3962 12.6968 40.6927C12.517 41.1165 12.7148 41.6058 13.1387 41.7856C13.5625 41.9654 14.0518 41.7675 14.2316 41.3437C14.2738 41.2441 14.3349 41.1535 14.4114 41.077C14.4871 41.0013 14.5766 40.9409 14.6752 40.8992C14.8829 40.8121 15.1168 40.8121 15.3245 40.8992C15.5245 40.9843 15.6835 41.1438 15.7681 41.3439C15.9479 41.7678 16.4372 41.9656 16.861 41.7859C17.2848 41.6061 17.4827 41.1168 17.3029 40.6929C17.1773 40.3968 16.9958 40.1275 16.7683 39.9Z" fill="#444444"/>
<path d="M40 21.6667C39.5398 21.6667 39.1667 22.0398 39.1667 22.5V25.8333C39.1663 26.2934 38.7934 26.6663 38.3333 26.6667H30C29.5399 26.6663 29.1671 26.2934 29.1667 25.8333V17.5C29.1671 17.0399 29.5399 16.6671 30 16.6667H38.3333C38.7936 16.6667 39.1667 16.2936 39.1667 15.8333C39.1667 15.3731 38.7936 15 38.3333 15H30C28.6199 15.0015 27.5015 16.1199 27.5 17.5V25.8333C27.5015 27.2134 28.6199 28.3318 30 28.3333H38.3333C39.7134 28.3318 40.8318 27.2134 40.8333 25.8333V22.5C40.8333 22.0398 40.4602 21.6667 40 21.6667Z" fill="#444444"/>
<path d="M38.3333 31.6667H30C28.6199 31.6683 27.5015 32.7867 27.5 34.1667V42.5001C27.5015 43.8802 28.6199 44.9986 30 45.0001H38.3333C39.7134 44.9986 40.8318 43.8802 40.8333 42.5001V34.1667C40.8318 32.7867 39.7134 31.6683 38.3333 31.6667ZM39.1667 42.5001C39.1663 42.9601 38.7934 43.333 38.3333 43.3334H30C29.5399 43.333 29.1671 42.9601 29.1667 42.5001V34.1667C29.1671 33.7067 29.5399 33.3338 30 33.3334H38.3333C38.7934 33.3338 39.1663 33.7067 39.1667 34.1667V42.5001Z" fill="#444444"/>
<path d="M41.911 15.2442L34.1668 22.9883L32.256 21.0775C31.929 20.7617 31.4093 20.7662 31.0878 21.0877C30.7664 21.4091 30.7619 21.9289 31.0777 22.2558L33.5777 24.7558C33.7339 24.9122 33.9458 25 34.1668 25C34.3878 25 34.5998 24.9122 34.756 24.7558L43.0893 16.4225C43.4052 16.0955 43.4006 15.5758 43.0792 15.2543C42.7577 14.9329 42.238 14.9284 41.911 15.2442Z" fill="#444444"/>
</svg>
