<svg width="54" height="54" viewBox="0 0 54 54" fill="none" xmlns="http://www.w3.org/2000/svg">
<path d="M13.0217 17.4725C13.549 17.4725 13.9779 17.0435 13.9779 16.5163C13.9779 16.0795 14.3321 15.7253 14.7689 15.7253C15.2058 15.7253 15.5599 16.0795 15.5599 16.5163C15.5599 17.6397 14.8261 18.5945 13.8127 18.9276V19.1372C13.8127 19.5741 13.4586 19.9282 13.0217 19.9282C12.5849 19.9282 12.2307 19.5741 12.2307 19.1372V18.9276C11.2174 18.5944 10.4834 17.6397 10.4834 16.5163C10.4834 15.1166 11.622 13.978 13.0217 13.978C13.549 13.978 13.9779 13.5491 13.9779 13.0218C13.9779 12.4945 13.549 12.0655 13.0217 12.0655C12.4945 12.0655 12.0654 12.4945 12.0654 13.0218C12.0654 13.4587 11.7113 13.8128 11.2744 13.8128C10.8376 13.8128 10.4834 13.4587 10.4834 13.0218C10.4834 11.8984 11.2174 10.9437 12.2307 10.6104V10.4009C12.2307 9.96406 12.5849 9.6099 13.0217 9.6099C13.4586 9.6099 13.8127 9.96406 13.8127 10.4009V10.6104C14.8261 10.9437 15.5599 11.8984 15.5599 13.0218C15.5599 14.4214 14.4213 15.56 13.0217 15.56C12.4945 15.56 12.0654 15.989 12.0654 16.5163C12.0654 17.0435 12.4944 17.4725 13.0217 17.4725Z" fill="#444444"/>
<path d="M19.6725 18.8082C19.4455 19.1813 18.9588 19.2998 18.5855 19.0728C18.2122 18.8457 18.0939 18.359 18.321 17.9858C18.9091 17.0194 19.2199 15.9071 19.2199 14.7691C19.2199 11.3515 16.4394 8.57102 13.0218 8.57102C9.6042 8.57102 6.82384 11.3515 6.82384 14.7691C6.82384 18.1867 9.60431 20.9672 13.0219 20.9672C14.1848 20.9672 15.318 20.6435 16.2988 20.0312C16.6695 19.7999 17.1573 19.9127 17.3886 20.2833C17.62 20.6539 17.5072 21.1418 17.1366 21.3732C15.9042 22.1426 14.4813 22.5493 13.0218 22.5493C8.73187 22.5493 5.2417 19.0591 5.2417 14.7692C5.2417 10.4793 8.73187 6.98909 13.0218 6.98909C17.3118 6.98909 20.8019 10.4793 20.8019 14.7692C20.8019 16.1973 20.4114 17.594 19.6725 18.8082Z" fill="#444444"/>
<path d="M49.7141 48.7582H47.0107V51.4617C47.0107 52.8614 45.8719 54 44.4723 54H11.2744C9.8747 54 8.73596 52.8614 8.73596 51.4617V42.5602C8.73596 42.1234 9.09012 41.7692 9.52697 41.7692C9.96382 41.7692 10.318 42.1234 10.318 42.5602V51.4617C10.318 51.989 10.747 52.418 11.2744 52.418H44.4723C44.9997 52.418 45.4286 51.989 45.4286 51.4617V7.78022C45.4286 7.25288 44.9997 6.82393 44.4723 6.82393H21.0129C23.041 8.86359 24.2962 11.6725 24.2962 14.7692C24.2962 16.3537 23.967 17.8624 23.3745 19.2317C23.4171 19.2246 23.4606 19.22 23.5052 19.22H30.4942C30.9311 19.22 31.2852 19.5742 31.2852 20.011C31.2852 20.4479 30.9311 20.802 30.4942 20.802H23.5052C23.1989 20.802 22.9338 20.6276 22.8024 20.373C20.8549 23.7589 17.2001 26.0437 13.0217 26.0437C12.09 26.0437 11.1846 25.9293 10.3181 25.7153V39.3961C10.3181 39.8329 9.96393 40.1871 9.52708 40.1871C9.09022 40.1871 8.73606 39.8329 8.73606 39.3961V25.1967C4.63871 23.5065 1.74707 19.4694 1.74707 14.7691C1.74707 8.55225 6.80482 3.4945 13.0217 3.4945C13.3438 3.4945 13.6625 3.50884 13.9779 3.53542V2.53831C13.9779 1.13864 15.1165 0 16.5162 0H49.7141C51.1137 0 52.2525 1.13864 52.2525 2.53831V46.2199C52.2525 47.6196 51.1137 48.7582 49.7141 48.7582ZM13.0217 5.07653C7.67716 5.07653 3.3291 9.42458 3.3291 14.7691C3.3291 20.1136 7.67716 24.4617 13.0217 24.4617C18.3662 24.4617 22.7143 20.1136 22.7143 14.7691C22.7143 9.42458 18.3661 5.07653 13.0217 5.07653ZM50.6704 2.53831C50.6704 2.01097 50.2415 1.58203 49.7141 1.58203H16.5162C15.9888 1.58203 15.5599 2.01097 15.5599 2.53831V3.78263C16.8137 4.07215 17.9878 4.57186 19.0438 5.24169H44.4723C45.8719 5.24169 47.0107 6.38033 47.0107 7.78001V47.1762H49.7141C50.2415 47.1762 50.6704 46.7472 50.6704 46.2199V2.53831Z" fill="#444444"/>
<path d="M31.3977 50.5056H22.6016C21.7001 50.5056 20.9668 49.7723 20.9668 48.8708V47.0639C20.9668 46.1624 21.7001 45.4291 22.6016 45.4291H31.3977C32.2991 45.4291 33.0324 46.1624 33.0324 47.0639V48.8708C33.0324 49.7723 32.2991 50.5056 31.3977 50.5056ZM31.4504 47.0637C31.4504 47.0346 31.4267 47.011 31.3977 47.011H22.6016C22.5725 47.011 22.5488 47.0346 22.5488 47.0637V48.8708C22.5488 48.9 22.5725 48.9236 22.6016 48.9236H31.3977C31.4267 48.9236 31.4504 48.9 31.4504 48.8708V47.0637Z" fill="#444444"/>
<path d="M38.3868 15.5601H31.3379C30.4364 15.5601 29.7031 14.8267 29.7031 13.9253V12.1183C29.7031 11.2169 30.4364 10.4835 31.3379 10.4835H38.3868C39.2882 10.4835 40.0216 11.2169 40.0216 12.1183V13.9253C40.0216 14.8267 39.2881 15.5601 38.3868 15.5601ZM38.4395 12.1183C38.4395 12.0892 38.4158 12.0656 38.3868 12.0656H31.3379C31.3089 12.0656 31.2852 12.0892 31.2852 12.1183V13.9253C31.2852 13.9544 31.3089 13.978 31.3379 13.978H38.3868C38.4158 13.978 38.4395 13.9544 38.4395 13.9253V12.1183Z" fill="#444444"/>
<path d="M39.2308 41.769H23.5054C23.0685 41.769 22.7144 41.4149 22.7144 40.978C22.7144 40.5412 23.0685 40.187 23.5054 40.187H39.2308C39.6677 40.187 40.0218 40.5412 40.0218 40.978C40.0218 41.4149 39.6676 41.769 39.2308 41.769Z" fill="#444444"/>
<path d="M17.3599 36.6925H19.1669C20.0683 36.6925 20.8016 37.4258 20.8016 38.3273V40.1343C20.8016 41.0357 20.0683 41.769 19.1669 41.769H17.3599C16.4584 41.769 15.7251 41.0357 15.7251 40.1343V38.3273C15.7251 37.4258 16.4584 36.6925 17.3599 36.6925ZM17.3071 40.1343C17.3071 40.1634 17.3308 40.187 17.3599 40.187H19.1669C19.196 40.187 19.2196 40.1634 19.2196 40.1343V38.3273C19.2196 38.2982 19.196 38.2745 19.1669 38.2745H17.3599C17.3308 38.2745 17.3071 38.2982 17.3071 38.3273V40.1343Z" fill="#444444"/>
<path d="M23.5054 36.6926H30.4944C30.9313 36.6926 31.2854 37.0468 31.2854 37.4836C31.2854 37.9205 30.9313 38.2747 30.4944 38.2747H23.5054C23.0685 38.2747 22.7144 37.9205 22.7144 37.4836C22.7144 37.0468 23.0685 36.6926 23.5054 36.6926Z" fill="#444444"/>
<path d="M39.2308 33.0327H23.5054C23.0685 33.0327 22.7144 32.6786 22.7144 32.2417C22.7144 31.8048 23.0685 31.4507 23.5054 31.4507H39.2308C39.6677 31.4507 40.0218 31.8048 40.0218 32.2417C40.0218 32.6786 39.6676 33.0327 39.2308 33.0327Z" fill="#444444"/>
<path d="M15.7251 29.591C15.7251 28.6895 16.4584 27.9562 17.3599 27.9562H19.1669C20.0683 27.9562 20.8016 28.6895 20.8016 29.591V31.3979C20.8016 32.2994 20.0683 33.0327 19.1669 33.0327H17.3599C16.4584 33.0327 15.7251 32.2994 15.7251 31.3979V29.591ZM17.3071 31.3979C17.3071 31.4271 17.3308 31.4507 17.3599 31.4507H19.1669C19.196 31.4507 19.2196 31.4271 19.2196 31.3979V29.591C19.2196 29.5618 19.196 29.5382 19.1669 29.5382H17.3599C17.3308 29.5382 17.3071 29.5618 17.3071 29.591V31.3979Z" fill="#444444"/>
<path d="M23.5054 27.9563H30.4944C30.9313 27.9563 31.2854 28.3105 31.2854 28.7473C31.2854 29.1842 30.9313 29.5383 30.4944 29.5383H23.5054C23.0685 29.5383 22.7144 29.1842 22.7144 28.7473C22.7144 28.3105 23.0685 27.9563 23.5054 27.9563Z" fill="#444444"/>
<path d="M39.2308 24.2966H23.5054C23.0685 24.2966 22.7144 23.9425 22.7144 23.5056C22.7144 23.0688 23.0685 22.7146 23.5054 22.7146H39.2308C39.6677 22.7146 40.0218 23.0688 40.0218 23.5056C40.0218 23.9425 39.6676 24.2966 39.2308 24.2966Z" fill="#444444"/>
</svg>
