<svg width="50" height="50" viewBox="0 0 50 50" fill="none" xmlns="http://www.w3.org/2000/svg">
<path d="M10.1562 5.46875C7.57109 5.46875 5.46875 7.57109 5.46875 10.1562C5.46875 12.7414 7.57109 14.8438 10.1562 14.8438C12.7414 14.8438 14.8438 12.7414 14.8438 10.1562C14.8438 7.57109 12.7414 5.46875 10.1562 5.46875ZM10.1562 13.2812C8.43281 13.2812 7.03125 11.8797 7.03125 10.1562C7.03125 8.43281 8.43281 7.03125 10.1562 7.03125C11.8797 7.03125 13.2812 8.43281 13.2812 10.1562C13.2812 11.8797 11.8797 13.2812 10.1562 13.2812Z" fill="#444444"/>
<path d="M24.2188 9.375H25.7812V10.9375H24.2188V9.375Z" fill="#444444"/>
<path d="M27.3438 9.375H32.0312V10.9375H27.3438V9.375Z" fill="#444444"/>
<path d="M24.2188 12.5H32.0312V14.0625H24.2188V12.5Z" fill="#444444"/>
<path d="M10.1562 38.2812H3.90625V42.9688H10.1562V38.2812ZM8.59375 41.4062H5.46875V39.8438H8.59375V41.4062Z" fill="#444444"/>
<path d="M11.7188 38.2812H16.4062V39.8438H11.7188V38.2812Z" fill="#444444"/>
<path d="M11.7188 41.4062H16.4062V42.9688H11.7188V41.4062Z" fill="#444444"/>
<path d="M3.90625 44.5312H16.4062V46.0938H3.90625V44.5312Z" fill="#444444"/>
<path d="M46.875 27.3438H34.375C33.0828 27.3438 32.0312 28.3953 32.0312 29.6875V35.1562H28.9062V28.0141C30.25 27.6648 31.25 26.4523 31.25 25C31.25 23.5484 30.25 22.3352 28.9062 21.9859V17.1875H32.8125C34.1047 17.1875 35.1562 16.1359 35.1562 14.8438V10.9375H38.3516C38.725 13.1508 40.65 14.8438 42.9688 14.8438C45.5539 14.8438 47.6562 12.7414 47.6562 10.1562C47.6562 9.34766 47.4508 8.58672 47.0891 7.92188L48.9898 6.02109L47.8852 4.91641L46.1125 6.68906C45.2797 5.93359 44.1789 5.46875 42.9688 5.46875C40.6508 5.46875 38.7258 7.16172 38.3516 9.375H35.1562V5.46875C35.1562 4.17656 34.1047 3.125 32.8125 3.125H23.4375C22.1453 3.125 21.0938 4.17656 21.0938 5.46875V9.375H19.5312V7.99766L17.4805 7.43672C17.4133 7.25781 17.3391 7.07891 17.257 6.90156L18.3117 5.05312L15.2586 2L13.4102 3.05469C13.2328 2.97344 13.0547 2.89844 12.875 2.83125L12.3148 0.78125H7.99766L7.43672 2.83203C7.25781 2.89922 7.07891 2.97344 6.90156 3.05547L5.05312 2.00078L2.00078 5.05391L3.05547 6.90234C2.97422 7.07969 2.89922 7.25781 2.83203 7.4375L0.78125 7.99766V12.3148L2.83203 12.8758C2.89922 13.0547 2.97344 13.2336 3.05547 13.4109L2.00078 15.2594L5.05391 18.3125L6.90234 17.2578C7.07969 17.3391 7.25781 17.4141 7.4375 17.4812L7.99766 19.5312H9.375V32.0312H3.125C1.83281 32.0312 0.78125 33.0828 0.78125 34.375V46.875C0.78125 48.1672 1.83281 49.2188 3.125 49.2188H17.1875C18.4797 49.2188 19.5312 48.1672 19.5312 46.875V34.375C19.5312 33.0828 18.4797 32.0312 17.1875 32.0312H10.9375V19.5312H12.3148L12.8758 17.4805C13.0547 17.4133 13.2336 17.3391 13.4109 17.257L15.2594 18.3117L18.3125 15.2586L17.2578 13.4102C17.3391 13.2328 17.4141 13.0547 17.4812 12.875L19.5312 12.3148V10.9375H21.0938V14.8438C21.0938 16.1359 22.1453 17.1875 23.4375 17.1875H27.3438V21.9859C26 22.3352 25 23.5484 25 25C25 26.4523 26 27.6648 27.3438 28.0141V36.7188H32.0312V42.1875C32.0312 43.4797 33.0828 44.5312 34.375 44.5312H46.875C48.1672 44.5312 49.2188 43.4797 49.2188 42.1875V29.6875C49.2188 28.3953 48.1672 27.3438 46.875 27.3438ZM42.9688 7.03125C43.7477 7.03125 44.4523 7.32812 45 7.80156L42.9688 9.83281L41.9586 8.82266L40.8539 9.92734L42.9688 12.0422L45.9008 9.11016C46.018 9.43906 46.0938 9.7875 46.0938 10.1562C46.0938 11.8797 44.6922 13.2812 42.9688 13.2812C41.2453 13.2812 39.8438 11.8797 39.8438 10.1562C39.8438 8.43281 41.2453 7.03125 42.9688 7.03125ZM17.1875 47.6562H3.125C2.69453 47.6562 2.34375 47.3063 2.34375 46.875V36.7188H17.9688V46.875C17.9688 47.3063 17.618 47.6562 17.1875 47.6562ZM17.9688 34.375V35.1562H2.34375V34.375C2.34375 33.9437 2.69453 33.5938 3.125 33.5938H17.1875C17.618 33.5938 17.9688 33.9437 17.9688 34.375ZM17.9688 11.1227L16.2555 11.5914L16.1289 12.0016C16.018 12.3609 15.868 12.7219 15.682 13.0727L15.482 13.4523L16.3641 14.9984L14.9969 16.3656L13.4508 15.4836L13.0711 15.6836C12.7203 15.8688 12.3602 16.0195 12 16.1305L11.5898 16.257L11.1227 17.9688H9.18984L8.72109 16.2555L8.31094 16.1289C7.95156 16.018 7.59063 15.868 7.23984 15.682L6.86016 15.482L5.31406 16.3641L3.94688 14.9969L4.82891 13.4508L4.62891 13.0711C4.44375 12.7203 4.29297 12.3602 4.18203 12L4.05547 11.5898L2.34375 11.1227V9.18984L4.05703 8.72109L4.18359 8.31094C4.29453 7.95156 4.44453 7.59063 4.63047 7.23984L4.83047 6.86016L3.94844 5.31562L5.31562 3.94844L6.86172 4.83047L7.24141 4.63047C7.59219 4.44531 7.95234 4.29453 8.3125 4.18359L8.72266 4.05703L9.18984 2.34375H11.1227L11.5914 4.05703L12.0016 4.18359C12.3609 4.29453 12.7219 4.44453 13.0727 4.63047L13.4523 4.83047L14.9984 3.94844L16.3656 5.31562L15.4836 6.86172L15.6836 7.24141C15.8688 7.59219 16.0195 7.95234 16.1305 8.3125L16.257 8.72266L17.9703 9.19141V11.1227H17.9688ZM23.4375 4.6875H32.8125C33.243 4.6875 33.5938 5.03828 33.5938 5.46875V6.25H22.6562V5.46875C22.6562 5.03828 23.007 4.6875 23.4375 4.6875ZM22.6562 14.8438V7.8125H33.5938V14.8438C33.5938 15.2742 33.243 15.625 32.8125 15.625H23.4375C23.007 15.625 22.6562 15.2742 22.6562 14.8438ZM26.5625 25C26.5625 24.1383 27.2633 23.4375 28.125 23.4375C28.9867 23.4375 29.6875 24.1383 29.6875 25C29.6875 25.8617 28.9867 26.5625 28.125 26.5625C27.2633 26.5625 26.5625 25.8617 26.5625 25ZM34.375 28.9062H46.875C47.3055 28.9062 47.6562 29.2563 47.6562 29.6875V30.4688H33.5938V29.6875C33.5938 29.2563 33.9445 28.9062 34.375 28.9062ZM46.875 42.9688H34.375C33.9445 42.9688 33.5938 42.6188 33.5938 42.1875V32.0312H47.6562V42.1875C47.6562 42.6188 47.3055 42.9688 46.875 42.9688Z" fill="#444444"/>
<path d="M39.8438 33.5938H35.1562V38.2812H39.8438V33.5938ZM38.2812 36.7188H36.7188V35.1562H38.2812V36.7188Z" fill="#444444"/>
<path d="M41.4062 33.5938H46.0938V35.1562H41.4062V33.5938Z" fill="#444444"/>
<path d="M41.4062 36.7188H46.0938V38.2812H41.4062V36.7188Z" fill="#444444"/>
<path d="M35.1562 39.8438H46.0938V41.4062H35.1562V39.8438Z" fill="#444444"/>
</svg>
