<svg width="18" height="18" viewBox="0 0 18 18" fill="none" xmlns="http://www.w3.org/2000/svg">
<path d="M17.9956 18V17.9993H18.0001V11.3978C18.0001 8.16825 17.3048 5.6805 13.5293 5.6805C11.7143 5.6805 10.4963 6.6765 9.99907 7.62075H9.94657V5.982H6.36682V17.9993H10.0943V12.0488C10.0943 10.482 10.3913 8.967 12.3316 8.967C14.2433 8.967 14.2718 10.755 14.2718 12.1493V18H17.9956Z" fill="#0077B5"/>
<path d="M0.296997 5.98274H4.029V18H0.296997V5.98274Z" fill="#0077B5"/>
<path d="M2.1615 0C0.96825 0 0 0.96825 0 2.1615C0 3.35475 0.96825 4.34325 2.1615 4.34325C3.35475 4.34325 4.323 3.35475 4.323 2.1615C4.32225 0.96825 3.354 0 2.1615 0V0Z" fill="#0077B5"/>
</svg>
