<svg width="50" height="50" viewBox="0 0 50 50" fill="none" xmlns="http://www.w3.org/2000/svg">
<path d="M47.9167 22.9167C46.7667 22.9167 45.8333 23.85 45.8333 25C45.8333 36.4875 36.4875 45.8333 25 45.8333C13.5125 45.8333 4.16667 36.4875 4.16667 25C4.16667 13.5125 13.5125 4.16667 25 4.16667C30.5927 4.16667 35.8427 6.35208 39.7844 10.3208C40.5938 11.1375 41.9135 11.1427 42.7302 10.3313C43.5469 9.52083 43.551 8.20208 42.7406 7.38542C38.0115 2.62292 31.7104 0 25 0C11.2146 0 0 11.2146 0 25C0 38.7854 11.2146 50 25 50C38.7854 50 50 38.7854 50 25C50 23.85 49.0667 22.9167 47.9167 22.9167Z" fill="#444444"/>
<path d="M33.3335 22.9167H27.0835V16.6667C27.0835 15.5167 26.1502 14.5833 25.0002 14.5833C23.8502 14.5833 22.9168 15.5167 22.9168 16.6667V22.9167H16.6668C15.5168 22.9167 14.5835 23.85 14.5835 25C14.5835 26.15 15.5168 27.0833 16.6668 27.0833H22.9168V33.3333C22.9168 34.4833 23.8502 35.4167 25.0002 35.4167C26.1502 35.4167 27.0835 34.4833 27.0835 33.3333V27.0833H33.3335C34.4835 27.0833 35.4168 26.15 35.4168 25C35.4168 23.85 34.4835 22.9167 33.3335 22.9167Z" fill="#444444"/>
</svg>
