<svg width="56" height="56" viewBox="0 0 56 56" fill="none" xmlns="http://www.w3.org/2000/svg">
<path d="M28 20.125C23.6583 20.125 20.125 23.6583 20.125 28C20.125 32.3418 23.6583 35.875 28 35.875C32.3418 35.875 35.875 32.3418 35.875 28C35.875 23.6583 32.3418 20.125 28 20.125ZM28 34.125C24.6225 34.125 21.875 31.3775 21.875 28C21.875 24.6225 24.6225 21.875 28 21.875C31.3775 21.875 34.125 24.6225 34.125 28C34.125 31.3775 31.3775 34.125 28 34.125Z" fill="#444444"/>
<path d="M47.25 14.875H54.25C54.733 14.875 55.125 14.483 55.125 14V7C55.125 6.517 54.733 6.125 54.25 6.125H47.25C46.767 6.125 46.375 6.517 46.375 7V9.625H43.75C43.267 9.625 42.875 10.017 42.875 10.5V27.125H42V26.25C42 25.8116 41.6754 25.4406 41.2405 25.3829L38.9961 25.0836C38.738 24.1071 38.3486 23.1718 37.8341 22.2906L39.2131 20.4881C39.4791 20.1399 39.4468 19.6481 39.137 19.3384L36.6616 16.863C36.3519 16.5524 35.8592 16.52 35.5119 16.7869L33.7094 18.1659C32.8283 17.6522 31.8929 17.2629 30.9164 17.0039L30.6171 14.7595C30.5594 14.3246 30.1884 14 29.75 14H26.25C25.8116 14 25.4406 14.3246 25.3829 14.7595L25.0836 17.0039C24.1071 17.262 23.1718 17.6514 22.2906 18.1659L20.4881 16.7869C20.1399 16.5209 19.6481 16.5532 19.3384 16.863L16.863 19.3384C16.5532 19.6481 16.52 20.1408 16.7869 20.4881L18.1659 22.2906C17.6523 23.1718 17.2629 24.1071 17.0039 25.0836L14.7595 25.3829C14.3246 25.4406 14 25.8116 14 26.25V27.125H13.125V10.5C13.125 10.017 12.733 9.625 12.25 9.625H9.625V7C9.625 6.517 9.233 6.125 8.75 6.125H1.75C1.267 6.125 0.875 6.517 0.875 7V14C0.875 14.483 1.267 14.875 1.75 14.875H8.75C9.233 14.875 9.625 14.483 9.625 14V11.375H11.375V27.125H9.625V24.5C9.625 24.017 9.233 23.625 8.75 23.625H1.75C1.267 23.625 0.875 24.017 0.875 24.5V31.5C0.875 31.983 1.267 32.375 1.75 32.375H8.75C9.233 32.375 9.625 31.983 9.625 31.5V28.875H11.375V44.625H9.625V42C9.625 41.517 9.233 41.125 8.75 41.125H1.75C1.267 41.125 0.875 41.517 0.875 42V49C0.875 49.483 1.267 49.875 1.75 49.875H8.75C9.233 49.875 9.625 49.483 9.625 49V46.375H12.25C12.733 46.375 13.125 45.983 13.125 45.5V28.875H14V29.75C14 30.1884 14.3246 30.5594 14.7595 30.6171L17.0039 30.9164C17.262 31.8929 17.6514 32.8283 18.1659 33.7094L16.7869 35.5119C16.5209 35.8601 16.5532 36.3519 16.863 36.6616L19.3384 39.137C19.6481 39.4468 20.139 39.4791 20.4881 39.2131L22.2906 37.8341C23.1718 38.3477 24.1071 38.7371 25.0836 38.9961L25.3829 41.2405C25.4406 41.6754 25.8116 42 26.25 42H29.75C30.1884 42 30.5594 41.6754 30.6171 41.2405L30.9164 38.9961C31.8929 38.738 32.8283 38.3486 33.7094 37.8341L35.5119 39.2131C35.8601 39.48 36.3527 39.4476 36.6616 39.137L39.137 36.6616C39.4468 36.3519 39.48 35.8592 39.2131 35.5119L37.8341 33.7094C38.3477 32.8283 38.7371 31.8929 38.9961 30.9164L41.2405 30.6171C41.6754 30.5594 42 30.1884 42 29.75V28.875H42.875V45.5C42.875 45.983 43.267 46.375 43.75 46.375H46.375V49C46.375 49.483 46.767 49.875 47.25 49.875H54.25C54.733 49.875 55.125 49.483 55.125 49V42C55.125 41.517 54.733 41.125 54.25 41.125H47.25C46.767 41.125 46.375 41.517 46.375 42V44.625H44.625V28.875H46.375V31.5C46.375 31.983 46.767 32.375 47.25 32.375H54.25C54.733 32.375 55.125 31.983 55.125 31.5V24.5C55.125 24.017 54.733 23.625 54.25 23.625H47.25C46.767 23.625 46.375 24.017 46.375 24.5V27.125H44.625V11.375H46.375V14C46.375 14.483 46.767 14.875 47.25 14.875ZM48.125 7.875H53.375V13.125H48.125V7.875ZM7.875 13.125H2.625V7.875H7.875V13.125ZM7.875 30.625H2.625V25.375H7.875V30.625ZM7.875 48.125H2.625V42.875H7.875V48.125ZM40.25 28.9844L38.1675 29.2618C37.7991 29.3108 37.5016 29.5881 37.4264 29.953C37.1831 31.136 36.7168 32.256 36.0421 33.2806C35.8374 33.5912 35.8522 33.9973 36.078 34.293L37.3581 35.9669L35.9669 37.3581L34.293 36.078C33.9972 35.8522 33.5904 35.8374 33.2806 36.0421C32.256 36.7168 31.136 37.1831 29.953 37.4264C29.5881 37.5016 29.3116 37.7991 29.2618 38.1675L28.9844 40.25H27.0165L26.7391 38.1675C26.6901 37.7991 26.4127 37.5016 26.0479 37.4264C24.8649 37.1831 23.7449 36.7168 22.7202 36.0421C22.4105 35.8383 22.0045 35.8522 21.7079 36.078L20.034 37.3581L18.6427 35.9669L19.9229 34.293C20.1486 33.9973 20.1635 33.5912 19.9587 33.2806C19.2841 32.256 18.8178 31.136 18.5745 29.953C18.4993 29.5881 18.2017 29.3116 17.8334 29.2618L15.75 28.9844V27.0165L17.8325 26.7391C18.2009 26.6901 18.4984 26.4127 18.5736 26.0479C18.8169 24.8649 19.2833 23.7449 19.9579 22.7202C20.1626 22.4096 20.1477 22.0036 19.922 21.7079L18.6419 20.034L20.0331 18.6427L21.707 19.9229C22.0019 20.1486 22.4088 20.1626 22.7194 19.9587C23.744 19.2841 24.864 18.8178 26.047 18.5745C26.4119 18.4993 26.6884 18.2018 26.7383 17.8334L27.0156 15.75H28.9835L29.2609 17.8325C29.3099 18.2009 29.5872 18.4984 29.9521 18.5736C31.1351 18.8169 32.2551 19.2832 33.2798 19.9579C33.5913 20.1626 33.9973 20.1486 34.2921 19.922L35.966 18.6419L37.3573 20.0331L36.0771 21.707C35.8514 22.0028 35.8365 22.4088 36.0412 22.7194C36.7159 23.744 37.1823 24.864 37.4255 26.047C37.5007 26.4119 37.7982 26.6884 38.1666 26.7383L40.25 27.0156V28.9844ZM48.125 42.875H53.375V48.125H48.125V42.875ZM48.125 25.375H53.375V30.625H48.125V25.375Z" fill="#444444"/>
</svg>
