<svg width="54" height="54" viewBox="0 0 54 54" fill="none" xmlns="http://www.w3.org/2000/svg">
<g clip-path="url(#clip0)">
<path d="M53.2312 14.1799C53.2311 14.1799 53.2311 14.1799 53.231 14.1799L53.2292 14.1781L49.7437 13.6808C49.2538 13.6111 48.9132 13.1573 48.9829 12.6674C49.0164 12.432 49.1422 12.2197 49.3324 12.077L52.1495 9.96414C52.5454 9.66722 52.6256 9.10563 52.3287 8.7097L49.103 4.40879C48.8061 4.01286 48.2445 3.93267 47.8486 4.22958L45.0324 6.34241C44.6381 6.64157 44.0761 6.56451 43.7769 6.17026C43.6317 5.97885 43.5694 5.73703 43.6041 5.49925L44.1023 2.01372C44.1725 1.52382 43.8324 1.06987 43.3426 0.99953C43.3422 0.99953 43.3419 0.999418 43.3416 0.999418L38.0228 0.23959C37.533 0.169252 37.0788 0.509293 37.0085 0.999194C37.0085 0.999306 37.0085 0.999306 37.0085 0.999418L36.5103 4.48495C36.4405 4.97485 35.9868 5.31545 35.4969 5.24568C35.2615 5.21219 35.0491 5.08641 34.9064 4.89623L32.7945 2.07913C32.4976 1.6832 31.936 1.603 31.54 1.89992L28.8475 3.92046C27.6293 3.79098 26.4009 3.79098 25.1828 3.92046C17.2052 4.83227 10.9493 11.1943 10.1717 19.186C10.1475 19.4396 10.1385 19.6914 10.126 19.9432H9.85716C9.432 19.9439 9.06586 20.2434 8.98085 20.66L8.3617 23.6043L5.8815 21.8938C5.52556 21.6482 5.04484 21.692 4.73907 21.9977L2.051 24.6858C1.74568 24.9915 1.702 25.4715 1.94706 25.8273L3.64951 28.3031L0.704277 28.9222C0.29233 29.0125 -0.000893976 29.3777 2.0479e-06 29.7994V33.3835C-0.000221958 33.8073 0.296698 34.1734 0.711445 34.2607L3.65668 34.8799L1.95423 37.3556C1.70917 37.7114 1.75285 38.1915 2.05817 38.4971L4.74624 41.1852C5.05201 41.491 5.53273 41.5348 5.88867 41.2891L8.36438 39.5822L8.98354 42.5274C9.06855 42.944 9.43468 43.2435 9.85985 43.2443H13.4439C13.8678 43.2445 14.2338 42.9476 14.3212 42.5328L14.9403 39.5876L17.416 41.29C17.7719 41.5351 18.2519 41.4914 18.5576 41.1861L19.9491 39.7901V42.3438C19.9531 43.6185 20.636 44.7944 21.7411 45.4297V50.408C21.7411 52.3874 23.3458 53.9921 25.3252 53.9921H28.9093C30.8887 53.9921 32.4934 52.3874 32.4934 50.408V45.4297C33.5985 44.7944 34.2814 43.6185 34.2855 42.3438V38.7973C34.3098 37.3051 35.0904 35.9274 36.358 35.1397C37.1016 34.6573 37.8067 34.118 38.4672 33.5269L37.2719 32.1918C36.6811 32.7214 36.0498 33.204 35.384 33.6353C33.6048 34.752 32.5157 36.6968 32.4934 38.7973V42.3438C32.4934 43.3335 31.6911 44.1358 30.7014 44.1358H23.5332C22.5434 44.1358 21.7411 43.3335 21.7411 42.3438V38.7229C21.7204 36.6622 20.6484 34.7549 18.8989 33.6658C11.7972 29.2033 9.65746 19.8288 14.1199 12.727C16.8886 8.32072 21.7206 5.63881 26.9246 5.62021C26.9113 5.65214 26.8995 5.68473 26.8897 5.71788C26.8564 5.95309 26.918 6.19199 27.0608 6.38183L29.1727 9.19804C29.3954 9.48622 29.4168 9.88204 29.2265 10.1926C29.0433 10.5051 28.689 10.6756 28.3305 10.6236L24.845 10.1254C24.3551 10.0552 23.9011 10.3953 23.8308 10.8851C23.8308 10.8855 23.8307 10.8858 23.8307 10.8861L23.0699 16.2076C22.9997 16.6974 23.3399 17.1515 23.8296 17.2218C23.83 17.2218 23.8303 17.2219 23.8307 17.2219L27.3162 17.7201C27.8061 17.7899 28.1467 18.2436 28.0769 18.7335C28.0434 18.969 27.9176 19.1813 27.7275 19.324L24.9113 21.4359C24.5153 21.7329 24.4351 22.2944 24.7321 22.6904L27.9577 26.9913C28.2547 27.3872 28.8162 27.4674 29.2122 27.1705L32.0293 25.0586C32.4255 24.7622 32.9871 24.8432 33.2835 25.2396C33.4253 25.4292 33.4863 25.6673 33.4531 25.9017L32.9558 29.3873C32.8854 29.877 33.2255 30.3312 33.7154 30.4016C33.7155 30.4016 33.7155 30.4016 33.7156 30.4016L39.038 31.1623C39.0799 31.1677 39.1221 31.1703 39.1643 31.1703C39.6104 31.1709 39.9889 30.8432 40.0523 30.4016L40.5496 26.916C40.6193 26.4261 41.0731 26.0855 41.563 26.1553C41.7984 26.1888 42.0108 26.3146 42.1534 26.5047L44.2663 29.3209C44.5632 29.7169 45.1248 29.7971 45.5207 29.5002L49.8216 26.2745C50.2175 25.9775 50.2977 25.416 50.0008 25.02L47.8889 22.2038C47.6672 21.9152 47.6459 21.52 47.8351 21.2092C48.0145 20.8926 48.372 20.721 48.7312 20.7791L52.2167 21.2764C52.7065 21.3468 53.1607 21.0066 53.231 20.5168C53.231 20.5167 53.231 20.5167 53.231 20.5166L53.9908 15.1942C54.0612 14.7043 53.7211 14.2503 53.2312 14.1799ZM23.5332 45.9279H30.7014V47.7199H23.5332V45.9279ZM23.5332 49.5119H30.7014V50.408C30.7014 51.3977 29.8991 52.2 28.9093 52.2H25.3252C24.3354 52.2 23.5332 51.3977 23.5332 50.408V49.5119ZM16.3999 34.06C16.8892 34.4601 17.4003 34.8326 17.9312 35.1756C18.7779 35.7106 19.4152 36.5201 19.7367 37.4685L17.8147 39.3869L15.9537 38.1038C15.1388 37.5422 14.0229 37.7476 13.4612 38.5625C13.3266 38.758 13.232 38.9782 13.1832 39.2104L12.7137 41.4477H10.5838L10.1143 39.2139C9.91047 38.2455 8.96013 37.6255 7.99164 37.8294C7.75946 37.8782 7.53926 37.9727 7.34381 38.1074L5.48188 39.3869L3.84932 37.7579L5.13153 35.8978C5.69367 35.0832 5.48893 33.9672 4.67434 33.405C4.47878 33.2701 4.25836 33.1753 4.02584 33.1264L1.79205 32.6559V30.527L4.02584 30.0566C4.99399 29.8513 5.61247 28.9 5.40717 27.9318C5.35845 27.7021 5.26515 27.4842 5.13243 27.2906L3.84932 25.425L5.48188 23.7961L7.34471 25.0792C8.15998 25.6402 9.27587 25.4341 9.83689 24.6188C9.97129 24.4236 10.0656 24.2036 10.1143 23.9717L10.2711 23.2262C10.4147 24.2586 10.6525 25.2756 10.9817 26.2646C8.03342 26.6161 5.92832 29.2912 6.27979 32.2394C6.63125 35.1877 9.30633 37.2928 12.2546 36.9413C14.0294 36.7296 15.583 35.6498 16.3999 34.06ZM15.0084 32.7975C14.3393 34.6573 12.2893 35.6226 10.4295 34.9536C8.56969 34.2845 7.60444 32.2345 8.27344 30.3747C8.78529 28.9519 10.1362 28.0042 11.6482 28.0074C11.6598 28.0074 11.6706 28.0074 11.6822 28.0074C12.5063 29.7841 13.6315 31.4046 15.0084 32.7975ZM51.5787 19.3733L48.9803 19.0023C47.5106 18.7924 46.149 19.8138 45.9391 21.2834C45.8383 21.9891 46.022 22.706 46.4499 23.2764L48.0242 25.3758L45.1569 27.5262L43.5817 25.4277C42.6911 24.2399 41.0062 23.999 39.8185 24.8897C39.2482 25.3173 38.8711 25.954 38.7701 26.6598L38.4072 29.2618L34.8598 28.7547L35.2308 26.1562C35.4412 24.6866 34.4204 23.3246 32.9508 23.1143C32.2447 23.0132 31.5274 23.1968 30.9567 23.6249L28.8573 25.1992L26.7069 22.332L28.8054 20.7567C29.9932 19.8661 30.2341 18.1812 29.3434 16.9936C28.9158 16.4232 28.2791 16.0461 27.5733 15.9451L24.9749 15.5741L25.482 12.0268L28.0805 12.3977C29.5501 12.6082 30.912 11.5874 31.1224 10.1178C31.2235 9.41163 31.0398 8.69436 30.6118 8.1237L29.0321 6.02253L31.8994 3.87207L33.4746 5.97146C34.3652 7.15925 36.0501 7.40017 37.2377 6.50952C37.8081 6.08189 38.1852 5.44515 38.2862 4.73942L38.6572 2.14095L42.2045 2.64721L41.8336 5.24568C41.6237 6.71538 42.6449 8.07689 44.1146 8.28678C44.8204 8.38758 45.5373 8.2039 46.1076 7.77605L48.207 6.20173L50.3574 9.06901L48.2581 10.6442C47.0703 11.5349 46.8293 13.2197 47.72 14.4074C48.1476 14.9777 48.7844 15.3548 49.4901 15.4559L52.0886 15.8268L51.5787 19.3733Z" fill="#444444"/>
<path d="M38.529 8.53137C34.5702 8.53137 31.3608 11.7407 31.3608 15.6996C31.3608 19.6584 34.5702 22.8678 38.529 22.8678C42.4879 22.8678 45.6972 19.6584 45.6972 15.6996C45.6927 11.7425 42.4861 8.53574 38.529 8.53137ZM38.529 21.0757C35.5598 21.0757 33.1529 18.6688 33.1529 15.6996C33.1529 12.7304 35.5598 10.3234 38.529 10.3234C41.4982 10.3234 43.9052 12.7304 43.9052 15.6996C43.9017 18.6673 41.4968 21.0722 38.529 21.0757Z" fill="#444444"/>
<path d="M28.0132 39.6557H26.2212V42.3437H28.0132V39.6557Z" fill="#444444"/>
<path d="M23.1981 30.8558C17.6669 28.695 14.9345 22.4594 17.0954 16.9281C17.9328 14.7848 19.4355 12.9667 21.3828 11.7409L20.4249 10.2249C14.5631 13.9177 12.8048 21.6633 16.4977 27.5251C17.9278 29.7952 20.0483 31.5471 22.5476 32.5233C24.7599 33.3709 26.2208 35.4945 26.2213 37.8636H28.0134C28.0162 34.7553 26.1007 31.9677 23.1981 30.8558Z" fill="#444444"/>
<path d="M50.4138 33.3835H44.1416V35.1756H50.4138V33.3835Z" fill="#444444"/>
<path d="M43.8195 38.0706L42.6724 39.4474L48.0489 43.9268L49.196 42.55L43.8195 38.0706Z" fill="#444444"/>
<path d="M40.5577 40.5517H38.7656V46.8239H40.5577V40.5517Z" fill="#444444"/>
<path d="M8.08273 13.6972L0.915039 15.489L1.34939 17.2266L8.51709 15.4348L8.08273 13.6972Z" fill="#444444"/>
<path d="M3.44434 4.87878L2.40332 6.33624L8.67499 10.8159L9.71601 9.35844L3.44434 4.87878Z" fill="#444444"/>
<path d="M11.8167 0.0074648L10.0806 0.451355L11.9132 7.61899L13.6493 7.1751L11.8167 0.0074648Z" fill="#444444"/>
</g>
<defs>
<clipPath id="clip0">
<rect width="54" height="54" fill="white"/>
</clipPath>
</defs>
</svg>
