<svg width="58" height="58" viewBox="0 0 58 58" fill="none" xmlns="http://www.w3.org/2000/svg">
<g clip-path="url(#clip0)">
<path d="M28.9998 7.25C28.3328 7.25 27.7915 6.70867 27.7915 6.04167V1.20833C27.7915 0.541333 28.3328 0 28.9998 0C29.6668 0 30.2082 0.541333 30.2082 1.20833V6.04167C30.2082 6.70867 29.6668 7.25 28.9998 7.25Z" fill="#444444"/>
<path d="M45.2348 13.9731C44.9255 13.9731 44.6161 13.8547 44.3793 13.6203C43.9081 13.149 43.9081 12.383 44.3793 11.9117L47.7965 8.49455C48.2677 8.0233 49.0338 8.0233 49.5051 8.49455C49.9763 8.9658 49.9763 9.73188 49.5051 10.2031L46.0879 13.6203C45.8535 13.8547 45.5441 13.9731 45.2348 13.9731Z" fill="#444444"/>
<path d="M56.7917 30.2084H51.9583C51.2913 30.2084 50.75 29.667 50.75 29C50.75 28.333 51.2913 27.7917 51.9583 27.7917H56.7917C57.4587 27.7917 58 28.333 58 29C58 29.667 57.4587 30.2084 56.7917 30.2084Z" fill="#444444"/>
<path d="M48.652 49.8607C48.3426 49.8607 48.0333 49.7422 47.7965 49.5078L44.3793 46.0907C43.9081 45.6194 43.9081 44.8533 44.3793 44.3821C44.8506 43.9108 45.6166 43.9108 46.0879 44.3821L49.5051 47.7992C49.9763 48.2705 49.9763 49.0366 49.5051 49.5078C49.2706 49.7422 48.9613 49.8607 48.652 49.8607Z" fill="#444444"/>
<path d="M28.9998 58C28.3328 58 27.7915 57.4587 27.7915 56.7917V51.9583C27.7915 51.2913 28.3328 50.75 28.9998 50.75C29.6668 50.75 30.2082 51.2913 30.2082 51.9583V56.7917C30.2082 57.4587 29.6668 58 28.9998 58Z" fill="#444444"/>
<path d="M9.34761 49.8607C9.03828 49.8607 8.72894 49.7422 8.49211 49.5078C8.02086 49.0366 8.02086 48.2705 8.49211 47.7992L11.9093 44.3821C12.3805 43.9108 13.1466 43.9108 13.6179 44.3821C14.0891 44.8533 14.0891 45.6194 13.6179 46.0907L10.2007 49.5078C9.96628 49.7422 9.65694 49.8607 9.34761 49.8607Z" fill="#444444"/>
<path d="M6.04167 30.2084H1.20833C0.541333 30.2084 0 29.667 0 29C0 28.333 0.541333 27.7917 1.20833 27.7917H6.04167C6.70867 27.7917 7.25 28.333 7.25 29C7.25 29.667 6.70867 30.2084 6.04167 30.2084Z" fill="#444444"/>
<path d="M12.7648 13.9731C12.4555 13.9731 12.1461 13.8547 11.9093 13.6203L8.49455 10.2031C8.0233 9.73188 8.0233 8.9658 8.49455 8.49455C8.9658 8.0233 9.73189 8.0233 10.2031 8.49455L13.6203 11.9117C14.0916 12.383 14.0916 13.149 13.6203 13.6203C13.3835 13.8547 13.0741 13.9731 12.7648 13.9731Z" fill="#444444"/>
<path d="M25.5515 48.3334C25.4089 48.3334 25.2688 48.3092 25.1286 48.2584C24.5994 48.0603 24.2779 47.5238 24.3529 46.9679L26.4143 31.4167H18.1251C17.6684 31.4167 17.2503 31.1581 17.0449 30.7497C16.8394 30.3413 16.8829 29.8507 17.1584 29.4834L31.6584 10.15C31.9944 9.70052 32.5913 9.54102 33.1012 9.76335C33.6135 9.98327 33.9108 10.5222 33.8189 11.0732L31.6343 24.1667H39.8751C40.3198 24.1667 40.7282 24.4108 40.9384 24.8023C41.1487 25.1938 41.1269 25.6674 40.8853 26.042L26.5617 47.792C26.3321 48.1376 25.9479 48.3334 25.5515 48.3334ZM20.5418 29H27.7918C28.1422 29 28.4709 29.1523 28.7004 29.4133C28.93 29.6719 29.0364 30.0223 28.9904 30.3679L27.4414 42.0597L37.6324 26.5834H30.2084C29.8532 26.5834 29.5173 26.4287 29.2853 26.1556C29.0557 25.8849 28.9566 25.5249 29.017 25.1769L30.6193 15.5634L20.5418 29Z" fill="#444444"/>
</g>
<defs>
<clipPath id="clip0">
<rect width="58" height="58" fill="white"/>
</clipPath>
</defs>
</svg>
