<svg width="50" height="50" viewBox="0 0 50 50" fill="none" xmlns="http://www.w3.org/2000/svg">
<g clip-path="url(#clip0)">
<path d="M45.5566 27.2188C46.096 27.2188 46.5332 26.7815 46.5332 26.2422C46.5332 25.7028 46.096 25.2656 45.5566 25.2656C45.0173 25.2656 44.5801 25.7028 44.5801 26.2422C44.5801 26.7815 45.0173 27.2188 45.5566 27.2188Z" fill="#444444"/>
<path d="M15.4785 37.6955H31.6895C33.3049 37.6955 34.6191 36.3813 34.6191 34.7658V27.9299C34.6191 26.3145 33.3049 25.0002 31.6895 25.0002H15.4785C13.8631 25.0002 12.5488 26.3145 12.5488 27.9299V34.7658C12.5488 36.3813 13.8631 37.6955 15.4785 37.6955ZM14.502 27.9299C14.502 27.3914 14.94 26.9533 15.4785 26.9533H31.6895C32.2279 26.9533 32.666 27.3914 32.666 27.9299V34.7658C32.666 35.3043 32.2279 35.7424 31.6895 35.7424H15.4785C14.94 35.7424 14.502 35.3043 14.502 34.7658V27.9299Z" fill="#444444"/>
<path d="M26.6113 9.76581C26.6113 7.07343 24.4209 4.883 21.7285 4.883H10.4004C7.70801 4.883 5.51758 7.07343 5.51758 9.76581V13.6721C5.51758 15.2875 6.83184 16.6017 8.44727 16.6017H19.7754C23.5448 16.6017 26.6113 13.5352 26.6113 9.76581ZM7.4707 13.6721V9.76581C7.4707 8.15038 8.78496 6.83612 10.4004 6.83612H21.7285C23.3439 6.83612 24.6582 8.15038 24.6582 9.76581C24.6582 12.4582 22.4678 14.6486 19.7754 14.6486H8.44727C7.90879 14.6486 7.4707 14.2105 7.4707 13.6721Z" fill="#444444"/>
<path d="M40.8016 19.0854C40.5012 18.6371 39.8946 18.5176 39.4467 18.8177L35.0746 21.7474C34.6266 22.0477 34.5068 22.6542 34.807 23.1023C34.9954 23.3834 35.3044 23.5354 35.6191 23.5354C35.806 23.5354 35.995 23.4818 36.1619 23.37L40.5339 20.4403C40.982 20.1399 41.1019 19.5333 40.8016 19.0854Z" fill="#444444"/>
<path d="M11.0063 39.3254L6.63422 42.2551C6.18617 42.5554 6.06635 43.1619 6.36654 43.61C6.55502 43.8911 6.864 44.0431 7.17865 44.0431C7.36557 44.0431 7.55453 43.9895 7.72143 43.8777L12.0935 40.948C12.5415 40.6478 12.6614 40.0412 12.3612 39.5932C12.0607 39.1449 11.4541 39.0253 11.0063 39.3254Z" fill="#444444"/>
<path d="M40.5339 42.2551L36.1619 39.3254C35.7139 39.0252 35.1073 39.1449 34.807 39.5931C34.5068 40.0411 34.6266 40.6477 35.0746 40.948L39.4467 43.8776C39.6136 43.9896 39.8026 44.043 39.9895 44.043C40.3042 44.043 40.6132 43.891 40.8016 43.6099C41.1019 43.162 40.982 42.5555 40.5339 42.2551Z" fill="#444444"/>
<path d="M12.0935 21.7472L7.72143 18.8176C7.27357 18.5174 6.66693 18.6371 6.36654 19.0852C6.06635 19.5333 6.18617 20.1398 6.63422 20.4401L11.0063 23.3698C11.1732 23.4817 11.3621 23.5351 11.5491 23.5351C11.8638 23.5351 12.1728 23.3832 12.3612 23.102C12.6614 22.6542 12.5415 22.0476 12.0935 21.7472Z" fill="#444444"/>
<path d="M49.0792 9.2999C49.4605 8.91856 49.4605 8.30019 49.0792 7.91875L41.4466 0.28623C41.2634 0.103125 41.015 0.000195313 40.7561 0.000195313C40.4971 0.000195313 40.2486 0.103125 40.0655 0.28623L35.1974 5.15449L30.329 0.286133C30.1475 0.104492 29.8955 0 29.6387 0H9.42383C8.2373 0.000976562 7.08594 0.232422 6.00293 0.691406C4.95605 1.13379 4.0166 1.76768 3.20898 2.57422C2.40234 3.38184 1.76855 4.32129 1.3252 5.36807C0.867187 6.45215 0.634766 7.60264 0.634766 8.78906V45.1172C0.634766 45.7764 0.763574 46.416 1.01855 47.0176C1.26475 47.5996 1.61621 48.1211 2.06445 48.5703C2.5127 49.0186 3.03516 49.37 3.61631 49.6162C4.21875 49.8711 4.8584 50 5.51758 50H41.6504C42.3096 50 42.9492 49.8711 43.5508 49.6162C44.1328 49.37 44.6543 49.0186 45.1025 48.5703C45.5508 48.121 45.9033 47.5996 46.1494 47.0176C46.4034 46.416 46.5333 45.7764 46.5333 45.1172V30.6367C46.5333 30.0977 46.0948 29.6602 45.5567 29.6602C45.0187 29.6602 44.5802 30.0977 44.5802 30.6367V45.1172C44.5772 46.7295 43.2628 48.0439 41.6505 48.0469H5.51768C3.90537 48.0439 2.59092 46.7295 2.58799 45.1172V8.78906C2.58799 6.96484 3.2999 5.24805 4.58994 3.95508C5.88281 2.66504 7.59853 1.9541 9.42383 1.95312H29.2343L44.5801 17.2988V21.8477C44.5801 22.3858 45.0186 22.8242 45.5566 22.8242C46.0957 22.8242 46.5332 22.3858 46.5332 21.8477C46.5332 21.8467 46.5332 21.8467 46.5332 21.8457V16.8945C46.5332 16.6338 46.4316 16.3887 46.247 16.2041L44.211 14.1682L49.0792 9.2999ZM40.7561 2.35791L47.0076 8.60947L45.6133 10.0039L39.3616 3.75234L40.7561 2.35791ZM37.9805 5.1334L44.232 11.3849L42.8377 12.7793L36.5861 6.52773L37.9805 5.1334Z" fill="#444444"/>
</g>
<defs>
<clipPath id="clip0">
<rect width="50" height="50" fill="white"/>
</clipPath>
</defs>
</svg>
