<svg width="13" height="14" viewBox="0 0 13 14" fill="none" xmlns="http://www.w3.org/2000/svg">
<g clip-path="url(#clip0)">
<path d="M13 2.65913C12.5166 2.8875 12.0014 3.03887 11.4644 3.11237C12.0169 2.75712 12.4386 2.19887 12.6368 1.526C12.1217 1.85675 11.5529 2.09038 10.9468 2.22075C10.4577 1.65988 9.76056 1.3125 9.00006 1.3125C7.52456 1.3125 6.33669 2.60225 6.33669 4.18338C6.33669 4.41088 6.35456 4.62962 6.39844 4.83787C4.18275 4.7215 2.22219 3.57788 0.905125 1.83575C0.675187 2.26538 0.540313 2.75713 0.540313 3.2865C0.540313 4.2805 1.01562 5.16162 1.72413 5.67175C1.29594 5.663 0.875875 5.52913 0.52 5.31825C0.52 5.327 0.52 5.33838 0.52 5.34975C0.52 6.7445 1.44381 7.903 2.65525 8.16988C2.43831 8.23375 2.20187 8.26437 1.9565 8.26437C1.78587 8.26437 1.61362 8.25387 1.45194 8.21537C1.79725 9.352 2.77713 10.1876 3.94225 10.2148C3.0355 10.9786 1.88419 11.4389 0.637812 11.4389C0.41925 11.4389 0.209625 11.4284 0 11.3995C1.18056 12.2194 2.57969 12.6875 4.0885 12.6875C8.99275 12.6875 11.674 8.3125 11.674 4.52025C11.674 4.39337 11.6699 4.27087 11.6643 4.14925C12.1932 3.745 12.6376 3.24013 13 2.65913Z" fill="#03A9F4"/>
</g>
<defs>
<clipPath id="clip0">
<rect width="13" height="14" fill="white"/>
</clipPath>
</defs>
</svg>
