<svg width="46" height="46" viewBox="0 0 46 46" fill="none" xmlns="http://www.w3.org/2000/svg">
<g clip-path="url(#clip0)">
<path d="M38.8125 8.98438C38.3166 8.98438 37.9141 9.38688 37.9141 9.88281C37.9141 10.3787 38.3166 10.7812 38.8125 10.7812C39.3084 10.7812 39.7109 10.3787 39.7109 9.88281C39.7109 9.38688 39.3084 8.98438 38.8125 8.98438Z" fill="#444444"/>
<path d="M7.1875 8.98438C6.69156 8.98438 6.28906 9.38688 6.28906 9.88281C6.28906 10.3787 6.69156 10.7812 7.1875 10.7812C7.68344 10.7812 8.08594 10.3787 8.08594 9.88281C8.08594 9.38688 7.68344 8.98438 7.1875 8.98438Z" fill="#444444"/>
<path d="M45.1017 19.7656H44.0272C43.6913 17.1777 42.8799 14.7116 41.6064 12.4249C41.365 11.9915 40.818 11.8356 40.3844 12.077C39.9509 12.3184 39.7951 12.8656 40.0365 13.2991C41.1603 15.3172 41.8914 17.4883 42.2154 19.7656H41.508C41.0118 19.7656 40.6095 20.1678 40.6095 20.664V24.2578C40.6095 24.754 41.0118 25.1562 41.508 25.1562H45.1017C45.5979 25.1562 46.0001 24.754 46.0001 24.2578V20.664C46.0001 20.1678 45.5979 19.7656 45.1017 19.7656ZM44.2033 23.3593H42.4064V21.5624H43.222C43.2223 21.5624 43.2226 21.5624 43.2229 21.5624C43.2233 21.5624 43.2235 21.5624 43.2239 21.5624H44.2033V23.3593Z" fill="#444444"/>
<path d="M32.8811 26.2902C32.8806 26.2762 32.8802 26.2623 32.879 26.2484C32.8774 26.2293 32.8748 26.2106 32.872 26.1919C32.8703 26.1804 32.869 26.1689 32.8667 26.1574C32.8626 26.1354 32.8572 26.1138 32.8515 26.0923C32.8494 26.0842 32.8477 26.076 32.8453 26.0679C32.8373 26.041 32.8279 26.0147 32.8175 25.9889C32.8163 25.9861 32.8155 25.9832 32.8144 25.9804C32.802 25.9504 32.788 25.9212 32.7726 25.893L23.7884 9.45192C23.6309 9.1637 23.3286 8.98438 23 8.98438C22.6714 8.98438 22.3691 9.1637 22.2116 9.45201L13.2274 25.8931C13.212 25.9213 13.198 25.9505 13.1856 25.9805C13.1845 25.9833 13.1837 25.9861 13.1825 25.989C13.1721 26.0148 13.1627 26.0411 13.1547 26.068C13.1523 26.0761 13.1506 26.0842 13.1485 26.0924C13.1427 26.1139 13.1374 26.1354 13.1333 26.1575C13.1311 26.1689 13.1298 26.1804 13.128 26.192C13.1252 26.2107 13.1226 26.2294 13.121 26.2485C13.1198 26.2624 13.1193 26.2763 13.1189 26.2903C13.1184 26.3016 13.1172 26.3127 13.1172 26.3242C13.1172 26.3301 13.118 26.3358 13.1181 26.3417C13.1184 26.3558 13.1193 26.3699 13.1202 26.384C13.1214 26.4018 13.1228 26.4196 13.1251 26.4372C13.1267 26.4496 13.1287 26.4619 13.1308 26.4743C13.134 26.4938 13.1379 26.513 13.1423 26.5319C13.1449 26.5426 13.1476 26.5533 13.1506 26.5639C13.1563 26.5844 13.1627 26.6045 13.1697 26.6244C13.1717 26.63 13.173 26.6358 13.1751 26.6415L16.4153 35.2277C16.1553 35.3566 15.9149 35.5277 15.7037 35.7389C15.1945 36.2481 14.9141 36.9249 14.9141 37.6445C14.9141 38.8157 15.6652 39.8144 16.7109 40.1853V45.1016C16.7109 45.5978 17.1132 46 17.6094 46H28.3906C28.8868 46 29.2891 45.5978 29.2891 45.1016V40.1868C29.6636 40.0547 30.0071 39.8395 30.2964 39.5502C30.8055 39.041 31.0859 38.3642 31.0859 37.6445C31.0859 36.5868 30.4733 35.6699 29.5844 35.2289L32.825 26.6415C32.8271 26.6358 32.8284 26.63 32.8303 26.6244C32.8374 26.6045 32.8438 26.5844 32.8495 26.5639C32.8524 26.5533 32.8551 26.5426 32.8577 26.5319C32.8622 26.513 32.866 26.4938 32.8693 26.4743C32.8714 26.4619 32.8735 26.4496 32.875 26.4372C32.8772 26.4196 32.8787 26.4018 32.8799 26.384C32.8807 26.3699 32.8817 26.3558 32.882 26.3417C32.8821 26.3359 32.8829 26.3301 32.8829 26.3242C32.8828 26.3127 32.8816 26.3016 32.8811 26.2902ZM23 25.4258C23.4954 25.4258 23.8984 25.8288 23.8984 26.3242C23.8984 26.8196 23.4954 27.2227 23 27.2227C22.5046 27.2227 22.1016 26.8196 22.1016 26.3242C22.1016 25.8288 22.5046 25.4258 23 25.4258ZM27.4922 44.2031H18.5078V40.3398H27.4922V44.2031ZM29.0257 38.2795C28.8559 38.4494 28.6303 38.543 28.3906 38.543H17.6094C17.114 38.543 16.7109 38.1399 16.7109 37.6445C16.7109 37.4048 16.8045 37.1792 16.9743 37.0095C17.1442 36.8396 17.3697 36.7461 17.6094 36.7461H28.3846C28.3866 36.7461 28.3886 36.7464 28.3905 36.7464C28.3915 36.7464 28.3926 36.7463 28.3936 36.7463C28.8876 36.7479 29.2892 37.1501 29.2892 37.6445C29.2891 37.8842 29.1955 38.1098 29.0257 38.2795ZM27.7694 34.9492H18.2306L15.3149 27.2227H17.6094C18.1056 27.2227 18.5078 26.8204 18.5078 26.3242C18.5078 25.828 18.1056 25.4258 17.6094 25.4258H15.5304L22.1016 13.4006V23.7834C21.0559 24.1543 20.3047 25.1529 20.3047 26.3242C20.3047 27.8104 21.5138 29.0195 23 29.0195C24.4862 29.0195 25.6953 27.8104 25.6953 26.3242C25.6953 25.153 24.9441 24.1543 23.8984 23.7834V13.4006L30.4696 25.4258H28.3906C27.8944 25.4258 27.4922 25.828 27.4922 26.3242C27.4922 26.8204 27.8944 27.2227 28.3906 27.2227H30.6851L27.7694 34.9492Z" fill="#444444"/>
<path d="M5.61568 12.0771C5.1821 11.8356 4.63495 11.9914 4.39363 12.425C3.12027 14.7117 2.30871 17.1778 1.97297 19.7656H0.898438C0.402231 19.7656 0 20.1679 0 20.6641V24.2578C0 24.754 0.402231 25.1563 0.898438 25.1563H4.49219C4.98839 25.1563 5.39062 24.754 5.39062 24.2578V20.6641C5.39062 20.1679 4.98839 19.7656 4.49219 19.7656H3.78467C4.10873 17.4884 4.83979 15.3173 5.96356 13.2991C6.20497 12.8656 6.04927 12.3185 5.61568 12.0771ZM3.59375 23.3594H1.79688V21.5625H2.77626C2.77662 21.5625 2.77689 21.5625 2.77725 21.5625C2.77752 21.5625 2.77788 21.5625 2.77815 21.5625H3.59375V23.3594Z" fill="#444444"/>
<path d="M43.3047 0C42.1335 0 41.1348 0.751184 40.7639 1.79688H25.6953V0.898438C25.6953 0.402231 25.2931 0 24.7969 0H21.2031C20.7069 0 20.3047 0.402231 20.3047 0.898438V1.79688H5.23609C4.86522 0.751184 3.86652 0 2.69531 0C1.20912 0 0 1.20912 0 2.69531C0 4.18151 1.20912 5.39062 2.69531 5.39062C3.86652 5.39062 4.86522 4.63944 5.23609 3.59375H14.2684C12.3522 4.39561 10.5948 5.43654 9.14834 6.65598C8.76893 6.97583 8.72068 7.54265 9.04053 7.92197C9.21824 8.13284 9.47223 8.24137 9.72783 8.24137C9.93232 8.24137 10.1379 8.17201 10.3064 8.02987C12.8842 5.85673 16.563 4.30468 20.3047 3.78413V4.49219C20.3047 4.98839 20.7069 5.39062 21.2031 5.39062H24.7969C25.2931 5.39062 25.6953 4.98839 25.6953 4.49219V3.78413C29.437 4.30468 33.1158 5.85673 35.6936 8.02979C35.8621 8.17192 36.0677 8.24137 36.2722 8.24128C36.5279 8.24128 36.7819 8.13275 36.9595 7.92188C37.2794 7.54265 37.2311 6.97583 36.8517 6.65598C35.4052 5.43654 33.6478 4.39561 31.7316 3.59375H40.7639C41.1348 4.63944 42.1334 5.39062 43.3047 5.39062C44.7909 5.39062 46 4.18151 46 2.69531C46 1.20912 44.7909 0 43.3047 0ZM2.69531 3.59375C2.19991 3.59375 1.79688 3.19071 1.79688 2.69531C1.79688 2.19991 2.19991 1.79688 2.69531 1.79688C3.19071 1.79688 3.59375 2.19991 3.59375 2.69531C3.59375 3.19071 3.19071 3.59375 2.69531 3.59375ZM23.8984 2.69531V2.77617V3.59375H22.1016V2.77617V2.69531V1.79688H23.8984V2.69531ZM43.3047 3.59375C42.8093 3.59375 42.4062 3.19071 42.4062 2.69531C42.4062 2.19991 42.8093 1.79688 43.3047 1.79688C43.8001 1.79688 44.2031 2.19991 44.2031 2.69531C44.2031 3.19071 43.8001 3.59375 43.3047 3.59375Z" fill="#444444"/>
</g>
<defs>
<clipPath id="clip0">
<rect width="46" height="46" fill="white"/>
</clipPath>
</defs>
</svg>
