<?xml version="1.0" standalone="no"?>
<!DOCTYPE svg PUBLIC "-//W3C//DTD SVG 1.1//EN" "http://www.w3.org/Graphics/SVG/1.1/DTD/svg11.dtd" >
<svg xmlns="http://www.w3.org/2000/svg" xmlns:xlink="http://www.w3.org/1999/xlink" version="1.1">
<metadata></metadata>
<defs>
<font id="erbaumbold" horiz-adv-x="1251" vert-adv-y="2048" >
<font-face units-per-em="2048" ascent="1638" descent="-410" />
<missing-glyph horiz-adv-x="524" />
<glyph horiz-adv-x="0" vert-adv-y="0" />
<glyph horiz-adv-x="682" />
<glyph unicode=" " horiz-adv-x="524" vert-adv-y="2058" />
<glyph unicode="!" horiz-adv-x="690" vert-adv-y="2058" d="M115 182v27q0 121 46 162t181 41h6q135 0 181 -41t46 -162v-27q0 -121 -46 -161.5t-181 -40.5h-6q-135 0 -181 40.5t-46 161.5zM162 1014v446h368v-446l-26 -486h-318z" />
<glyph unicode="&#x22;" horiz-adv-x="1091" vert-adv-y="2058" d="M115 829v631h368l-69 -631h-299zM608 829v631h369l-68 -631h-301z" />
<glyph unicode="#" horiz-adv-x="1816" vert-adv-y="2058" d="M115 311l63 316h236l45 225h-236l66 313h235l60 295h358l-59 -295h227l59 295h359l-60 -295h236l-66 -313h-233l-47 -225h235l-63 -316h-236l-63 -311h-361l64 311h-225l-64 -311h-360l63 311h-233zM772 627h227l45 225h-225z" />
<glyph unicode="$" horiz-adv-x="1501" vert-adv-y="2058" d="M145 342q0 23 2 29l367 45v-15q0 -60 25.5 -84t89.5 -24h243q63 0 88 24t25 84v39q0 51 -27.5 70.5t-119.5 32.5l-334 49q-191 28 -271.5 104t-80.5 232v190q0 180 94 271.5t278 91.5h41v205h369v-205h43q184 0 277.5 -91t93.5 -270q0 -22 -2 -30l-367 -43v12 q0 61 -25 84.5t-88 23.5h-227q-66 0 -92.5 -24t-26.5 -84v-33q0 -52 26 -69t124 -31l336 -49q192 -28 270 -104t78 -236v-195q0 -362 -371 -362h-51v-205h-369v205h-45q-185 0 -279 91t-94 271z" />
<glyph unicode="%" horiz-adv-x="2570" vert-adv-y="2058" d="M115 743v514q0 105 59 164.5t164 59.5h391q105 0 165 -59.5t60 -164.5v-514q0 -106 -59.5 -165.5t-165.5 -59.5h-391q-106 0 -164.5 59.5t-58.5 165.5zM391 821q0 -44 17 -61t63 -17h125q47 0 63.5 16.5t16.5 61.5v357q0 45 -16.5 61t-63.5 16h-125q-46 0 -63 -16 t-17 -61v-357zM858 0l537 1460h317l-538 -1460h-316zM1616 205v514q0 106 59.5 165.5t163.5 59.5h393q104 0 164 -60t60 -165v-514q0 -105 -60 -165t-164 -60h-393q-104 0 -163.5 59.5t-59.5 165.5zM1894 283q0 -44 16 -60t62 -16h127q46 0 62 16t16 60v356q0 46 -16 62 t-62 16h-127q-46 0 -62 -16t-16 -62v-356z" />
<glyph unicode="&#x26;" horiz-adv-x="1611" vert-adv-y="2058" d="M127 342v131q0 116 39 185t133 110q-81 51 -116.5 108t-35.5 136v106q0 180 94 271.5t279 91.5h438q184 0 277.5 -91t93.5 -270q0 -22 -2 -30l-366 -43v12q0 61 -25 84.5t-88 23.5h-217q-65 0 -90 -23.5t-25 -84.5v-60q0 -58 25 -80t90 -22h903v-315h-197v-240 q0 -362 -370 -362h-467q-185 0 -279 91t-94 271zM496 401q0 -60 25 -84t89 -24h246q63 0 88 24t25 84v181h-359q-64 0 -89 -23.5t-25 -83.5v-74z" />
<glyph unicode="'" horiz-adv-x="595" vert-adv-y="2058" d="M115 829v631h368l-69 -631h-299z" />
<glyph unicode="(" horiz-adv-x="925" vert-adv-y="2058" d="M115 -135v1374q0 363 370 363h326v-314h-215q-63 0 -88 -24t-25 -84v-1256q0 -61 25 -84.5t88 -23.5h215v-314h-326q-370 0 -370 363z" />
<glyph unicode=")" horiz-adv-x="925" vert-adv-y="2058" d="M115 -184h215q63 0 87.5 23.5t24.5 84.5v1256q0 60 -24.5 84t-87.5 24h-215v314h325q371 0 371 -363v-1374q0 -363 -371 -363h-325v314z" />
<glyph unicode="*" horiz-adv-x="1216" vert-adv-y="2058" d="M115 1116l112 314l265 -150l-52 301h336l-51 -301l264 150l115 -314l-318 -57l244 -207l-260 -213l-162 281l-159 -281l-263 213l244 207z" />
<glyph unicode="+" vert-adv-y="2058" d="M115 547v313h352v357h317v-357h355v-313h-355v-354h-317v354h-352z" />
<glyph unicode="," horiz-adv-x="690" vert-adv-y="2058" d="M80 -246q153 114 192 228q-91 9 -124 52t-33 148v27q0 121 46 162t181 41h6q135 0 181 -41t46 -162v-27v-2q0 -212 -87 -358t-279 -260z" />
<glyph unicode="-" vert-adv-y="2058" d="M115 547v313h1024v-313h-1024z" />
<glyph unicode="." horiz-adv-x="690" vert-adv-y="2058" d="M115 182v27q0 121 46 162t181 41h6q135 0 181 -41t46 -162v-27q0 -121 -46 -161.5t-181 -40.5h-6q-135 0 -181 40.5t-46 161.5z" />
<glyph unicode="/" horiz-adv-x="1150" vert-adv-y="2058" d="M115 0l555 1581h368l-555 -1581h-368z" />
<glyph unicode="0" horiz-adv-x="1536" vert-adv-y="2058" d="M166 342v776q0 180 94 271.5t279 91.5h458q185 0 279 -91.5t94 -271.5v-776q0 -180 -94 -271t-279 -91h-458q-185 0 -279 91t-94 271zM535 401q0 -60 25 -84t89 -24h238q64 0 89 24t25 84v658q0 61 -24.5 84.5t-89.5 23.5h-238q-65 0 -89.5 -23.5t-24.5 -84.5v-658z" />
<glyph unicode="1" horiz-adv-x="1376" vert-adv-y="2058" d="M115 1155l463 305h354v-1147h354v-313h-1096v313h373v744l-280 -191z" />
<glyph unicode="2" horiz-adv-x="1437" vert-adv-y="2058" d="M117 0v469q0 145 70.5 214t277.5 126l285 78q69 18 102 29t55 26t26.5 30.5t4.5 45.5v41q0 61 -25 84.5t-90 23.5h-207q-63 0 -87.5 -23.5t-24.5 -84.5v-12l-367 43q-2 8 -2 30q0 179 93.5 270t277.5 91h428q373 0 373 -363v-225q0 -93 -33 -149.5t-114 -98.5t-238 -84 l-285 -78q-104 -29 -128 -48t-24 -73v-49h834v-313h-1202z" />
<glyph unicode="3" horiz-adv-x="1433" vert-adv-y="2058" d="M133 342v29l369 45v-15q0 -61 24 -84.5t88 -23.5h246q64 0 89.5 24t25.5 84v74q0 60 -25.5 83.5t-89.5 23.5h-266v315h246q65 0 89.5 22t24.5 80v60q0 61 -24.5 84.5t-89.5 23.5h-217q-63 0 -88 -23.5t-25 -84.5v-12l-367 43q-2 8 -2 30q0 179 93.5 270t277.5 91h438 q185 0 279 -91.5t94 -271.5v-106q0 -79 -35.5 -136t-116.5 -108q94 -41 133 -110t39 -185v-131q0 -362 -372 -362h-467q-371 0 -371 362z" />
<glyph unicode="4" horiz-adv-x="1501" vert-adv-y="2058" d="M78 254v303l254 903h379l-248 -893h352v498h369v-498h239v-313h-241v-254h-369v254h-735z" />
<glyph unicode="5" horiz-adv-x="1495" vert-adv-y="2058" d="M137 342q0 23 2 29l367 45v-15q0 -60 24.5 -84t87.5 -24h240q63 0 88 24t25 84v103q0 61 -25 84.5t-88 23.5h-227q-56 0 -81.5 -16.5t-31.5 -56.5l-362 53l73 868h1039v-313h-701l-22 -256q49 35 135 35h289q370 0 370 -361v-223q0 -362 -370 -362h-461q-371 0 -371 362z " />
<glyph unicode="6" horiz-adv-x="1536" vert-adv-y="2058" d="M166 344v774q0 180 94 271.5t279 91.5h458q184 0 277.5 -91t93.5 -270q0 -22 -2 -30l-367 -43v12q0 61 -24.5 84.5t-87.5 23.5h-238q-65 0 -89.5 -23.5t-24.5 -84.5v-156q52 43 145 43h317q185 0 279 -91t94 -271v-240q0 -180 -94 -271t-279 -91h-458q-185 0 -279 91 t-94 271zM535 403q0 -60 25 -84t89 -24h238q64 0 89 24t25 84v121q0 60 -25 84.5t-89 24.5h-238q-64 0 -89 -24.5t-25 -84.5v-121z" />
<glyph unicode="7" horiz-adv-x="1292" vert-adv-y="2058" d="M66 1147v313h1159v-303l-576 -1157h-411l573 1147h-745z" />
<glyph unicode="8" horiz-adv-x="1382" vert-adv-y="2058" d="M90 342v131q0 112 37.5 181t124.5 108q-78 46 -107.5 101.5t-29.5 146.5v108q0 363 368 363h416q371 0 371 -363v-108q0 -93 -30 -147.5t-110 -100.5q87 -39 124.5 -108t37.5 -181v-131q0 -362 -370 -362h-461q-371 0 -371 362zM459 401q0 -60 25 -84t89 -24h238 q64 0 88.5 24t24.5 84v72q0 60 -24.5 83.5t-88.5 23.5h-238q-64 0 -89 -23.5t-25 -83.5v-72zM483 999q0 -60 24 -82t89 -22h190q66 0 90.5 22t24.5 82v60q0 61 -25 84.5t-90 23.5h-190q-64 0 -88.5 -23t-24.5 -85v-60z" />
<glyph unicode="9" horiz-adv-x="1536" vert-adv-y="2058" d="M166 879v239q0 180 94 271.5t279 91.5h458q185 0 279 -91.5t94 -271.5v-774q0 -180 -94 -271t-279 -91h-458q-371 0 -371 360q0 23 2 31l367 45v-15q0 -60 24.5 -84t87.5 -24h238q64 0 89 24t25 84v156q-52 -43 -145 -43h-317q-185 0 -279 91.5t-94 271.5zM535 938 q0 -60 25 -83.5t89 -23.5h238q64 0 89 23.5t25 83.5v121q0 61 -24.5 84.5t-89.5 23.5h-238q-65 0 -89.5 -23.5t-24.5 -84.5v-121z" />
<glyph unicode=":" horiz-adv-x="690" vert-adv-y="2058" d="M115 182v27q0 121 46 162t181 41h6q135 0 181 -41t46 -162v-27q0 -121 -46 -161.5t-181 -40.5h-6q-135 0 -181 40.5t-46 161.5zM115 903v29q0 120 46 160.5t181 40.5h6q135 0 181 -40.5t46 -160.5v-29q0 -120 -46 -161.5t-181 -41.5h-6q-135 0 -181 41.5t-46 161.5z" />
<glyph unicode=";" horiz-adv-x="690" vert-adv-y="2058" d="M80 -246q153 114 192 228q-91 9 -124 52t-33 148v27q0 121 46 162t181 41h6q135 0 181 -41t46 -162v-27v-2q0 -212 -87 -358t-279 -260zM115 903v29q0 120 46 160.5t181 40.5h6q135 0 181 -40.5t46 -160.5v-29q0 -120 -46 -161.5t-181 -41.5h-6q-135 0 -181 41.5 t-46 161.5z" />
<glyph unicode="&#x3c;" horiz-adv-x="1157" vert-adv-y="2058" d="M115 461v391l929 330v-328l-563 -197l563 -198v-328z" />
<glyph unicode="=" vert-adv-y="2058" d="M115 258v315h1024v-315h-1024zM115 715v313h1024v-313h-1024z" />
<glyph unicode="&#x3e;" horiz-adv-x="1157" vert-adv-y="2058" d="M115 131v328l563 198l-563 197v328l929 -330v-391z" />
<glyph unicode="?" horiz-adv-x="1337" vert-adv-y="2058" d="M78 1120q0 179 93.5 270t277.5 91h438q373 0 373 -363v-145q0 -363 -373 -363h-78l-4 -82h-318l-22 369h311q64 0 89.5 24.5t25.5 84.5v53q0 61 -25 84.5t-90 23.5h-215q-65 0 -90 -23.5t-25 -84.5v-12l-366 43q-2 8 -2 30zM414 182v27q0 121 46 162t181 41h6 q135 0 181 -41t46 -162v-27q0 -121 -46 -161.5t-181 -40.5h-6q-135 0 -181 40.5t-46 161.5z" />
<glyph unicode="@" horiz-adv-x="2570" vert-adv-y="2058" d="M158 -176v1524q0 170 80.5 246.5t257.5 76.5h1577q179 0 259.5 -76.5t80.5 -246.5v-1061q0 -161 -76.5 -234t-245.5 -73h-293q-205 0 -276 110q-30 -58 -84.5 -84t-155.5 -26h-233q-170 0 -249 75t-79 238v588q0 164 78.5 238.5t249.5 74.5h233q101 0 155.5 -26.5 t84.5 -84.5l26 91h295l-16 -228v-602q0 -52 18.5 -69t73.5 -17h51q55 0 73.5 17t18.5 69v948q0 59 -23.5 80t-90.5 21h-1332q-63 0 -85.5 -21t-22.5 -80v-1411q0 -60 22.5 -81t85.5 -21h1307v-277h-1427q-177 0 -257.5 76t-80.5 246zM1071 350q0 -53 21 -72.5t77 -19.5h209 q56 0 77.5 19.5t21.5 72.5v473q0 54 -21.5 74.5t-77.5 20.5h-209q-56 0 -77 -20.5t-21 -74.5v-473z" />
<glyph unicode="A" horiz-adv-x="1613" vert-adv-y="2058" d="M78 0l461 1460h538l461 -1460h-379l-94 313h-516l-94 -313h-377zM645 629h326l-162 540z" />
<glyph unicode="B" horiz-adv-x="1439" vert-adv-y="2058" d="M178 0v1460h768q185 0 279 -91t94 -271v-84q0 -83 -32.5 -141t-108.5 -107q93 -41 132.5 -109t39.5 -180v-115q0 -180 -94 -271t-277 -91h-801zM547 309h319q65 0 90 24t25 85v61q0 61 -25 85t-90 24h-319v-279zM547 893h289q65 0 89.5 22t24.5 82v47q0 60 -25 83.5 t-89 23.5h-289v-258z" />
<glyph unicode="C" horiz-adv-x="1488" vert-adv-y="2058" d="M158 342v776q0 363 370 363h461q184 0 277.5 -91t93.5 -270q0 -22 -2 -30l-367 -43v12q0 61 -24.5 84.5t-87.5 23.5h-240q-63 0 -88 -23.5t-25 -84.5v-658q0 -60 25 -84t88 -24h240q63 0 87.5 24t24.5 84v15l367 -45q2 -8 2 -29q0 -362 -371 -362h-461q-370 0 -370 362z " />
<glyph unicode="D" horiz-adv-x="1501" vert-adv-y="2058" d="M178 0v1460h793q372 0 372 -362v-736q0 -362 -372 -362h-793zM547 313h313q64 0 89.5 24.5t25.5 84.5v616q0 61 -25 85t-90 24h-313v-834z" />
<glyph unicode="E" horiz-adv-x="1314" vert-adv-y="2058" d="M178 0v1460h1036v-313h-667v-244h581v-313h-581v-277h667v-313h-1036z" />
<glyph unicode="F" horiz-adv-x="1314" vert-adv-y="2058" d="M178 0v1460h1036v-313h-667v-289h581v-313h-581v-545h-369z" />
<glyph unicode="G" horiz-adv-x="1517" vert-adv-y="2058" d="M158 342v776q0 363 370 363h461q184 0 277.5 -91t93.5 -270q0 -22 -2 -30l-367 -43v12q0 61 -24.5 84.5t-87.5 23.5h-240q-63 0 -88 -23.5t-25 -84.5v-658q0 -60 25 -84t88 -24h240q63 0 87.5 24t24.5 84v134h-299v315h668v-508q0 -362 -371 -362h-461q-370 0 -370 362z " />
<glyph unicode="H" horiz-adv-x="1585" vert-adv-y="2058" d="M178 0v1460h369v-563h491v563h369v-1460h-369v582h-491v-582h-369z" />
<glyph unicode="I" horiz-adv-x="724" vert-adv-y="2058" d="M178 0v1460h369v-1460h-369z" />
<glyph unicode="J" horiz-adv-x="1273" vert-adv-y="2058" d="M82 342q0 21 2 29l367 45v-15q0 -60 25 -84t89 -24h49q63 0 88 24t25 84v746h-430v313h799v-1118q0 -362 -371 -362h-270q-373 0 -373 362z" />
<glyph unicode="K" horiz-adv-x="1574" vert-adv-y="2058" d="M178 0v1460h369v-563h127l370 563h429l-476 -723l500 -737h-430l-393 582h-127v-582h-369z" />
<glyph unicode="L" horiz-adv-x="1269" vert-adv-y="2058" d="M178 0v1460h369v-1147h645v-313h-1014z" />
<glyph unicode="M" horiz-adv-x="1857" vert-adv-y="2058" d="M174 0v1460h356l398 -626l395 626h356v-1460h-368v850l-320 -504h-129l-319 506v-852h-369z" />
<glyph unicode="N" horiz-adv-x="1597" vert-adv-y="2058" d="M174 0v1460h356l525 -850v850h368v-1460h-358l-522 850v-850h-369z" />
<glyph unicode="O" horiz-adv-x="1517" vert-adv-y="2058" d="M158 342v776q0 363 370 363h461q371 0 371 -363v-776q0 -362 -371 -362h-461q-370 0 -370 362zM526 401q0 -60 25 -84t88 -24h240q63 0 87.5 24t24.5 84v658q0 61 -24.5 84.5t-87.5 23.5h-240q-63 0 -88 -23.5t-25 -84.5v-658z" />
<glyph unicode="P" horiz-adv-x="1427" vert-adv-y="2058" d="M178 0v1460h789q370 0 370 -362v-228q0 -362 -370 -362h-420v-508h-369zM547 821h309q63 0 88 24.5t25 84.5v108q0 61 -25 85t-88 24h-309v-326z" />
<glyph unicode="Q" horiz-adv-x="1517" vert-adv-y="2058" d="M158 342v776q0 363 370 363h461q371 0 371 -363v-776q0 -243 -166 -322l166 -268h-422l-139 228h-271q-370 0 -370 362zM526 401q0 -60 25 -84t88 -24h240q63 0 87.5 24t24.5 84v658q0 61 -24.5 84.5t-87.5 23.5h-240q-63 0 -88 -23.5t-25 -84.5v-658z" />
<glyph unicode="R" horiz-adv-x="1579" vert-adv-y="2058" d="M178 0v1460h793q372 0 372 -362v-219q0 -271 -210 -338l368 -541h-430l-356 518h-168v-518h-369zM547 831h313q64 0 89.5 23.5t25.5 83.5v100q0 61 -25 85t-90 24h-313v-316z" />
<glyph unicode="S" horiz-adv-x="1501" vert-adv-y="2058" d="M145 342q0 23 2 29l367 45v-15q0 -60 25.5 -84t89.5 -24h243q63 0 88 24t25 84v39q0 51 -27.5 70.5t-119.5 32.5l-334 49q-191 28 -271.5 104t-80.5 232v190q0 180 94 271.5t278 91.5h453q184 0 277.5 -91t93.5 -270q0 -22 -2 -30l-367 -43v12q0 61 -25 84.5t-88 23.5 h-227q-66 0 -92.5 -24t-26.5 -84v-33q0 -52 26 -69t124 -31l336 -49q192 -28 270 -104t78 -236v-195q0 -362 -371 -362h-465q-185 0 -279 91t-94 271z" />
<glyph unicode="T" horiz-adv-x="1353" vert-adv-y="2058" d="M78 1147v313h1200v-313h-416v-1147h-368v1147h-416z" />
<glyph unicode="U" horiz-adv-x="1531" vert-adv-y="2058" d="M178 342v1118h369v-1059q0 -60 24.5 -84t87.5 -24h218q63 0 87.5 24t24.5 84v1059h369v-1118q0 -362 -371 -362h-438q-371 0 -371 362z" />
<glyph unicode="V" horiz-adv-x="1552" vert-adv-y="2058" d="M78 1460h377l321 -1102l322 1102h377l-443 -1460h-510z" />
<glyph unicode="W" horiz-adv-x="2308" vert-adv-y="2058" d="M78 1460h373l227 -1098l227 1098h498l229 -1098l228 1098h372l-346 -1460h-510l-221 1077l-223 -1077h-510z" />
<glyph unicode="X" horiz-adv-x="1605" vert-adv-y="2058" d="M78 0l471 739l-449 721h435l268 -434l268 434h434l-448 -721l473 -739h-434l-293 461l-293 -461h-432z" />
<glyph unicode="Y" horiz-adv-x="1570" vert-adv-y="2058" d="M78 1460h409l299 -561l297 561h410l-522 -962v-498h-371v498z" />
<glyph unicode="Z" horiz-adv-x="1361" vert-adv-y="2058" d="M100 0v303l674 844h-637v313h1114v-301l-673 -846h684v-313h-1162z" />
<glyph unicode="[" horiz-adv-x="925" vert-adv-y="2058" d="M115 -477v2058h696v-313h-328v-1432h328v-313h-696z" />
<glyph unicode="\" horiz-adv-x="1161" vert-adv-y="2058" d="M123 1581h369l555 -1581h-369z" />
<glyph unicode="]" horiz-adv-x="925" vert-adv-y="2058" d="M115 -164h327v1432h-327v313h696v-2058h-696v313z" />
<glyph unicode="^" horiz-adv-x="1187" vert-adv-y="2058" d="M115 920l284 661h389l287 -661h-338l-141 335l-143 -335h-338z" />
<glyph unicode="_" vert-adv-y="2058" d="M115 -51h1024v-314h-1024v314z" />
<glyph unicode="`" horiz-adv-x="1228" vert-adv-y="2058" d="M115 1544l100 258l621 -246l-101 -258z" />
<glyph unicode="a" horiz-adv-x="1406" vert-adv-y="2058" d="M145 293v127q0 158 75.5 225.5t252.5 67.5h305q75 0 105 -21v131q0 54 -21.5 74.5t-77.5 20.5h-188q-56 0 -77 -20.5t-21 -74.5v-12l-348 31q-3 15 -3 39q0 164 78.5 238.5t249.5 74.5h430q171 0 250.5 -74.5t79.5 -238.5v-654l16 -227h-297l-20 76q-34 -51 -91.5 -73.5 t-154.5 -22.5h-215q-170 0 -249 75t-79 238zM496 342q0 -50 20 -67t78 -17h190q58 0 78.5 17t20.5 67v96q-19 11 -70 11h-219q-58 0 -78 -17t-20 -67v-23z" />
<glyph unicode="b" horiz-adv-x="1427" vert-adv-y="2058" d="M158 0l16 229v1352h350v-438q60 51 195 51h233q171 0 249.5 -74.5t78.5 -238.5v-588q0 -163 -79 -238t-249 -75h-233q-101 0 -155.5 26t-84.5 84l-26 -90h-295zM524 350q0 -53 21.5 -72.5t77.5 -19.5h208q56 0 77.5 19.5t21.5 72.5v473q0 54 -21.5 74.5t-77.5 20.5h-208 q-56 0 -77.5 -20.5t-21.5 -74.5v-473z" />
<glyph unicode="c" horiz-adv-x="1353" vert-adv-y="2058" d="M145 293v588q0 164 79.5 238.5t250.5 74.5h422q171 0 250.5 -74.5t79.5 -238.5q0 -27 -2 -39l-348 -31v12q0 54 -22 74.5t-79 20.5h-180q-57 0 -78.5 -20.5t-21.5 -74.5v-473q0 -54 21.5 -73t78.5 -19h180q58 0 79.5 19.5t21.5 72.5v15l348 -33q2 -12 2 -39 q0 -162 -79.5 -237.5t-250.5 -75.5h-422q-171 0 -250.5 75.5t-79.5 237.5z" />
<glyph unicode="d" horiz-adv-x="1427" vert-adv-y="2058" d="M145 293v588q0 164 79.5 238.5t250.5 74.5h234q134 0 194 -51v438h350v-1352l17 -229h-297l-25 90q-32 -59 -85.5 -84.5t-153.5 -25.5h-234q-171 0 -250.5 75.5t-79.5 237.5zM496 350q0 -54 21.5 -73t78.5 -19h209q56 0 77 19.5t21 72.5v473q0 54 -21 74.5t-77 20.5h-209 q-57 0 -78.5 -20.5t-21.5 -74.5v-473z" />
<glyph unicode="e" horiz-adv-x="1384" vert-adv-y="2058" d="M143 293v588q0 164 79.5 238.5t250.5 74.5h440q171 0 249.5 -74.5t78.5 -238.5v-400h-747v-131q0 -54 21.5 -73t78.5 -19h199q56 0 77 19.5t21 72.5v12l348 -30q2 -10 2 -39q0 -163 -79 -238t-249 -75h-440q-171 0 -250.5 75.5t-79.5 237.5zM494 745h397v78 q0 54 -21 74.5t-77 20.5h-199q-57 0 -78.5 -20.5t-21.5 -74.5v-78z" />
<glyph unicode="f" horiz-adv-x="1099" vert-adv-y="2058" d="M66 897v277h268v114q0 164 79.5 239t250.5 75h337v-277h-217q-57 0 -78.5 -20t-21.5 -74v-57h317v-277h-317v-897h-350v897h-268z" />
<glyph unicode="g" horiz-adv-x="1427" vert-adv-y="1144" d="M145 -184q0 27 2 39l349 30v-12q0 -54 21.5 -74t78.5 -20h209q56 0 77 20t21 74v158q-60 -51 -194 -51h-234q-171 0 -250.5 75.5t-79.5 237.5v588q0 164 79.5 238.5t250.5 74.5h234q100 0 153.5 -26t85.5 -83l25 89h297l-17 -228v-1130q0 -164 -79 -239t-250 -75h-449 q-171 0 -250.5 75t-79.5 239zM496 350q0 -54 21.5 -73t78.5 -19h209q56 0 77 19.5t21 72.5v473q0 54 -21 74.5t-77 20.5h-209q-57 0 -78.5 -20.5t-21.5 -74.5v-473z" />
<glyph unicode="h" horiz-adv-x="1392" vert-adv-y="2058" d="M158 0v1581h350v-430q61 43 186 43h224q171 0 249 -74.5t78 -238.5v-881h-350v823q0 54 -21 74.5t-77 20.5h-191q-56 0 -77 -20.5t-21 -74.5v-823h-350z" />
<glyph unicode="i" horiz-adv-x="1060" vert-adv-y="2058" d="M113 0v279h270v618h-270v277h620v-895h271v-279h-891zM287 1511v33q0 83 47 112.5t174 29.5h4q127 0 175 -29.5t48 -112.5v-33q0 -83 -48 -112t-175 -29h-4q-127 0 -174 29t-47 112z" />
<glyph unicode="j" horiz-adv-x="811" vert-adv-y="2058" d="M-20 -221h225q57 0 78.5 20t21.5 74v1024h-229v277h579v-1358q0 -164 -79 -239t-250 -75h-346v277zM207 1511v33q0 83 47 112.5t174 29.5h4q127 0 175 -29.5t48 -112.5v-33q0 -83 -48 -112t-175 -29h-4q-127 0 -174 29t-47 112z" />
<glyph unicode="k" horiz-adv-x="1394" vert-adv-y="2058" d="M158 0v1581h350v-836h94l287 429h420l-381 -566l409 -608h-417l-314 469h-98v-469h-350z" />
<glyph unicode="l" horiz-adv-x="747" vert-adv-y="2058" d="M158 293v1288h350v-1231q0 -53 21 -72.5t77 -19.5h84v-278h-205q-170 0 -248.5 75t-78.5 238z" />
<glyph unicode="m" horiz-adv-x="2011" vert-adv-y="2058" d="M158 1174h295l22 -78q31 52 84.5 75t149.5 23h155q203 0 277 -107q32 57 85 82t152 25h156q171 0 250.5 -74.5t79.5 -238.5v-881h-351v823q0 54 -21.5 74.5t-78.5 20.5h-121q-56 0 -77 -20.5t-21 -74.5v-823h-350v823q0 54 -22 74.5t-79 20.5h-120q-56 0 -77.5 -20.5 t-21.5 -74.5v-823h-350v946z" />
<glyph unicode="n" horiz-adv-x="1404" vert-adv-y="2058" d="M158 1174h295l22 -78q31 52 84.5 75t149.5 23h219q171 0 250 -74.5t79 -238.5v-881h-350v823q0 54 -21.5 74.5t-78.5 20.5h-184q-56 0 -77.5 -20.5t-21.5 -74.5v-823h-350v946z" />
<glyph unicode="o" horiz-adv-x="1400" vert-adv-y="2058" d="M145 293v588q0 164 79.5 238.5t250.5 74.5h453q171 0 249 -74.5t78 -238.5v-588q0 -163 -78.5 -238t-248.5 -75h-453q-171 0 -250.5 75.5t-79.5 237.5zM496 350q0 -54 21.5 -73t78.5 -19h211q56 0 77 19.5t21 72.5v473q0 54 -21 74.5t-77 20.5h-211q-57 0 -78.5 -20.5 t-21.5 -74.5v-473z" />
<glyph unicode="p" horiz-adv-x="1427" vert-adv-y="2058" d="M158 1174h295l26 -91q30 58 84.5 84.5t155.5 26.5h233q171 0 249.5 -74.5t78.5 -238.5v-588q0 -163 -79 -238t-249 -75h-233q-135 0 -195 51v-508h-350v1423zM524 350q0 -53 21.5 -72.5t77.5 -19.5h208q56 0 77.5 19.5t21.5 72.5v473q0 54 -21.5 74.5t-77.5 20.5h-208 q-56 0 -77.5 -20.5t-21.5 -74.5v-473z" />
<glyph unicode="q" horiz-adv-x="1427" vert-adv-y="2058" d="M145 293v588q0 164 79.5 238.5t250.5 74.5h234q100 0 153.5 -26t85.5 -83l25 89h297l-17 -228v-1423h-350v508q-60 -51 -194 -51h-234q-171 0 -250.5 75.5t-79.5 237.5zM496 350q0 -54 21.5 -73t78.5 -19h209q56 0 77 19.5t21 72.5v473q0 54 -21 74.5t-77 20.5h-209 q-57 0 -78.5 -20.5t-21.5 -74.5v-473z" />
<glyph unicode="r" horiz-adv-x="1370" vert-adv-y="2058" d="M111 0v279h270v618h-270v277h551l24 -89q32 56 86 82.5t146 26.5h57q171 0 250.5 -74.5t79.5 -238.5q0 -27 -2 -39l-349 -31v12q0 54 -21.5 74.5t-78.5 20.5h-23q-57 0 -78.5 -20.5t-21.5 -74.5v-544h379v-279h-999z" />
<glyph unicode="s" horiz-adv-x="1343" vert-adv-y="2058" d="M123 285q0 29 2 39l348 30v-14q0 -52 21.5 -72t78.5 -20h209q49 0 68.5 17.5t19.5 60.5v22q0 27 -10.5 40t-44 22.5t-110.5 19.5l-240 33q-185 26 -257.5 90.5t-72.5 200.5v127q0 164 79 238.5t251 74.5h422q173 0 250 -72t77 -233v-39l-350 -31v15q0 52 -21 72t-77 20 h-195q-47 0 -66.5 -17.5t-19.5 -58.5v-25q0 -35 28 -48.5t134 -26.5l240 -35q186 -26 260 -90.5t74 -200.5v-129q0 -164 -79.5 -239.5t-250.5 -75.5h-438q-174 0 -252 72t-78 233z" />
<glyph unicode="t" horiz-adv-x="1091" vert-adv-y="2058" d="M57 897v277h230v221h350v-221h352v-277h-352v-547q0 -54 21.5 -73t78.5 -19h252v-278h-373q-170 0 -249.5 75t-79.5 238v604h-230z" />
<glyph unicode="u" horiz-adv-x="1392" vert-adv-y="1144" d="M147 293v881h349l2 -824q0 -53 21 -72.5t77 -19.5h174q56 0 77 19.5t21 72.5v824h351v-945l16 -229h-297l-25 90q-32 -59 -85.5 -84.5t-153.5 -25.5h-199q-170 0 -249 75t-79 238z" />
<glyph unicode="v" horiz-adv-x="1302" vert-adv-y="2058" d="M57 1174h361l235 -850l234 850h360l-356 -1174h-479z" />
<glyph unicode="w" horiz-adv-x="2004" vert-adv-y="2058" d="M57 1174h351l182 -844l182 844h461l182 -844l182 844h351l-293 -1174h-473l-178 866l-181 -866h-473z" />
<glyph unicode="x" horiz-adv-x="1413" vert-adv-y="2058" d="M57 0l424 598l-413 576h411l228 -332l227 332h412l-414 -576l424 -598h-412l-237 348l-238 -348h-412z" />
<glyph unicode="y" horiz-adv-x="1302" vert-adv-y="2058" d="M57 1174h361l235 -846l234 846h360l-413 -1362q-39 -131 -77.5 -195t-95 -89.5t-157.5 -25.5h-383v277h262q53 0 70 14t36 74l39 133h-116z" />
<glyph unicode="z" horiz-adv-x="1220" vert-adv-y="2058" d="M98 0v258l555 639h-534v277h983v-259l-553 -636h573v-279h-1024z" />
<glyph unicode="{" horiz-adv-x="1173" vert-adv-y="2058" d="M115 395v314h155q51 0 71.5 21t20.5 73v436q0 363 373 363h326v-314h-215q-64 0 -89.5 -24t-25.5 -84v-330q0 -118 -39 -188t-133 -111q94 -41 133 -110t39 -187v-330q0 -61 25 -84.5t90 -23.5h215v-314h-326q-373 0 -373 363v436q0 52 -20.5 73t-71.5 21h-155z" />
<glyph unicode="|" horiz-adv-x="595" vert-adv-y="2058" d="M115 -477v2058h368v-2058h-368z" />
<glyph unicode="}" horiz-adv-x="1173" vert-adv-y="2058" d="M115 -184h215q63 0 87.5 23.5t24.5 84.5v330q0 118 39 187t133 110q-94 41 -133 111t-39 188v330q0 60 -24.5 84t-87.5 24h-215v314h325q371 0 371 -363v-436q0 -52 20.5 -73t71.5 -21h158v-314h-158q-51 0 -71.5 -21t-20.5 -73v-436q0 -363 -371 -363h-325v314z" />
<glyph unicode="~" horiz-adv-x="1228" vert-adv-y="2058" d="M102 547l170 57q137 48 267 -18l151 -78q129 -66 266 -19l170 58v315l-170 -57q-133 -49 -266 16l-151 78q-131 67 -267 19l-170 -58v-313z" />
<glyph unicode="&#xa0;" horiz-adv-x="524" vert-adv-y="2058" />
<glyph unicode="&#xa1;" horiz-adv-x="690" vert-adv-y="2058" d="M115 965v28q0 120 46 160.5t181 40.5h6q135 0 181 -40.5t46 -160.5v-28q0 -120 -46 -161.5t-181 -41.5h-6q-135 0 -181 41.5t-46 161.5zM162 162l24 483h318l26 -483v-449h-368v449z" />
<glyph unicode="&#xa2;" horiz-adv-x="1353" vert-adv-y="2058" d="M145 293v588q0 164 79.5 238.5t250.5 74.5h6v205h369v-205h47q171 0 250.5 -74.5t79.5 -238.5q0 -27 -2 -39l-348 -31v12q0 54 -22 74.5t-79 20.5h-180q-57 0 -78.5 -20.5t-21.5 -74.5v-473q0 -54 21.5 -73t78.5 -19h180q58 0 79.5 19.5t21.5 72.5v15l348 -33 q2 -12 2 -39q0 -162 -79.5 -237.5t-250.5 -75.5h-47v-205h-369v205h-6q-171 0 -250.5 75.5t-79.5 237.5z" />
<glyph unicode="&#xa3;" horiz-adv-x="1622" vert-adv-y="2058" d="M78 0v313h217v236h-217v315h217v254q0 363 371 363h430q370 0 370 -361q0 -22 -2 -30l-366 -43v12q0 61 -25 84.5t-88 23.5h-207q-65 0 -89.5 -23.5t-24.5 -84.5v-195h495v-315h-495v-236h802v-313h-1388z" />
<glyph unicode="&#xa4;" horiz-adv-x="1529" vert-adv-y="2058" d="M63 283l187 178q-6 41 -6 84v254q0 45 6 82l-187 178l261 262l200 -211q16 2 49 2h383q36 0 50 -2l200 211l260 -262l-186 -178q6 -37 6 -82v-254q0 -43 -6 -84l186 -178l-260 -260l-200 208q-14 -2 -50 -2h-383q-33 0 -49 2l-200 -208zM594 602q0 -54 21.5 -74t78.5 -20 h142q57 0 78.5 20t21.5 74v139q0 54 -21.5 74.5t-78.5 20.5h-142q-57 0 -78.5 -20.5t-21.5 -74.5v-139z" />
<glyph unicode="&#xa5;" horiz-adv-x="1570" vert-adv-y="2058" d="M78 1460h409l299 -561l297 561h410l-412 -760h152v-235h-262v-90h262v-236h-262v-139h-371v139h-262v236h262v90h-262v235h151z" />
<glyph unicode="&#xa6;" horiz-adv-x="595" vert-adv-y="2058" d="M115 377h368v-854h-368v854zM115 725v856h368v-856h-368z" />
<glyph unicode="&#xa7;" horiz-adv-x="1343" vert-adv-y="2058" d="M115 621v186q0 140 55 213q-27 58 -27 141v127q0 164 79.5 239t250.5 75h422q173 0 251.5 -72.5t78.5 -233.5q0 -29 -2 -39l-349 -30v14q0 52 -21.5 72t-78.5 20h-192q-48 0 -68 -17.5t-20 -60.5v-22q0 -36 28 -49.5t133 -26.5l240 -35q187 -26 260.5 -90t73.5 -201v-188 q0 -140 -55 -213q26 -53 26 -139v-127q0 -164 -79.5 -240t-250.5 -76h-421q-173 0 -251.5 72.5t-78.5 233.5q0 29 2 39l348 30v-14q0 -52 21.5 -72t78.5 -20h193q47 0 66.5 17.5t19.5 60.5v22q0 36 -27.5 49.5t-132.5 28.5l-239 33q-188 28 -261 91.5t-73 201.5zM465 694 q0 -27 10.5 -39.5t43 -21.5t110.5 -19l121 -18l45 2q46 0 65 17.5t19 58.5v82q0 17 -3 26.5t-11 17.5t-28 14t-46.5 11.5t-75.5 12.5l-119 16h-47q-46 -2 -65 -19.5t-19 -58.5v-82z" />
<glyph unicode="&#xa8;" horiz-adv-x="1228" vert-adv-y="2058" d="M115 1511v33q0 82 42.5 112t145.5 30h4q104 0 147.5 -30t43.5 -112v-33q0 -82 -43.5 -111.5t-147.5 -29.5h-4q-103 0 -145.5 29.5t-42.5 111.5zM618 1511v33q0 82 43.5 112t147.5 30h4q103 0 145.5 -30t42.5 -112v-33q0 -82 -42.5 -111.5t-145.5 -29.5h-4 q-104 0 -147.5 29.5t-43.5 111.5z" />
<glyph unicode="&#xa9;" horiz-adv-x="1333" vert-adv-y="2058" d="M115 1049q0 243 154.5 398t398.5 155q243 0 398 -155t155 -398t-155 -398t-398 -155q-244 0 -398.5 155t-154.5 398zM242 1049q0 -193 118.5 -314t307.5 -121t307.5 121t118.5 314t-118.5 314.5t-307.5 121.5t-307.5 -121.5t-118.5 -314.5zM414 909v277q0 77 37.5 112 t117.5 35h199q80 0 118 -35.5t38 -111.5v-17l-168 -16v8q0 23 -9.5 32t-35.5 9h-84q-28 0 -36.5 -8.5t-8.5 -34.5v-221q0 -26 8.5 -34.5t36.5 -8.5h84q27 0 36 8t9 33v6l168 -14v-19q0 -76 -38 -111.5t-118 -35.5h-199q-80 0 -117.5 35.5t-37.5 111.5z" />
<glyph unicode="&#xab;" horiz-adv-x="1437" vert-adv-y="2058" d="M115 573l245 402h410l-250 -402l250 -401h-410zM668 573l245 402h410l-250 -402l250 -401h-410z" />
<glyph unicode="&#xac;" vert-adv-y="2058" d="M115 561v313h1024v-520h-398v207h-626z" />
<glyph unicode="&#xad;" vert-adv-y="2058" d="M115 547v313h1024v-313h-1024z" />
<glyph unicode="&#xae;" horiz-adv-x="1333" vert-adv-y="2058" d="M115 1049q0 243 154.5 398t398.5 155q243 0 398 -155t155 -398t-155 -398t-398 -155q-244 0 -398.5 155t-154.5 398zM242 1049q0 -193 118.5 -314t307.5 -121t307.5 121t118.5 314t-118.5 314.5t-307.5 121.5t-307.5 -121.5t-118.5 -314.5zM440 795v516h332q76 0 111 -32 t35 -103v-78q0 -107 -89 -131l125 -172h-198l-119 166h-31v-166h-166zM606 1094h99q26 0 35.5 9t9.5 32v2q0 26 -9 34.5t-36 8.5h-99v-86z" />
<glyph unicode="&#xaf;" horiz-adv-x="1228" vert-adv-y="2058" d="M115 1395v276h719v-276h-719z" />
<glyph unicode="&#xb0;" horiz-adv-x="913" vert-adv-y="2058" d="M115 1284v31q0 149 78 218t245 69h37q168 0 246 -69t78 -218v-31q0 -148 -78.5 -216.5t-245.5 -68.5h-37q-167 0 -245 68.5t-78 216.5zM356 1290q0 -49 21 -67.5t74 -18.5h12q53 0 73.5 18.5t20.5 67.5v19q0 51 -20.5 69.5t-73.5 18.5h-12q-53 0 -74 -19t-21 -69v-19z " />
<glyph unicode="&#xb1;" vert-adv-y="2058" d="M115 102v314h1024v-314h-1024zM115 707v313h352v197h317v-197h355v-313h-355v-195h-317v195h-352z" />
<glyph unicode="&#xb2;" horiz-adv-x="1062" vert-adv-y="2058" d="M115 686v297q0 91 45.5 134.5t177.5 80.5l217 59q75 21 91 30.5t16 35.5v8q0 43 -16 57.5t-62 14.5h-111q-49 0 -64.5 -15t-15.5 -63v-10l-276 35q-2 8 -2 55q0 104 59.5 164.5t163.5 60.5h379q105 0 164 -60t59 -165v-141q0 -58 -10 -92t-44 -63t-86 -49t-149 -48 l-145 -41q-35 -9 -46 -20.5t-11 -37.5h499v-227h-833z" />
<glyph unicode="&#xb3;" horiz-adv-x="1064" vert-adv-y="2058" d="M115 891q0 43 2 53l274 33v-8q0 -44 16.5 -60t63.5 -16h123q49 0 64.5 15t15.5 59v2q0 40 -17 53.5t-67 13.5h-131v228h119q49 0 64 12t15 49v4q0 43 -16 58.5t-63 15.5h-103q-46 0 -63 -16t-17 -60v-10l-274 35q-2 8 -2 53q0 105 59 165t164 60h371q104 0 162.5 -60 t58.5 -165v-86q0 -62 -19 -98t-73 -64q60 -27 85 -67.5t25 -106.5v-92q0 -106 -59.5 -165.5t-163.5 -59.5h-393q-104 0 -162.5 59.5t-58.5 165.5z" />
<glyph unicode="&#xb4;" horiz-adv-x="1228" vert-adv-y="2058" d="M115 1556l620 246l101 -258l-621 -246z" />
<glyph unicode="&#xb6;" horiz-adv-x="1548" vert-adv-y="2058" d="M115 981v164q0 165 78.5 240t250.5 75h990v-1937h-369v1624h-252v-1624h-369v1145q-173 0 -251 74.5t-78 238.5z" />
<glyph unicode="&#xb7;" horiz-adv-x="690" vert-adv-y="2058" d="M115 590v28q0 120 46 160.5t181 40.5h6q135 0 181 -40.5t46 -160.5v-28q0 -120 -46 -161.5t-181 -41.5h-6q-135 0 -181 41.5t-46 161.5z" />
<glyph unicode="&#xb8;" horiz-adv-x="1228" vert-adv-y="2058" d="M115 -193l88 195l295 -2l-37 -80q101 -6 147.5 -59t46.5 -158v-10q0 -111 -54 -164t-169 -53h-317v182h198q38 0 51 8t13 31v2q0 23 -13 31t-51 8h-198v69z" />
<glyph unicode="&#xb9;" horiz-adv-x="1030" vert-adv-y="2058" d="M115 1399l311 211h268v-697h224v-227h-736v227h234v396l-176 -119z" />
<glyph unicode="&#xbb;" horiz-adv-x="1419" vert-adv-y="2058" d="M96 172l248 401l-248 402h410l246 -402l-246 -401h-410zM649 172l248 401l-248 402h410l246 -402l-246 -401h-410z" />
<glyph unicode="&#xbc;" horiz-adv-x="2539" vert-adv-y="2058" d="M115 1153l311 211h268v-696h224v-228h-736v228h234v395l-176 -119zM821 0l537 1460h315l-536 -1460h-316zM1497 176v221l141 527h277l-139 -521h229v299h276v-299h146v-227h-148v-176h-276v176h-506z" />
<glyph unicode="&#xbd;" horiz-adv-x="2529" vert-adv-y="2058" d="M115 1153l311 211h268v-696h224v-228h-736v228h234v395l-176 -119zM821 0l537 1460h315l-536 -1460h-316zM1581 0v297q0 91 45.5 134.5t177.5 80.5l217 59q75 21 91 30.5t16 35.5v8q0 43 -16 57.5t-62 14.5h-111q-49 0 -64 -15t-15 -63v-10l-277 35q-2 8 -2 55 q0 104 59.5 164.5t163.5 60.5h379q105 0 164 -60t59 -165v-141q0 -39 -4 -65t-17 -50t-31.5 -40t-53 -33t-76 -31t-106.5 -33l-146 -41q-35 -9 -46 -20.5t-11 -37.5h500v-227h-834z" />
<glyph unicode="&#xbe;" horiz-adv-x="2574" vert-adv-y="2058" d="M115 645q0 43 2 53l274 33v-8q0 -44 16.5 -60t63.5 -16h123q49 0 64.5 15t15.5 59v2q0 40 -17.5 54t-66.5 14h-131v227h119q49 0 64 12t15 49v4q0 43 -16 58.5t-63 15.5h-103q-46 0 -63 -16t-17 -60v-10l-274 35q-2 8 -2 53q0 105 59 165t164 60h371q104 0 162.5 -60 t58.5 -165v-86q0 -62 -19 -98t-73 -64q60 -27 85 -67.5t25 -106.5v-92q0 -106 -59.5 -165.5t-163.5 -59.5h-393q-104 0 -162.5 59.5t-58.5 165.5zM856 0l537 1460h315l-537 -1460h-315zM1532 176v221l141 527h277l-140 -521h230v299h276v-299h146v-227h-148v-176h-276v176 h-506z" />
<glyph unicode="&#xbf;" horiz-adv-x="1337" vert-adv-y="2058" d="M78 55v146q0 362 371 362h79l4 82h318l22 -369h-311q-65 0 -90 -23.5t-25 -84.5v-53q0 -60 25.5 -84.5t89.5 -24.5h215q64 0 89.5 24.5t25.5 84.5v14l366 -45q3 -12 3 -29q0 -362 -373 -362h-438q-371 0 -371 362zM461 965v28q0 120 46 160.5t183 40.5h6 q135 0 181.5 -40.5t46.5 -160.5v-28q0 -120 -46.5 -161.5t-181.5 -41.5h-6q-136 0 -182.5 41.5t-46.5 161.5z" />
<glyph unicode="&#xc0;" horiz-adv-x="1613" vert-adv-y="2058" d="M78 0l461 1460h538l461 -1460h-379l-94 313h-516l-94 -313h-377zM367 1831l100 258l620 -246l-100 -258zM645 629h326l-162 540z" />
<glyph unicode="&#xc1;" horiz-adv-x="1613" vert-adv-y="2058" d="M78 0l461 1460h538l461 -1460h-379l-94 313h-516l-94 -313h-377zM530 1843l621 246l100 -258l-620 -246zM645 629h326l-162 540z" />
<glyph unicode="&#xc2;" horiz-adv-x="1613" vert-adv-y="2058" d="M78 0l461 1460h538l461 -1460h-379l-94 313h-516l-94 -313h-377zM332 1872l483 192l485 -192l-100 -260l-383 164l-385 -164zM645 629h326l-162 540z" />
<glyph unicode="&#xc3;" horiz-adv-x="1613" vert-adv-y="2058" d="M78 0l461 1460h538l461 -1460h-379l-94 313h-516l-94 -313h-377zM430 1681v279q122 41 191 41q50 0 188 -47t188 -47q51 0 191 41v-279q-122 -41 -191 -41q-50 0 -188.5 47t-187.5 47q-69 0 -191 -41zM645 629h326l-162 540z" />
<glyph unicode="&#xc4;" horiz-adv-x="1613" vert-adv-y="2058" d="M78 0l461 1460h538l461 -1460h-379l-94 313h-516l-94 -313h-377zM365 1798v33q0 82 42.5 111.5t145.5 29.5h4q104 0 147.5 -29.5t43.5 -111.5v-33q0 -82 -43.5 -111.5t-147.5 -29.5h-4q-103 0 -145.5 29.5t-42.5 111.5zM645 629h326l-162 540zM868 1798v33 q0 82 43.5 111.5t147.5 29.5h4q103 0 145.5 -29.5t42.5 -111.5v-33q0 -82 -42.5 -111.5t-145.5 -29.5h-4q-104 0 -147.5 29.5t-43.5 111.5z" />
<glyph unicode="&#xc5;" horiz-adv-x="1613" vert-adv-y="2058" d="M78 0l461 1460h538l461 -1460h-379l-94 313h-516l-94 -313h-377zM500 1823v26q0 134 70.5 196t222.5 62h30q152 0 222.5 -62t70.5 -196v-26q0 -134 -70.5 -196t-222.5 -62h-30q-152 0 -222.5 62t-70.5 196zM645 629h326l-162 540zM713 1827q0 -47 19.5 -65.5t68.5 -18.5 h14q49 0 68.5 18.5t19.5 65.5v18q0 47 -19.5 65.5t-68.5 18.5h-14q-49 0 -68.5 -18.5t-19.5 -65.5v-18z" />
<glyph unicode="&#xc6;" horiz-adv-x="2056" vert-adv-y="2058" d="M78 0l510 1460h1368v-313h-668v-244h582v-313h-582v-277h668v-313h-1036v313h-357l-108 -313h-377zM672 629h248v518h-70z" />
<glyph unicode="&#xc7;" horiz-adv-x="1488" vert-adv-y="2058" d="M158 342v776q0 363 370 363h461q184 0 277.5 -91t93.5 -270q0 -22 -2 -30l-367 -43v12q0 61 -24.5 84.5t-87.5 23.5h-240q-63 0 -88 -23.5t-25 -84.5v-658q0 -60 25 -84t88 -24h240q63 0 87.5 24t24.5 84v15l367 -45q2 -8 2 -29q0 -362 -371 -362h-47l-27 -60 q101 -6 148 -59t47 -158v-10q0 -111 -54 -164t-169 -53h-318v182h199q38 0 50.5 8t12.5 31v2q0 23 -12.5 31t-50.5 8h-199v69l78 173h-119q-370 0 -370 362z" />
<glyph unicode="&#xc8;" horiz-adv-x="1314" vert-adv-y="2058" d="M178 0v1460h1036v-313h-667v-244h581v-313h-581v-277h667v-313h-1036zM254 1831l100 258l621 -246l-101 -258z" />
<glyph unicode="&#xc9;" horiz-adv-x="1314" vert-adv-y="2058" d="M178 0v1460h1036v-313h-667v-244h581v-313h-581v-277h667v-313h-1036zM418 1843l620 246l101 -258l-621 -246z" />
<glyph unicode="&#xca;" horiz-adv-x="1314" vert-adv-y="2058" d="M178 0v1460h1036v-313h-667v-244h581v-313h-581v-277h667v-313h-1036zM219 1872l483 192l486 -192l-101 -260l-382 164l-386 -164z" />
<glyph unicode="&#xcb;" horiz-adv-x="1314" vert-adv-y="2058" d="M178 0v1460h1036v-313h-667v-244h581v-313h-581v-277h667v-313h-1036zM252 1798v33q0 82 42.5 111.5t145.5 29.5h4q104 0 147.5 -29.5t43.5 -111.5v-33q0 -82 -43.5 -111.5t-147.5 -29.5h-4q-103 0 -145.5 29.5t-42.5 111.5zM756 1798v33q0 82 43 111.5t147 29.5h4 q104 0 146.5 -29.5t42.5 -111.5v-33q0 -82 -42.5 -111.5t-146.5 -29.5h-4q-104 0 -147 29.5t-43 111.5z" />
<glyph unicode="&#xcc;" horiz-adv-x="724" vert-adv-y="2058" d="M-80 1831l100 258l621 -246l-100 -258zM178 0v1460h369v-1460h-369z" />
<glyph unicode="&#xcd;" horiz-adv-x="724" vert-adv-y="2058" d="M84 1843l621 246l100 -258l-621 -246zM178 0v1460h369v-1460h-369z" />
<glyph unicode="&#xce;" horiz-adv-x="724" vert-adv-y="2058" d="M-115 1872l484 192l485 -192l-100 -260l-383 164l-385 -164zM178 0v1460h369v-1460h-369z" />
<glyph unicode="&#xcf;" horiz-adv-x="724" vert-adv-y="2058" d="M-82 1798v33q0 82 42.5 111.5t145.5 29.5h5q104 0 147 -29.5t43 -111.5v-33q0 -82 -43 -111.5t-147 -29.5h-5q-103 0 -145.5 29.5t-42.5 111.5zM178 0v1460h369v-1460h-369zM422 1798v33q0 82 43 111.5t147 29.5h4q104 0 146.5 -29.5t42.5 -111.5v-33q0 -82 -42.5 -111.5 t-146.5 -29.5h-4q-104 0 -147 29.5t-43 111.5z" />
<glyph unicode="&#xd0;" horiz-adv-x="1501" vert-adv-y="2058" d="M45 573v316h133v571h793q372 0 372 -362v-736q0 -362 -372 -362h-793v573h-133zM547 313h313q64 0 89.5 24.5t25.5 84.5v616q0 61 -25 85t-90 24h-313v-258h233v-316h-233v-260z" />
<glyph unicode="&#xd1;" horiz-adv-x="1597" vert-adv-y="2058" d="M174 0v1460h356l525 -850v850h368v-1460h-358l-522 850v-850h-369zM422 1681v279q122 41 190 41q50 0 188.5 -47t188.5 -47q51 0 191 41v-279q-122 -41 -191 -41q-50 0 -189 47t-188 47q-68 0 -190 -41z" />
<glyph unicode="&#xd2;" horiz-adv-x="1517" vert-adv-y="2058" d="M158 342v776q0 363 370 363h461q371 0 371 -363v-776q0 -362 -371 -362h-461q-370 0 -370 362zM317 1831l101 258l620 -246l-100 -258zM526 401q0 -60 25 -84t88 -24h240q63 0 87.5 24t24.5 84v658q0 61 -24.5 84.5t-87.5 23.5h-240q-63 0 -88 -23.5t-25 -84.5v-658z" />
<glyph unicode="&#xd3;" horiz-adv-x="1517" vert-adv-y="2058" d="M158 342v776q0 363 370 363h461q371 0 371 -363v-776q0 -362 -371 -362h-461q-370 0 -370 362zM481 1843l621 246l100 -258l-620 -246zM526 401q0 -60 25 -84t88 -24h240q63 0 87.5 24t24.5 84v658q0 61 -24.5 84.5t-87.5 23.5h-240q-63 0 -88 -23.5t-25 -84.5v-658z" />
<glyph unicode="&#xd4;" horiz-adv-x="1517" vert-adv-y="2058" d="M158 342v776q0 363 370 363h461q371 0 371 -363v-776q0 -362 -371 -362h-461q-370 0 -370 362zM283 1872l483 192l485 -192l-100 -260l-383 164l-385 -164zM526 401q0 -60 25 -84t88 -24h240q63 0 87.5 24t24.5 84v658q0 61 -24.5 84.5t-87.5 23.5h-240q-63 0 -88 -23.5 t-25 -84.5v-658z" />
<glyph unicode="&#xd5;" horiz-adv-x="1517" vert-adv-y="2058" d="M158 342v776q0 363 370 363h461q371 0 371 -363v-776q0 -362 -371 -362h-461q-370 0 -370 362zM381 1681v279q122 41 190 41q50 0 188.5 -47t188.5 -47q51 0 191 41v-279q-122 -41 -191 -41q-50 0 -189 47t-188 47q-68 0 -190 -41zM526 401q0 -60 25 -84t88 -24h240 q63 0 87.5 24t24.5 84v658q0 61 -24.5 84.5t-87.5 23.5h-240q-63 0 -88 -23.5t-25 -84.5v-658z" />
<glyph unicode="&#xd6;" horiz-adv-x="1517" vert-adv-y="2058" d="M158 342v776q0 363 370 363h461q371 0 371 -363v-776q0 -362 -371 -362h-461q-370 0 -370 362zM315 1798v33q0 82 42.5 111.5t146.5 29.5h4q104 0 147 -29.5t43 -111.5v-33q0 -82 -43 -111.5t-147 -29.5h-4q-104 0 -146.5 29.5t-42.5 111.5zM526 401q0 -60 25 -84t88 -24 h240q63 0 87.5 24t24.5 84v658q0 61 -24.5 84.5t-87.5 23.5h-240q-63 0 -88 -23.5t-25 -84.5v-658zM819 1798v33q0 82 43.5 111.5t147.5 29.5h4q103 0 145.5 -29.5t42.5 -111.5v-33q0 -82 -42.5 -111.5t-145.5 -29.5h-4q-104 0 -147.5 29.5t-43.5 111.5z" />
<glyph unicode="&#xd7;" horiz-adv-x="1175" vert-adv-y="2058" d="M115 465l252 252l-252 252l221 221l252 -252l252 252l221 -221l-252 -252l252 -252l-221 -221l-252 252l-252 -252z" />
<glyph unicode="&#xd8;" horiz-adv-x="1517" vert-adv-y="2058" d="M158 342v776q0 363 370 363h461q40 0 58 -2l79 157h174l-100 -198q160 -83 160 -320v-776q0 -362 -371 -362h-461q-37 0 -53 2l-94 -189h-174l115 227q-164 83 -164 322zM526 434l367 733h-14h-240q-63 0 -88 -23.5t-25 -84.5v-625zM631 293h8h240q63 0 87.5 24t24.5 84 v615z" />
<glyph unicode="&#xd9;" horiz-adv-x="1531" vert-adv-y="2058" d="M178 342v1118h369v-1059q0 -60 24.5 -84t87.5 -24h218q63 0 87.5 24t24.5 84v1059h369v-1118q0 -362 -371 -362h-438q-371 0 -371 362zM326 1831l100 258l621 -246l-101 -258z" />
<glyph unicode="&#xda;" horiz-adv-x="1531" vert-adv-y="2058" d="M178 342v1118h369v-1059q0 -60 24.5 -84t87.5 -24h218q63 0 87.5 24t24.5 84v1059h369v-1118q0 -362 -371 -362h-438q-371 0 -371 362zM489 1843l621 246l100 -258l-620 -246z" />
<glyph unicode="&#xdb;" horiz-adv-x="1531" vert-adv-y="2058" d="M178 342v1118h369v-1059q0 -60 24.5 -84t87.5 -24h218q63 0 87.5 24t24.5 84v1059h369v-1118q0 -362 -371 -362h-438q-371 0 -371 362zM293 1872l483 192l486 -192l-101 -260l-383 164l-385 -164z" />
<glyph unicode="&#xdc;" horiz-adv-x="1531" vert-adv-y="2058" d="M178 342v1118h369v-1059q0 -60 24.5 -84t87.5 -24h218q63 0 87.5 24t24.5 84v1059h369v-1118q0 -362 -371 -362h-438q-371 0 -371 362zM324 1798v33q0 82 42.5 111.5t145.5 29.5h4q104 0 147.5 -29.5t43.5 -111.5v-33q0 -82 -43.5 -111.5t-147.5 -29.5h-4 q-103 0 -145.5 29.5t-42.5 111.5zM827 1798v33q0 82 43.5 111.5t147.5 29.5h4q103 0 145.5 -29.5t42.5 -111.5v-33q0 -82 -42.5 -111.5t-145.5 -29.5h-4q-104 0 -147.5 29.5t-43.5 111.5z" />
<glyph unicode="&#xdd;" horiz-adv-x="1570" vert-adv-y="2058" d="M78 1460h409l299 -561l297 561h410l-522 -962v-498h-371v498zM508 1843l620 246l101 -258l-621 -246z" />
<glyph unicode="&#xde;" horiz-adv-x="1427" vert-adv-y="2058" d="M178 0v1460h369v-239h420q370 0 370 -363v-227q0 -363 -370 -363h-420v-268h-369zM547 582h309q63 0 88 24t25 84v109q0 60 -25 84t-88 24h-309v-325z" />
<glyph unicode="&#xdf;" horiz-adv-x="1402" vert-adv-y="2058" d="M158 0v1288q0 164 78.5 239t248.5 75h478q161 0 236 -76t75 -236v-264q0 -123 -109 -192q68 -31 101.5 -82.5t33.5 -153.5v-285q0 -164 -78 -238.5t-249 -74.5h-373v279h252q56 0 77 19.5t21 72.5v221q0 53 -21 72.5t-77 19.5h-203v279h174q57 0 78 19t21 73v178 q0 53 -21 72.5t-78 19.5h-217q-56 0 -77 -20t-21 -74v-1231h-350z" />
<glyph unicode="&#xe0;" horiz-adv-x="1406" vert-adv-y="2058" d="M145 293v127q0 158 75.5 225.5t252.5 67.5h305q75 0 105 -21v131q0 54 -21.5 74.5t-77.5 20.5h-188q-56 0 -77 -20.5t-21 -74.5v-12l-348 31q-3 15 -3 39q0 164 78.5 238.5t249.5 74.5h430q171 0 250.5 -74.5t79.5 -238.5v-654l16 -227h-297l-20 76q-34 -51 -91.5 -73.5 t-154.5 -22.5h-215q-170 0 -249 75t-79 238zM258 1540l100 258l621 -246l-100 -258zM496 342q0 -50 20 -67t78 -17h190q58 0 78.5 17t20.5 67v96q-19 11 -70 11h-219q-58 0 -78 -17t-20 -67v-23z" />
<glyph unicode="&#xe1;" horiz-adv-x="1406" vert-adv-y="2058" d="M145 293v127q0 158 75.5 225.5t252.5 67.5h305q75 0 105 -21v131q0 54 -21.5 74.5t-77.5 20.5h-188q-56 0 -77 -20.5t-21 -74.5v-12l-348 31q-3 15 -3 39q0 164 78.5 238.5t249.5 74.5h430q171 0 250.5 -74.5t79.5 -238.5v-654l16 -227h-297l-20 76q-34 -51 -91.5 -73.5 t-154.5 -22.5h-215q-170 0 -249 75t-79 238zM422 1552l620 246l101 -258l-621 -246zM496 342q0 -50 20 -67t78 -17h190q58 0 78.5 17t20.5 67v96q-19 11 -70 11h-219q-58 0 -78 -17t-20 -67v-23z" />
<glyph unicode="&#xe2;" horiz-adv-x="1406" vert-adv-y="2058" d="M145 293v127q0 158 75.5 225.5t252.5 67.5h305q75 0 105 -21v131q0 54 -21.5 74.5t-77.5 20.5h-188q-56 0 -77 -20.5t-21 -74.5v-12l-348 31q-3 15 -3 39q0 164 78.5 238.5t249.5 74.5h430q171 0 250.5 -74.5t79.5 -238.5v-654l16 -227h-297l-20 76q-34 -51 -91.5 -73.5 t-154.5 -22.5h-215q-170 0 -249 75t-79 238zM225 1581l484 193l485 -193l-100 -260l-383 164l-385 -164zM496 342q0 -50 20 -67t78 -17h190q58 0 78.5 17t20.5 67v96q-19 11 -70 11h-219q-58 0 -78 -17t-20 -67v-23z" />
<glyph unicode="&#xe3;" horiz-adv-x="1406" vert-adv-y="2058" d="M145 293v127q0 158 75.5 225.5t252.5 67.5h305q75 0 105 -21v131q0 54 -21.5 74.5t-77.5 20.5h-188q-56 0 -77 -20.5t-21 -74.5v-12l-348 31q-3 15 -3 39q0 164 78.5 238.5t249.5 74.5h430q171 0 250.5 -74.5t79.5 -238.5v-654l16 -227h-297l-20 76q-34 -51 -91.5 -73.5 t-154.5 -22.5h-215q-170 0 -249 75t-79 238zM322 1391v278q122 41 190 41q50 0 188.5 -47t188.5 -47t190 41v-279q-122 -41 -190 -41q-50 0 -189 47.5t-188 47.5q-68 0 -190 -41zM496 342q0 -50 20 -67t78 -17h190q58 0 78.5 17t20.5 67v96q-19 11 -70 11h-219 q-58 0 -78 -17t-20 -67v-23z" />
<glyph unicode="&#xe4;" horiz-adv-x="1406" vert-adv-y="2058" d="M145 293v127q0 158 75.5 225.5t252.5 67.5h305q75 0 105 -21v131q0 54 -21.5 74.5t-77.5 20.5h-188q-56 0 -77 -20.5t-21 -74.5v-12l-348 31q-3 15 -3 39q0 164 78.5 238.5t249.5 74.5h430q171 0 250.5 -74.5t79.5 -238.5v-654l16 -227h-297l-20 76q-34 -51 -91.5 -73.5 t-154.5 -22.5h-215q-170 0 -249 75t-79 238zM256 1507v33q0 82 42.5 111.5t145.5 29.5h5q104 0 147 -29.5t43 -111.5v-33q0 -82 -43 -111.5t-147 -29.5h-5q-103 0 -145.5 29.5t-42.5 111.5zM496 342q0 -50 20 -67t78 -17h190q58 0 78.5 17t20.5 67v96q-19 11 -70 11h-219 q-58 0 -78 -17t-20 -67v-23zM760 1507v33q0 82 43 111.5t147 29.5h4q104 0 146.5 -29.5t42.5 -111.5v-33q0 -82 -42.5 -111.5t-146.5 -29.5h-4q-104 0 -147 29.5t-43 111.5z" />
<glyph unicode="&#xe5;" horiz-adv-x="1406" vert-adv-y="2058" d="M145 293v127q0 158 75.5 225.5t252.5 67.5h305q75 0 105 -21v131q0 54 -21.5 74.5t-77.5 20.5h-188q-56 0 -77 -20.5t-21 -74.5v-12l-348 31q-3 15 -3 39q0 164 78.5 238.5t249.5 74.5h430q171 0 250.5 -74.5t79.5 -238.5v-654l16 -227h-297l-20 76q-34 -51 -91.5 -73.5 t-154.5 -22.5h-215q-170 0 -249 75t-79 238zM393 1532v27q0 134 70.5 196t222.5 62h31q152 0 222.5 -62t70.5 -196v-27q0 -134 -70.5 -196t-222.5 -62h-31q-152 0 -222.5 62t-70.5 196zM496 342q0 -50 20 -67t78 -17h190q58 0 78.5 17t20.5 67v96q-19 11 -70 11h-219 q-58 0 -78 -17t-20 -67v-23zM606 1536q0 -47 19 -65.5t69 -18.5h15q49 0 68.5 18.5t19.5 65.5v18q0 47 -19.5 65.5t-68.5 18.5h-15q-50 0 -69 -18.5t-19 -65.5v-18z" />
<glyph unicode="&#xe6;" horiz-adv-x="2125" vert-adv-y="2058" d="M145 293v127q0 158 75.5 225.5t252.5 67.5h305q75 0 105 -21v131q0 54 -21.5 74.5t-77.5 20.5h-188q-56 0 -77 -20.5t-21 -74.5v-12l-348 31q-3 15 -3 39q0 164 78.5 238.5t249.5 74.5h430q93 0 154 -20q61 20 153 20h441q171 0 250 -74.5t79 -238.5v-400h-747v-131 q0 -53 21 -72.5t77 -19.5h199q57 0 78.5 19t21.5 73v12l348 -30q2 -10 2 -39q0 -163 -79.5 -238t-249.5 -75h-441q-197 0 -274 102q-32 -54 -91 -78t-159 -24h-215q-170 0 -249 75t-79 238zM496 342q0 -50 20 -67t78 -17h190q58 0 78.5 17t20.5 67v96q-19 11 -70 11h-219 q-58 0 -78 -17t-20 -67v-23zM1235 745h397v78q0 54 -21.5 74.5t-78.5 20.5h-199q-56 0 -77 -20.5t-21 -74.5v-78z" />
<glyph unicode="&#xe7;" horiz-adv-x="1353" vert-adv-y="2058" d="M145 293v588q0 164 79.5 238.5t250.5 74.5h422q171 0 250.5 -74.5t79.5 -238.5q0 -27 -2 -39l-348 -31v12q0 54 -22 74.5t-79 20.5h-180q-57 0 -78.5 -20.5t-21.5 -74.5v-473q0 -54 21.5 -73t78.5 -19h180q58 0 79.5 19.5t21.5 72.5v15l348 -33q2 -12 2 -39 q0 -162 -79.5 -237.5t-250.5 -75.5h-29l-26 -60q101 -6 147.5 -59t46.5 -158v-10q0 -111 -54 -164t-169 -53h-317v182h198q38 0 51 8t13 31v2q0 23 -13 31t-51 8h-198v69l77 173h-98q-171 0 -250.5 75.5t-79.5 237.5z" />
<glyph unicode="&#xe8;" horiz-adv-x="1384" vert-adv-y="2058" d="M143 293v588q0 164 79.5 238.5t250.5 74.5h440q171 0 249.5 -74.5t78.5 -238.5v-400h-747v-131q0 -54 21.5 -73t78.5 -19h199q56 0 77 19.5t21 72.5v12l348 -30q2 -10 2 -39q0 -163 -79 -238t-249 -75h-440q-171 0 -250.5 75.5t-79.5 237.5zM250 1544l100 258l621 -246 l-101 -258zM494 745h397v78q0 54 -21 74.5t-77 20.5h-199q-57 0 -78.5 -20.5t-21.5 -74.5v-78z" />
<glyph unicode="&#xe9;" horiz-adv-x="1384" vert-adv-y="2058" d="M143 293v588q0 164 79.5 238.5t250.5 74.5h440q171 0 249.5 -74.5t78.5 -238.5v-400h-747v-131q0 -54 21.5 -73t78.5 -19h199q56 0 77 19.5t21 72.5v12l348 -30q2 -10 2 -39q0 -163 -79 -238t-249 -75h-440q-171 0 -250.5 75.5t-79.5 237.5zM414 1556l620 246l101 -258 l-621 -246zM494 745h397v78q0 54 -21 74.5t-77 20.5h-199q-57 0 -78.5 -20.5t-21.5 -74.5v-78z" />
<glyph unicode="&#xea;" horiz-adv-x="1384" vert-adv-y="2058" d="M143 293v588q0 164 79.5 238.5t250.5 74.5h440q171 0 249.5 -74.5t78.5 -238.5v-400h-747v-131q0 -54 21.5 -73t78.5 -19h199q56 0 77 19.5t21 72.5v12l348 -30q2 -10 2 -39q0 -163 -79 -238t-249 -75h-440q-171 0 -250.5 75.5t-79.5 237.5zM215 1585l483 193l486 -193 l-101 -260l-383 164l-385 -164zM494 745h397v78q0 54 -21 74.5t-77 20.5h-199q-57 0 -78.5 -20.5t-21.5 -74.5v-78z" />
<glyph unicode="&#xeb;" horiz-adv-x="1384" vert-adv-y="2058" d="M143 293v588q0 164 79.5 238.5t250.5 74.5h440q171 0 249.5 -74.5t78.5 -238.5v-400h-747v-131q0 -54 21.5 -73t78.5 -19h199q56 0 77 19.5t21 72.5v12l348 -30q2 -10 2 -39q0 -163 -79 -238t-249 -75h-440q-171 0 -250.5 75.5t-79.5 237.5zM248 1511v33q0 82 42.5 112 t145.5 30h4q104 0 147.5 -30t43.5 -112v-33q0 -82 -43.5 -111.5t-147.5 -29.5h-4q-103 0 -145.5 29.5t-42.5 111.5zM494 745h397v78q0 54 -21 74.5t-77 20.5h-199q-57 0 -78.5 -20.5t-21.5 -74.5v-78zM752 1511v33q0 82 43 112t147 30h4q103 0 146 -30t43 -112v-33 q0 -82 -42.5 -111.5t-146.5 -29.5h-4q-104 0 -147 29.5t-43 111.5z" />
<glyph unicode="&#xec;" horiz-adv-x="1060" vert-adv-y="2058" d="M68 1544l100 258l620 -246l-100 -258zM113 0v279h270v618h-270v277h620v-895h271v-279h-891z" />
<glyph unicode="&#xed;" horiz-adv-x="1060" vert-adv-y="2058" d="M113 0v279h270v618h-270v277h620v-895h271v-279h-891zM231 1556l621 246l100 -258l-620 -246z" />
<glyph unicode="&#xee;" horiz-adv-x="1060" vert-adv-y="2058" d="M33 1585l483 193l485 -193l-100 -260l-383 164l-385 -164zM113 0v279h270v618h-270v277h620v-895h271v-279h-891z" />
<glyph unicode="&#xef;" horiz-adv-x="1060" vert-adv-y="2058" d="M66 1511v33q0 82 42.5 112t145.5 30h4q104 0 147.5 -30t43.5 -112v-33q0 -82 -43.5 -111.5t-147.5 -29.5h-4q-103 0 -145.5 29.5t-42.5 111.5zM113 0v279h270v618h-270v277h620v-895h271v-279h-891zM569 1511v33q0 82 43.5 112t147.5 30h4q103 0 145.5 -30t42.5 -112v-33 q0 -82 -42.5 -111.5t-145.5 -29.5h-4q-104 0 -147.5 29.5t-43.5 111.5z" />
<glyph unicode="&#xf0;" horiz-adv-x="1398" vert-adv-y="2058" d="M145 293v332q0 164 79.5 238.5t250.5 74.5h234q134 0 194 -51v157q0 51 -22 72.5t-82 32.5l-90 14l-58 -170l-221 31l59 176l-266 43v279l355 -60l47 140l221 -29l-49 -148q139 -26 224.5 -61t139 -95.5t73 -143.5t19.5 -212v-620q0 -163 -79.5 -238t-249.5 -75h-449 q-171 0 -250.5 75.5t-79.5 237.5zM496 350q0 -54 21.5 -73t78.5 -19h209q56 0 77 19.5t21 72.5v217q0 54 -21 74.5t-77 20.5h-209q-57 0 -78.5 -20.5t-21.5 -74.5v-217z" />
<glyph unicode="&#xf1;" horiz-adv-x="1404" vert-adv-y="2058" d="M158 1174h295l22 -78q31 52 84.5 75t149.5 23h219q171 0 250 -74.5t79 -238.5v-881h-350v823q0 54 -21.5 74.5t-78.5 20.5h-184q-56 0 -77.5 -20.5t-21.5 -74.5v-823h-350v946zM330 1395v278q122 41 190 41q50 0 188.5 -47t188.5 -47t190 41v-279q-122 -41 -190 -41 q-50 0 -189 47.5t-188 47.5q-68 0 -190 -41z" />
<glyph unicode="&#xf2;" horiz-adv-x="1400" vert-adv-y="2058" d="M145 293v588q0 164 79.5 238.5t250.5 74.5h453q171 0 249 -74.5t78 -238.5v-588q0 -163 -78.5 -238t-248.5 -75h-453q-171 0 -250.5 75.5t-79.5 237.5zM260 1544l100 258l621 -246l-100 -258zM496 350q0 -54 21.5 -73t78.5 -19h211q56 0 77 19.5t21 72.5v473 q0 54 -21 74.5t-77 20.5h-211q-57 0 -78.5 -20.5t-21.5 -74.5v-473z" />
<glyph unicode="&#xf3;" horiz-adv-x="1400" vert-adv-y="2058" d="M145 293v588q0 164 79.5 238.5t250.5 74.5h453q171 0 249 -74.5t78 -238.5v-588q0 -163 -78.5 -238t-248.5 -75h-453q-171 0 -250.5 75.5t-79.5 237.5zM424 1556l620 246l101 -258l-621 -246zM496 350q0 -54 21.5 -73t78.5 -19h211q56 0 77 19.5t21 72.5v473 q0 54 -21 74.5t-77 20.5h-211q-57 0 -78.5 -20.5t-21.5 -74.5v-473z" />
<glyph unicode="&#xf4;" horiz-adv-x="1400" vert-adv-y="2058" d="M145 293v588q0 164 79.5 238.5t250.5 74.5h453q171 0 249 -74.5t78 -238.5v-588q0 -163 -78.5 -238t-248.5 -75h-453q-171 0 -250.5 75.5t-79.5 237.5zM225 1585l484 193l485 -193l-100 -260l-383 164l-385 -164zM496 350q0 -54 21.5 -73t78.5 -19h211q56 0 77 19.5 t21 72.5v473q0 54 -21 74.5t-77 20.5h-211q-57 0 -78.5 -20.5t-21.5 -74.5v-473z" />
<glyph unicode="&#xf5;" horiz-adv-x="1400" vert-adv-y="2058" d="M145 293v588q0 164 79.5 238.5t250.5 74.5h453q171 0 249 -74.5t78 -238.5v-588q0 -163 -78.5 -238t-248.5 -75h-453q-171 0 -250.5 75.5t-79.5 237.5zM324 1395v278q122 41 190 41q50 0 188.5 -47t188.5 -47t190 41v-279q-122 -41 -190 -41q-50 0 -189 47.5t-188 47.5 q-68 0 -190 -41zM496 350q0 -54 21.5 -73t78.5 -19h211q56 0 77 19.5t21 72.5v473q0 54 -21 74.5t-77 20.5h-211q-57 0 -78.5 -20.5t-21.5 -74.5v-473z" />
<glyph unicode="&#xf6;" horiz-adv-x="1400" vert-adv-y="2058" d="M145 293v588q0 164 79.5 238.5t250.5 74.5h453q171 0 249 -74.5t78 -238.5v-588q0 -163 -78.5 -238t-248.5 -75h-453q-171 0 -250.5 75.5t-79.5 237.5zM258 1511v33q0 82 42.5 112t145.5 30h5q104 0 147 -30t43 -112v-33q0 -82 -43 -111.5t-147 -29.5h-5 q-103 0 -145.5 29.5t-42.5 111.5zM496 350q0 -54 21.5 -73t78.5 -19h211q56 0 77 19.5t21 72.5v473q0 54 -21 74.5t-77 20.5h-211q-57 0 -78.5 -20.5t-21.5 -74.5v-473zM762 1511v33q0 82 43 112t147 30h4q103 0 146 -30t43 -112v-33q0 -82 -42.5 -111.5t-146.5 -29.5h-4 q-104 0 -147 29.5t-43 111.5z" />
<glyph unicode="&#xf7;" vert-adv-y="2058" d="M115 547v313h1024v-313h-1024zM401 291v33q0 83 48.5 112t175.5 29h4q127 0 174 -29t47 -112v-33q0 -83 -47 -112t-174 -29h-4q-127 0 -175.5 29t-48.5 112zM401 1085v31q0 85 48.5 114.5t175.5 29.5h4q127 0 174 -29.5t47 -114.5v-31q0 -84 -47.5 -113.5t-173.5 -29.5 h-4q-127 0 -175.5 30t-48.5 113z" />
<glyph unicode="&#xf8;" horiz-adv-x="1400" vert-adv-y="2058" d="M145 293v588q0 164 79.5 238.5t250.5 74.5h443l92 186h174l-103 -206q89 -28 131.5 -99.5t42.5 -193.5v-588q0 -163 -78.5 -238t-248.5 -75h-445l-92 -187h-174l102 207q-89 29 -131.5 101t-42.5 192zM496 350l282 568h-182q-57 0 -78.5 -20.5t-21.5 -74.5v-473zM623 258 h184q56 0 77 19.5t21 72.5v473z" />
<glyph unicode="&#xf9;" horiz-adv-x="1392" vert-adv-y="2058" d="M147 293v881h349l2 -824q0 -53 21 -72.5t77 -19.5h174q56 0 77 19.5t21 72.5v824h351v-945l16 -229h-297l-25 90q-32 -59 -85.5 -84.5t-153.5 -25.5h-199q-170 0 -249 75t-79 238zM240 1544l100 258l621 -246l-101 -258z" />
<glyph unicode="&#xfa;" horiz-adv-x="1392" vert-adv-y="2058" d="M147 293v881h349l2 -824q0 -53 21 -72.5t77 -19.5h174q56 0 77 19.5t21 72.5v824h351v-945l16 -229h-297l-25 90q-32 -59 -85.5 -84.5t-153.5 -25.5h-199q-170 0 -249 75t-79 238zM403 1556l621 246l100 -258l-620 -246z" />
<glyph unicode="&#xfb;" horiz-adv-x="1392" vert-adv-y="2058" d="M147 293v881h349l2 -824q0 -53 21 -72.5t77 -19.5h174q56 0 77 19.5t21 72.5v824h351v-945l16 -229h-297l-25 90q-32 -59 -85.5 -84.5t-153.5 -25.5h-199q-170 0 -249 75t-79 238zM205 1585l483 193l486 -193l-101 -260l-383 164l-385 -164z" />
<glyph unicode="&#xfc;" horiz-adv-x="1392" vert-adv-y="2058" d="M147 293v881h349l2 -824q0 -53 21 -72.5t77 -19.5h174q56 0 77 19.5t21 72.5v824h351v-945l16 -229h-297l-25 90q-32 -59 -85.5 -84.5t-153.5 -25.5h-199q-170 0 -249 75t-79 238zM238 1511v33q0 82 42.5 112t145.5 30h4q104 0 147.5 -30t43.5 -112v-33 q0 -82 -43.5 -111.5t-147.5 -29.5h-4q-103 0 -145.5 29.5t-42.5 111.5zM741 1511v33q0 82 43.5 112t147.5 30h4q103 0 145.5 -30t42.5 -112v-33q0 -82 -42.5 -111.5t-145.5 -29.5h-4q-104 0 -147.5 29.5t-43.5 111.5z" />
<glyph unicode="&#xfd;" horiz-adv-x="1302" vert-adv-y="2058" d="M57 1174h361l235 -846l234 846h360l-413 -1362q-39 -131 -77.5 -195t-95 -89.5t-157.5 -25.5h-383v277h262q53 0 70 14t36 74l39 133h-116zM373 1556l620 246l101 -258l-621 -246z" />
<glyph unicode="&#xfe;" horiz-adv-x="1411" vert-adv-y="2058" d="M158 -477v2058h350v-438q60 51 194 51h234q171 0 250.5 -74.5t79.5 -238.5v-588q0 -162 -79.5 -237.5t-250.5 -75.5h-234q-134 0 -194 51v-508h-350zM508 350q0 -53 21 -72.5t77 -19.5h209q57 0 77.5 19t20.5 73v473q0 54 -20.5 74.5t-77.5 20.5h-209q-56 0 -77 -20.5 t-21 -74.5v-473z" />
<glyph unicode="&#xff;" horiz-adv-x="1302" vert-adv-y="2058" d="M57 1174h361l235 -846l234 846h360l-413 -1362q-39 -131 -77.5 -195t-95 -89.5t-157.5 -25.5h-383v277h262q53 0 70 14t36 74l39 133h-116zM207 1511v33q0 82 42.5 112t145.5 30h4q104 0 147.5 -30t43.5 -112v-33q0 -82 -43.5 -111.5t-147.5 -29.5h-4q-103 0 -145.5 29.5 t-42.5 111.5zM711 1511v33q0 82 43 112t147 30h4q103 0 146 -30t43 -112v-33q0 -82 -42.5 -111.5t-146.5 -29.5h-4q-104 0 -147 29.5t-43 111.5z" />
<glyph unicode="&#x152;" horiz-adv-x="2127" vert-adv-y="2058" d="M158 342v776q0 363 370 363h461q87 0 154 -21h887v-313h-670v-244h584v-313h-584v-277h670v-313h-887q-64 -20 -154 -20h-461q-370 0 -370 362zM526 401q0 -60 25 -84t88 -24h240q63 0 87.5 24t24.5 84v658q0 61 -24.5 84.5t-87.5 23.5h-240q-63 0 -88 -23.5t-25 -84.5 v-658z" />
<glyph unicode="&#x153;" horiz-adv-x="2146" vert-adv-y="2058" d="M145 293v588q0 164 79.5 238.5t250.5 74.5h453q92 0 153 -20q59 20 152 20h442q171 0 249.5 -74.5t78.5 -238.5v-400h-748v-131q0 -53 21.5 -72.5t79.5 -19.5h198q56 0 77.5 19.5t21.5 72.5v12l348 -30q2 -10 2 -39q0 -163 -79 -238t-249 -75h-442q-93 0 -152 20 q-61 -20 -153 -20h-453q-171 0 -250.5 75.5t-79.5 237.5zM496 350q0 -54 21.5 -73t78.5 -19h211q56 0 77 19.5t21 72.5v473q0 54 -21 74.5t-77 20.5h-211q-57 0 -78.5 -20.5t-21.5 -74.5v-473zM1255 745h398v78q0 54 -21.5 74.5t-77.5 20.5h-198q-57 0 -79 -20.5t-22 -74.5 v-78z" />
<glyph unicode="&#x178;" horiz-adv-x="1570" vert-adv-y="2058" d="M78 1460h409l299 -561l297 561h410l-522 -962v-498h-371v498zM342 1798v33q0 82 42.5 111.5t145.5 29.5h5q104 0 147 -29.5t43 -111.5v-33q0 -82 -43 -111.5t-147 -29.5h-5q-103 0 -145.5 29.5t-42.5 111.5zM846 1798v33q0 82 43 111.5t147 29.5h4q104 0 146.5 -29.5 t42.5 -111.5v-33q0 -82 -42.5 -111.5t-146.5 -29.5h-4q-104 0 -147 29.5t-43 111.5z" />
<glyph unicode="&#x2c6;" horiz-adv-x="1228" vert-adv-y="2058" d="M115 1585l483 193l485 -193l-100 -260l-383 164l-385 -164z" />
<glyph unicode="&#x2dc;" horiz-adv-x="1228" vert-adv-y="2058" d="M115 1395v278q122 41 190 41q50 0 188.5 -47t188.5 -47t190 41v-279q-122 -41 -190 -41q-50 0 -189 47.5t-188 47.5q-68 0 -190 -41z" />
<glyph unicode="&#x2000;" horiz-adv-x="1053" vert-adv-y="0" />
<glyph unicode="&#x2001;" horiz-adv-x="2107" vert-adv-y="0" />
<glyph unicode="&#x2002;" horiz-adv-x="1053" vert-adv-y="0" />
<glyph unicode="&#x2003;" horiz-adv-x="2107" vert-adv-y="0" />
<glyph unicode="&#x2004;" horiz-adv-x="702" vert-adv-y="0" />
<glyph unicode="&#x2005;" horiz-adv-x="526" vert-adv-y="0" />
<glyph unicode="&#x2006;" horiz-adv-x="351" vert-adv-y="0" />
<glyph unicode="&#x2007;" horiz-adv-x="351" vert-adv-y="0" />
<glyph unicode="&#x2008;" horiz-adv-x="263" vert-adv-y="0" />
<glyph unicode="&#x2009;" horiz-adv-x="421" vert-adv-y="0" />
<glyph unicode="&#x200a;" horiz-adv-x="117" vert-adv-y="0" />
<glyph unicode="&#x2010;" vert-adv-y="2058" d="M115 547v313h1024v-313h-1024z" />
<glyph unicode="&#x2011;" vert-adv-y="2058" d="M115 547v313h1024v-313h-1024z" />
<glyph unicode="&#x2012;" vert-adv-y="2058" d="M115 547v313h1024v-313h-1024z" />
<glyph unicode="&#x2013;" horiz-adv-x="1228" vert-adv-y="2058" d="M115 547v313h999v-313h-999z" />
<glyph unicode="&#x2014;" horiz-adv-x="1835" vert-adv-y="2058" d="M115 547v313h1605v-313h-1605z" />
<glyph unicode="&#x2018;" horiz-adv-x="690" vert-adv-y="2058" d="M115 834v28v2q0 211 86.5 357t279.5 260l129 -193q-79 -58 -125 -111.5t-67 -115.5q91 -9 124 -52t33 -147v-28q0 -121 -46 -162t-181 -41h-6q-135 0 -181 41t-46 162z" />
<glyph unicode="&#x2019;" horiz-adv-x="690" vert-adv-y="2058" d="M80 823q153 114 192 228q-91 9 -124 52.5t-33 147.5v29q0 120 46 160.5t181 40.5h6q135 0 181 -40.5t46 -160.5v-29v-2q0 -210 -87 -356t-279 -262z" />
<glyph unicode="&#x201a;" horiz-adv-x="690" vert-adv-y="2058" d="M80 -246q153 114 192 228q-91 9 -124 52t-33 148v27q0 121 46 162t181 41h6q135 0 181 -41t46 -162v-27v-2q0 -212 -87 -358t-279 -260z" />
<glyph unicode="&#x201c;" horiz-adv-x="1294" vert-adv-y="2058" d="M115 834v28v2q0 211 86.5 357t279.5 260l129 -193q-79 -58 -125 -111.5t-67 -115.5q91 -9 124 -52t33 -147v-28q0 -121 -46 -162t-181 -41h-6q-135 0 -181 41t-46 162zM719 834v28v2q0 210 87 356.5t279 260.5l129 -193q-79 -59 -125 -112.5t-67 -114.5q91 -9 124.5 -52 t33.5 -147v-28q0 -121 -46.5 -162t-181.5 -41h-6q-135 0 -181 41t-46 162z" />
<glyph unicode="&#x201d;" horiz-adv-x="1294" vert-adv-y="2058" d="M80 823q153 114 192 228q-91 9 -124 52.5t-33 147.5v29q0 120 46 160.5t181 40.5h6q135 0 181 -40.5t46 -160.5v-29v-2q0 -210 -87 -356t-279 -262zM684 823q80 59 126.5 113t66.5 115q-91 9 -124.5 52.5t-33.5 147.5v29q0 120 46 160.5t181 40.5h6q135 0 181.5 -40.5 t46.5 -160.5v-29v-2q0 -211 -86.5 -356.5t-280.5 -261.5z" />
<glyph unicode="&#x201e;" horiz-adv-x="1294" vert-adv-y="2058" d="M80 -246q153 114 192 228q-91 9 -124 52t-33 148v27q0 121 46 162t181 41h6q135 0 181 -41t46 -162v-27v-2q0 -212 -87 -358t-279 -260zM684 -246q79 58 125.5 112t67.5 116q-91 9 -124.5 52t-33.5 148v27q0 121 46 162t181 41h6q135 0 181.5 -41t46.5 -162v-27v-2 q0 -212 -86.5 -358t-280.5 -260z" />
<glyph unicode="&#x2022;" horiz-adv-x="860" vert-adv-y="2058" d="M115 649v39q0 165 63 221t250 56h4q187 0 250 -56t63 -221v-39q0 -164 -63.5 -219t-249.5 -55h-4q-186 0 -249.5 55t-63.5 219z" />
<glyph unicode="&#x2026;" horiz-adv-x="1988" vert-adv-y="2058" d="M115 182v27q0 121 46 162t181 41h6q135 0 181 -41t46 -162v-27q0 -121 -46 -161.5t-181 -40.5h-6q-135 0 -181 40.5t-46 161.5zM764 182v27q0 121 46 162t181 41h6q135 0 181.5 -41t46.5 -162v-27q0 -121 -46 -161.5t-182 -40.5h-6q-135 0 -181 40.5t-46 161.5zM1413 182 v27q0 121 46 162t181 41h7q135 0 181 -41t46 -162v-27q0 -121 -46 -161.5t-181 -40.5h-7q-135 0 -181 40.5t-46 161.5z" />
<glyph unicode="&#x202f;" horiz-adv-x="421" vert-adv-y="0" />
<glyph unicode="&#x2039;" horiz-adv-x="884" vert-adv-y="2058" d="M115 573l245 402h410l-250 -402l250 -401h-410z" />
<glyph unicode="&#x203a;" horiz-adv-x="870" vert-adv-y="2058" d="M100 172l250 401l-250 402h410l246 -402l-246 -401h-410z" />
<glyph unicode="&#x205f;" horiz-adv-x="526" vert-adv-y="0" />
<glyph unicode="&#x20ac;" horiz-adv-x="1638" vert-adv-y="2058" d="M78 446v236h229v100h-229v236h229v100q0 363 371 363h461q370 0 370 -361q0 -22 -2 -30l-366 -43v12q0 61 -25 84.5t-88 23.5h-240q-63 0 -87.5 -23.5t-24.5 -84.5v-41h356v-236h-356v-100h356v-236h-356v-45q0 -60 24.5 -84t87.5 -24h240q63 0 88 24t25 84v15l366 -45 q2 -8 2 -29q0 -362 -370 -362h-461q-371 0 -371 362v104h-229z" />
<glyph unicode="&#x2122;" horiz-adv-x="1832" vert-adv-y="2058" d="M115 1255v205h663v-205h-211v-471h-241v471h-211zM870 784v676h271l153 -233l154 233h270v-676h-241v351l-152 -230h-61l-154 232v-353h-240z" />
<glyph unicode="&#x25fc;" horiz-adv-x="1177" vert-adv-y="2355" d="M0 0v1178h1178v-1178h-1178z" />
</font>
</defs>
</svg>
