<?xml version="1.0" standalone="no"?>
<!DOCTYPE svg PUBLIC "-//W3C//DTD SVG 1.1//EN" "http://www.w3.org/Graphics/SVG/1.1/DTD/svg11.dtd" >
<svg xmlns="http://www.w3.org/2000/svg" xmlns:xlink="http://www.w3.org/1999/xlink" version="1.1">
<metadata></metadata>
<defs>
<font id="erbaumbook" horiz-adv-x="598" vert-adv-y="2048" >
<font-face units-per-em="2048" ascent="1638" descent="-410" />
<missing-glyph horiz-adv-x="573" />
<glyph horiz-adv-x="0" vert-adv-y="0" />
<glyph horiz-adv-x="682" />
<glyph unicode=" " horiz-adv-x="573" vert-adv-y="2019" />
<glyph unicode="!" vert-adv-y="2019" d="M164 98v21q0 69 27.5 94t105.5 25h4q78 0 106.5 -25t28.5 -94v-21q0 -69 -28.5 -93.5t-106.5 -24.5h-4q-78 0 -105.5 24.5t-27.5 93.5zM203 983v463h194v-463l-14 -532h-166z" />
<glyph unicode="&#x22;" horiz-adv-x="907" vert-adv-y="2019" d="M164 852v594h194l-34 -594h-160zM549 852v594h194l-32 -594h-162z" />
<glyph unicode="#" horiz-adv-x="1794" vert-adv-y="2019" d="M164 377l35 168h270l80 397h-270l34 168h271l69 336h189l-68 -336h395l70 336h188l-67 -336h270l-35 -168h-270l-82 -397h273l-33 -168h-273l-77 -377h-191l78 377h-395l-78 -377h-191l78 377h-270zM657 545h398l80 397h-396z" />
<glyph unicode="$" horiz-adv-x="1540" vert-adv-y="2019" d="M201 346v16l194 25v-14q0 -125 54.5 -175.5t193.5 -50.5h254q139 0 194.5 51t55.5 179v31q0 102 -45.5 143t-181.5 61l-365 54q-192 28 -269 102.5t-77 235.5v92q0 193 93.5 281.5t299.5 88.5h76v205h194v-205h66q206 0 300.5 -88t94.5 -278q0 -13 -2 -17l-192 -24v14 q0 126 -55 175.5t-195 49.5h-236q-139 0 -194.5 -50.5t-55.5 -178.5v-20q0 -104 44.5 -143.5t183.5 -61.5l366 -53q192 -28 268 -102.5t76 -237.5v-101q0 -193 -94.5 -281.5t-298.5 -88.5h-86v-205h-194v205h-74q-205 0 -299 87.5t-94 278.5z" />
<glyph unicode="%" horiz-adv-x="2488" vert-adv-y="2019" d="M164 748v487q0 117 60 174t184 57h307q123 0 183 -57t60 -174v-487q0 -118 -60 -175t-183 -57h-307q-125 0 -184.5 57t-59.5 175zM315 784q0 -80 34 -110.5t124 -30.5h180q87 0 119.5 30.5t32.5 110.5v414q0 79 -32.5 109t-119.5 30h-180q-91 0 -124.5 -29.5 t-33.5 -109.5v-414zM893 0l530 1446h172l-530 -1446h-172zM1530 211v487q0 118 59.5 175t184.5 57h307q123 0 183 -57t60 -175v-487q0 -117 -60 -174t-183 -57h-307q-124 0 -184 57t-60 174zM1681 248q0 -78 33.5 -108.5t120.5 -30.5h180q90 0 123 29.5t33 109.5v414 q0 80 -33 110.5t-123 30.5h-180q-88 0 -121 -30.5t-33 -110.5v-414z" />
<glyph unicode="&#x26;" horiz-adv-x="1628" vert-adv-y="2019" d="M193 350v78q0 134 43.5 210.5t146.5 115.5q-88 44 -126 110t-38 170v62q0 193 94.5 281.5t298.5 88.5h318q205 0 299 -87.5t94 -278.5v-17l-195 -24v14q0 126 -54 175.5t-193 49.5h-217q-140 0 -195 -50t-55 -179v-41q0 -120 52.5 -162.5t197.5 -42.5h862v-170h-193v-307 q0 -191 -94 -278.5t-299 -87.5h-354q-206 0 -299.5 88.5t-93.5 281.5zM387 377q0 -128 54.5 -179t193.5 -51h254q139 0 194.5 50.5t55.5 175.5v280h-504q-141 0 -194.5 -48t-53.5 -175v-53z" />
<glyph unicode="'" horiz-adv-x="520" vert-adv-y="2019" d="M164 852v594h194l-34 -594h-160z" />
<glyph unicode="(" horiz-adv-x="913" vert-adv-y="2019" d="M164 -113v1319q0 194 94 282.5t299 88.5h195v-168h-144q-141 0 -195.5 -50t-54.5 -179v-1266q0 -129 54.5 -179t195.5 -50h144v-168h-195q-206 0 -299.5 88.5t-93.5 281.5z" />
<glyph unicode=")" horiz-adv-x="913" vert-adv-y="2019" d="M164 -315h143q140 0 195 50t55 179v1266q0 129 -55 179t-195 50h-143v168h194q204 0 299 -89t95 -282v-1319q0 -193 -94.5 -281.5t-299.5 -88.5h-194v168z" />
<glyph unicode="*" horiz-adv-x="1169" vert-adv-y="2019" d="M164 1194l59 170l307 -145l-34 337h178l-35 -337l307 145l60 -170l-338 -82l243 -250l-143 -114l-182 294l-185 -294l-143 114l244 250z" />
<glyph unicode="+" horiz-adv-x="1351" vert-adv-y="2019" d="M164 573v168h426v428h172v-428h426v-168h-426v-428h-172v428h-426z" />
<glyph unicode="," vert-adv-y="2019" d="M115 -293q78 72 115 133.5t46 139.5q-65 3 -88.5 28t-23.5 90v21q0 69 27.5 94t105.5 25h4q78 0 106.5 -25t28.5 -94v-21q0 -172 -55 -281t-191 -214z" />
<glyph unicode="-" horiz-adv-x="1349" vert-adv-y="2019" d="M164 573v168h1024v-168h-1024z" />
<glyph unicode="." vert-adv-y="2019" d="M164 98v21q0 69 27.5 94t105.5 25h4q78 0 106.5 -25t28.5 -94v-21q0 -69 -28.5 -93.5t-106.5 -24.5h-4q-78 0 -105.5 24.5t-27.5 93.5z" />
<glyph unicode="/" horiz-adv-x="1069" vert-adv-y="2019" d="M164 0l545 1556h196l-547 -1556h-194z" />
<glyph unicode="0" horiz-adv-x="1579" vert-adv-y="2019" d="M221 350v746q0 193 93.5 281.5t299.5 88.5h351q206 0 299.5 -88.5t93.5 -281.5v-746q0 -193 -93.5 -281.5t-299.5 -88.5h-351q-206 0 -299.5 88.5t-93.5 281.5zM416 377q0 -128 54.5 -179t193.5 -51h251q139 0 193.5 51t54.5 179v692q0 129 -54 179t-194 50h-251 q-140 0 -194 -50t-54 -179v-692z" />
<glyph unicode="1" horiz-adv-x="1267" vert-adv-y="2019" d="M164 1163l438 283h186v-1278h363v-168h-940v168h383v1063l-340 -221z" />
<glyph unicode="2" horiz-adv-x="1501" vert-adv-y="2019" d="M176 0v360q0 78 13.5 127t53.5 89t104 67.5t173 56.5l344 95q83 23 126 39t70.5 41.5t34.5 55t7 83.5v55q0 129 -55 179t-195 50h-215q-140 0 -195 -49.5t-55 -175.5v-14l-194 24v17q0 191 94 278.5t299 87.5h317q206 0 299.5 -88.5t93.5 -281.5v-140q0 -77 -13.5 -124.5 t-55 -86.5t-106 -66t-177.5 -58l-346 -95q-103 -27 -149 -51.5t-62 -59t-16 -102.5v-145h942v-168h-1137z" />
<glyph unicode="3" horiz-adv-x="1437" vert-adv-y="2019" d="M172 346v16l195 25v-14q0 -125 54.5 -175.5t194.5 -50.5h252q139 0 194.5 51t55.5 179v53q0 127 -53.5 175t-196.5 48h-290v170h264q145 0 196.5 42.5t51.5 162.5v41q0 129 -54 179t-194 50h-217q-140 0 -195 -49.5t-55 -175.5v-14l-193 24q-2 4 -2 17q0 190 94.5 278 t298.5 88h318q206 0 299.5 -88.5t93.5 -281.5v-62q0 -104 -38 -170t-126 -110q103 -39 148 -116t45 -210v-78q0 -193 -93.5 -281.5t-299.5 -88.5h-355q-205 0 -299 87.5t-94 278.5z" />
<glyph unicode="4" horiz-adv-x="1454" vert-adv-y="2019" d="M102 301v160l324 985h201l-318 -977h588v553h195v-553h260v-168h-260v-301h-195v301h-795z" />
<glyph unicode="5" horiz-adv-x="1538" vert-adv-y="2019" d="M197 346v16l194 25v-14q0 -125 54.5 -175.5t193.5 -50.5h252q139 0 193.5 51t54.5 179v121q0 129 -54 179t-194 50h-238q-124 0 -179.5 -37.5t-67.5 -128.5l-189 27l72 858h983v-168h-803l-41 -463q70 82 248 82h264q205 0 299 -88.5t94 -282.5v-176q0 -193 -93.5 -281.5 t-299.5 -88.5h-350q-205 0 -299 87.5t-94 278.5z" />
<glyph unicode="6" horiz-adv-x="1579" vert-adv-y="2019" d="M221 350v746q0 193 93.5 281.5t299.5 88.5h344q206 0 301 -88t95 -278q0 -13 -2 -17l-193 -24v14q0 126 -55 175.5t-195 49.5h-245q-140 0 -194 -50t-54 -179v-238q37 51 98.5 74t161.5 23h289q205 0 299 -88.5t94 -280.5v-209q0 -193 -93.5 -281.5t-299.5 -88.5h-351 q-206 0 -299.5 88.5t-93.5 281.5zM416 379q0 -129 54 -179t194 -50h251q140 0 194 50t54 179v151q0 129 -54.5 179.5t-193.5 50.5h-251q-139 0 -193.5 -50.5t-54.5 -179.5v-151z" />
<glyph unicode="7" horiz-adv-x="1288" vert-adv-y="2019" d="M86 1278v168h1116v-160l-657 -1286h-217l653 1278h-895z" />
<glyph unicode="8" horiz-adv-x="1386" vert-adv-y="2019" d="M125 350v76q0 131 44 207t144 112q-89 42 -124 106.5t-35 178.5v66q0 191 91.5 280.5t289.5 89.5h317q198 0 290.5 -89.5t92.5 -280.5v-66q0 -114 -36 -178.5t-126 -106.5q102 -36 146.5 -112t44.5 -207v-76q0 -193 -94.5 -281.5t-299.5 -88.5h-352q-206 0 -299.5 88.5 t-93.5 281.5zM319 377q0 -128 55.5 -179t194.5 -51h250q139 0 194.5 51t55.5 179v49q0 126 -54.5 174.5t-195.5 48.5h-250q-142 0 -196 -48.5t-54 -174.5v-49zM348 1024q0 -120 52 -163.5t198 -43.5h193q145 0 197 43.5t52 163.5v45q0 129 -54.5 179t-194.5 50h-193 q-141 0 -195.5 -50t-54.5 -179v-45z" />
<glyph unicode="9" horiz-adv-x="1579" vert-adv-y="2019" d="M221 889v207q0 193 93.5 281.5t299.5 88.5h351q206 0 299.5 -88.5t93.5 -281.5v-746q0 -193 -93.5 -281.5t-299.5 -88.5h-344q-205 0 -299.5 87.5t-94.5 278.5v19l195 22v-12q0 -126 54.5 -175.5t193.5 -49.5h245q140 0 194 50t54 179v237q-37 -51 -99 -74.5t-161 -23.5 h-289q-205 0 -299 88.5t-94 282.5zM416 915q0 -128 54.5 -178.5t193.5 -50.5h251q139 0 193.5 50.5t54.5 178.5v154q0 129 -54 179t-194 50h-251q-140 0 -194 -50t-54 -179v-154z" />
<glyph unicode=":" vert-adv-y="2019" d="M164 98v21q0 69 27.5 94t105.5 25h4q78 0 106.5 -25t28.5 -94v-21q0 -69 -28.5 -93.5t-106.5 -24.5h-4q-78 0 -105.5 24.5t-27.5 93.5zM164 928v20q0 69 27.5 94t105.5 25h4q78 0 106.5 -25t28.5 -94v-20q0 -69 -28.5 -94t-106.5 -25h-4q-78 0 -105.5 25t-27.5 94z" />
<glyph unicode=";" vert-adv-y="2019" d="M115 -293q78 72 115 133.5t46 139.5q-65 3 -88.5 28t-23.5 90v21q0 69 27.5 94t105.5 25h4q78 0 106.5 -25t28.5 -94v-21q0 -172 -55 -281t-191 -214zM164 928v20q0 69 27.5 94t105.5 25h4q78 0 106.5 -25t28.5 -94v-20q0 -69 -28.5 -94t-106.5 -25h-4q-78 0 -105.5 25 t-27.5 94z" />
<glyph unicode="&#x3c;" horiz-adv-x="1306" vert-adv-y="2019" d="M164 559v207l981 348v-176l-778 -274l778 -277v-176z" />
<glyph unicode="=" horiz-adv-x="1349" vert-adv-y="2019" d="M164 340v168h1024v-168h-1024zM164 799v168h1024v-168h-1024z" />
<glyph unicode="&#x3e;" horiz-adv-x="1306" vert-adv-y="2019" d="M164 211v176l776 277l-776 274v176l981 -348v-207z" />
<glyph unicode="?" horiz-adv-x="1396" vert-adv-y="2019" d="M147 1083v17q0 191 94.5 278.5t299.5 87.5h317q204 0 298.5 -88.5t94.5 -281.5v-80q0 -193 -94.5 -282t-298.5 -89h-94l-6 -194h-168l-12 350h229q139 0 194.5 50.5t55.5 178.5v39q0 129 -55 179t-195 50h-217q-139 0 -193.5 -49.5t-54.5 -175.5v-14zM537 98v21 q0 69 28 94t107 25h4q78 0 105.5 -25t27.5 -94v-21q0 -69 -27.5 -93.5t-105.5 -24.5h-4q-79 0 -107 24.5t-28 93.5z" />
<glyph unicode="@" horiz-adv-x="2539" vert-adv-y="2019" d="M217 -131v1411q0 189 88 270.5t289 81.5h1352q202 0 290 -81.5t88 -270.5v-1028q0 -146 -66 -209t-218 -63h-189q-108 0 -171 31t-91 98q-33 -66 -95 -97.5t-167 -31.5h-266q-166 0 -247 76t-81 231v585q0 155 81 231.5t247 76.5h266q107 0 169 -32t95 -99l15 110h161 l-14 -215v-665q0 -86 32.5 -117t121.5 -31h78q89 0 121 31t32 117v974q0 129 -54.5 178.5t-195.5 49.5h-1239q-139 0 -192.5 -49.5t-53.5 -178.5v-1359q0 -128 53.5 -177t192.5 -49h1260v-151h-1315q-201 0 -289 81.5t-88 270.5zM920 317q0 -98 47 -142t151 -44h250 q104 0 151.5 44t47.5 142v525q0 98 -47.5 142t-151.5 44h-250q-104 0 -151 -44t-47 -142v-525z" />
<glyph unicode="A" horiz-adv-x="1521" vert-adv-y="2019" d="M102 0l519 1446h280l518 -1446h-198l-150 422h-620l-150 -422h-199zM512 590h498l-248 700z" />
<glyph unicode="B" horiz-adv-x="1464" vert-adv-y="2019" d="M238 0v1446h667q205 0 299 -88.5t94 -282.5v-41q0 -106 -36 -172t-121 -110q105 -37 151.5 -113t46.5 -209v-59q0 -194 -94 -282.5t-299 -88.5h-708zM432 168h463q139 0 194.5 50.5t55.5 178.5v33q0 129 -54.5 178t-195.5 49h-463v-489zM432 821h422q146 0 198 43t52 162 v23q0 128 -55.5 178.5t-194.5 50.5h-422v-457z" />
<glyph unicode="C" horiz-adv-x="1546" vert-adv-y="2019" d="M217 350v746q0 193 93.5 281.5t299.5 88.5h351q205 0 299 -87.5t94 -278.5v-17l-195 -24v14q0 126 -54.5 175.5t-193.5 49.5h-252q-139 0 -193 -50t-54 -179v-692q0 -128 54 -179t193 -51h252q139 0 193.5 50.5t54.5 175.5v14l195 -25v-16q0 -191 -94 -278.5t-299 -87.5 h-351q-206 0 -299.5 88.5t-93.5 281.5z" />
<glyph unicode="D" horiz-adv-x="1540" vert-adv-y="2019" d="M238 0v1446h694q204 0 298.5 -89t94.5 -282v-704q0 -193 -94.5 -282t-298.5 -89h-694zM432 168h449q139 0 194 50.5t55 178.5v652q0 129 -54.5 179t-194.5 50h-449v-1110z" />
<glyph unicode="E" horiz-adv-x="1374" vert-adv-y="2019" d="M238 0v1446h1007v-168h-813v-449h727v-167h-727v-494h813v-168h-1007z" />
<glyph unicode="F" horiz-adv-x="1374" vert-adv-y="2019" d="M238 0v1446h1007v-168h-813v-481h727v-168h-727v-629h-194z" />
<glyph unicode="G" horiz-adv-x="1570" vert-adv-y="2019" d="M217 350v746q0 193 93.5 281.5t299.5 88.5h351q205 0 299 -87.5t94 -278.5v-17l-195 -24v14q0 126 -54.5 175.5t-193.5 49.5h-252q-139 0 -193 -50t-54 -179v-692q0 -128 54 -179t193 -51h252q139 0 193.5 50.5t54.5 175.5v227h-440v168h635v-422q0 -191 -94 -278.5 t-299 -87.5h-351q-206 0 -299.5 88.5t-93.5 281.5z" />
<glyph unicode="H" horiz-adv-x="1593" vert-adv-y="2019" d="M238 0v1446h194v-623h729v623h195v-1446h-195v653h-729v-653h-194z" />
<glyph unicode="I" horiz-adv-x="667" vert-adv-y="2019" d="M238 0v1446h194v-1446h-194z" />
<glyph unicode="J" horiz-adv-x="1284" vert-adv-y="2019" d="M127 346v16l195 25v-14q0 -125 54.5 -175.5t194.5 -50.5h31q140 0 195 51t55 179v901h-500v168h695v-1096q0 -193 -94 -281.5t-300 -88.5h-133q-205 0 -299 87.5t-94 278.5z" />
<glyph unicode="K" horiz-adv-x="1515" vert-adv-y="2019" d="M238 0v1446h194v-623h213l490 623h229l-545 -705l596 -741h-233l-533 653h-217v-653h-194z" />
<glyph unicode="L" horiz-adv-x="1314" vert-adv-y="2019" d="M238 0v1446h194v-1278h780v-168h-974z" />
<glyph unicode="M" horiz-adv-x="1859" vert-adv-y="2019" d="M233 0v1446h195l500 -766l499 766h197v-1446h-194v1135l-461 -705h-82l-459 705v-1135h-195z" />
<glyph unicode="N" horiz-adv-x="1583" vert-adv-y="2019" d="M233 0v1446h195l729 -1133v1133h195v-1446h-197l-727 1130v-1130h-195z" />
<glyph unicode="O" horiz-adv-x="1570" vert-adv-y="2019" d="M217 350v746q0 193 93.5 281.5t299.5 88.5h351q206 0 299.5 -88.5t93.5 -281.5v-746q0 -193 -93.5 -281.5t-299.5 -88.5h-351q-206 0 -299.5 88.5t-93.5 281.5zM412 377q0 -128 54 -179t193 -51h252q139 0 193.5 51t54.5 179v692q0 129 -54 179t-194 50h-252 q-139 0 -193 -50t-54 -179v-692z" />
<glyph unicode="P" horiz-adv-x="1445" vert-adv-y="2019" d="M238 0v1446h690q206 0 300.5 -89t94.5 -282v-135q0 -193 -94.5 -282t-300.5 -89h-496v-569h-194zM432 737h447q140 0 194.5 50.5t54.5 179.5v82q0 129 -54.5 179t-194.5 50h-447v-541z" />
<glyph unicode="Q" horiz-adv-x="1570" vert-adv-y="2019" d="M217 350v746q0 193 93.5 281.5t299.5 88.5h351q206 0 299.5 -88.5t93.5 -281.5v-746q0 -134 -44.5 -217t-138.5 -121l183 -260h-226l-159 228h-8h-351q-206 0 -299.5 88.5t-93.5 281.5zM412 377q0 -128 54 -179t193 -51h252q139 0 193.5 51t54.5 179v692q0 129 -54 179 t-194 50h-252q-139 0 -193 -50t-54 -179v-692z" />
<glyph unicode="R" horiz-adv-x="1533" vert-adv-y="2019" d="M238 0v1446h694q204 0 298.5 -89t94.5 -282v-125q0 -186 -87 -273t-277 -93l471 -584h-232l-481 584h-287v-584h-194zM432 752h449q140 0 194.5 49t54.5 176v72q0 129 -54.5 179t-194.5 50h-449v-526z" />
<glyph unicode="S" horiz-adv-x="1540" vert-adv-y="2019" d="M201 346v16l194 25v-14q0 -125 54.5 -175.5t193.5 -50.5h254q139 0 194.5 51t55.5 179v31q0 102 -45.5 143t-181.5 61l-365 54q-192 28 -269 102.5t-77 235.5v92q0 193 93.5 281.5t299.5 88.5h336q206 0 300.5 -88t94.5 -278q0 -13 -2 -17l-192 -24v14q0 126 -55 175.5 t-195 49.5h-236q-139 0 -194.5 -50.5t-55.5 -178.5v-20q0 -104 44.5 -143.5t183.5 -61.5l366 -53q192 -28 268 -102.5t76 -237.5v-101q0 -193 -94.5 -281.5t-298.5 -88.5h-354q-205 0 -299 87.5t-94 278.5z" />
<glyph unicode="T" horiz-adv-x="1368" vert-adv-y="2019" d="M102 1278v168h1164v-168h-486v-1278h-194v1278h-484z" />
<glyph unicode="U" horiz-adv-x="1574" vert-adv-y="2019" d="M238 350v1096h194v-1069q0 -128 54.5 -179t193.5 -51h219q139 0 194.5 51t55.5 179v1069h194v-1096q0 -193 -94.5 -281.5t-300.5 -88.5h-317q-206 0 -299.5 88.5t-93.5 281.5z" />
<glyph unicode="V" horiz-adv-x="1509" vert-adv-y="2019" d="M102 1446h199l453 -1264l452 1264h201l-520 -1446h-264z" />
<glyph unicode="W" horiz-adv-x="2215" vert-adv-y="2019" d="M102 1446h197l340 -1264l338 1264h262l340 -1264l338 1264h197l-404 -1446h-264l-338 1251l-336 -1251h-266z" />
<glyph unicode="X" horiz-adv-x="1505" vert-adv-y="2019" d="M102 0l514 737l-485 709h229l394 -561l391 561h229l-485 -709l514 -737h-229l-420 594l-422 -594h-230z" />
<glyph unicode="Y" horiz-adv-x="1515" vert-adv-y="2019" d="M102 1446h217l441 -725l436 725h217l-557 -932v-514h-197v512z" />
<glyph unicode="Z" horiz-adv-x="1388" vert-adv-y="2019" d="M135 0v160l860 1118h-827v168h1077v-160l-860 -1118h868v-168h-1118z" />
<glyph unicode="[" horiz-adv-x="913" vert-adv-y="2019" d="M164 -463v2019h588v-167h-394v-1684h394v-168h-588z" />
<glyph unicode="\" horiz-adv-x="1073" vert-adv-y="2019" d="M168 1556h194l547 -1556h-196z" />
<glyph unicode="]" horiz-adv-x="913" vert-adv-y="2019" d="M164 -295h393v1684h-393v167h588v-2019h-588v168z" />
<glyph unicode="^" horiz-adv-x="1140" vert-adv-y="2019" d="M164 909l301 647h211l301 -647h-182l-224 484l-225 -484h-182z" />
<glyph unicode="_" horiz-adv-x="1349" vert-adv-y="2019" d="M164 -51h1024v-168h-1024v168z" />
<glyph unicode="`" horiz-adv-x="1228" vert-adv-y="2019" d="M164 1595l57 140l533 -244l-58 -141z" />
<glyph unicode="a" horiz-adv-x="1429" vert-adv-y="1144" d="M195 289v90q0 153 79 226t246 73h430q45 0 68 -10v174q0 98 -47.5 142t-151.5 44h-227q-105 0 -152 -43t-47 -139v-12l-186 16v22q0 155 80.5 231.5t244.5 76.5h347q164 0 244.5 -76.5t80.5 -231.5v-657l15 -215h-162l-13 94q-66 -114 -266 -114h-258q-164 0 -244.5 76 t-80.5 233zM381 313q0 -96 46.5 -139t152.5 -43h239q105 0 152 43t47 139v207q-18 6 -53 6h-385q-106 0 -152.5 -43t-46.5 -139v-31z" />
<glyph unicode="b" horiz-adv-x="1449" vert-adv-y="2019" d="M217 0l12 215v1341h187v-469q69 93 239 93h269q164 0 244.5 -76.5t80.5 -231.5v-585q0 -155 -80.5 -231t-244.5 -76h-269q-106 0 -168.5 32t-95.5 99l-14 -111h-160zM416 317q0 -98 47 -142t151 -44h250q104 0 151.5 44t47.5 142v525q0 98 -47.5 142t-151.5 44h-250 q-104 0 -151 -44t-47 -142v-525z" />
<glyph unicode="c" horiz-adv-x="1392" vert-adv-y="2019" d="M201 287v585q0 155 80.5 231.5t244.5 76.5h355q164 0 244.5 -76.5t80.5 -231.5v-22l-186 -16v12q0 95 -47.5 138.5t-151.5 43.5h-237q-104 0 -150.5 -44t-46.5 -142v-525q0 -98 46.5 -142t150.5 -44h237q104 0 151.5 43.5t47.5 138.5v13l186 -17v-22q0 -155 -80.5 -231 t-244.5 -76h-355q-164 0 -244.5 76t-80.5 231z" />
<glyph unicode="d" horiz-adv-x="1449" vert-adv-y="2019" d="M201 287v585q0 155 80.5 231.5t244.5 76.5h269q168 0 237 -90v466h187v-1341l14 -215h-162l-14 111q-33 -67 -95 -99t-167 -32h-269q-164 0 -244.5 76t-80.5 231zM387 317q0 -98 46.5 -142t150.5 -44h250q105 0 151.5 43.5t46.5 142.5v525q0 99 -46.5 142.5t-151.5 43.5 h-250q-104 0 -150.5 -44t-46.5 -142v-525z" />
<glyph unicode="e" horiz-adv-x="1404" vert-adv-y="2019" d="M199 289v583q0 155 80.5 231.5t244.5 76.5h363q164 0 244.5 -76.5t80.5 -231.5v-348h-827v-207q0 -98 46.5 -142t152.5 -44h243q104 0 151.5 43.5t47.5 138.5v13l186 -17v-20q0 -157 -80.5 -233t-244.5 -76h-363q-164 0 -244.5 76t-80.5 233zM385 676h641v166 q0 98 -47.5 142t-151.5 44h-243q-106 0 -152.5 -44t-46.5 -142v-166z" />
<glyph unicode="f" horiz-adv-x="1062" vert-adv-y="2019" d="M86 1008v151h293v111q0 155 81 231t247 76h233v-152h-176q-104 0 -151.5 -44t-47.5 -142v-80h375v-151h-375v-1008h-186v1008h-293z" />
<glyph unicode="g" horiz-adv-x="1449" vert-adv-y="1144" d="M201 -154l186 17v-13q0 -95 47 -138.5t150 -43.5h250q105 0 151.5 44t46.5 143v215q-69 -90 -237 -90h-269q-164 0 -244.5 76t-80.5 231v585q0 155 80.5 231.5t244.5 76.5h269q105 0 167 -32t95 -99l14 110h162l-14 -215v-1120q0 -155 -81 -231t-245 -76h-367 q-164 0 -244.5 76t-80.5 231v22zM387 317q0 -98 46.5 -142t150.5 -44h250q105 0 151.5 43.5t46.5 142.5v525q0 99 -46.5 142.5t-151.5 43.5h-250q-104 0 -150.5 -44t-46.5 -142v-525z" />
<glyph unicode="h" horiz-adv-x="1394" vert-adv-y="2019" d="M217 0v1556h186v-462q68 86 234 86h225q326 0 326 -308v-872h-187v842q0 98 -47 142t-151 44h-203q-104 0 -150.5 -44t-46.5 -142v-842h-186z" />
<glyph unicode="i" horiz-adv-x="1036" vert-adv-y="2019" d="M158 0v152h305v856h-305v151h491v-1007h305v-152h-796zM383 1520v20q0 53 28.5 72.5t102.5 19.5h4q74 0 102.5 -19.5t28.5 -72.5v-20q0 -54 -28.5 -73.5t-102.5 -19.5h-4q-74 0 -102.5 19.5t-28.5 73.5z" />
<glyph unicode="j" horiz-adv-x="776" vert-adv-y="2019" d="M-20 -332h202q104 0 151.5 44.5t47.5 142.5v1153h-277v151h463v-1335q0 -155 -80.5 -231t-246.5 -76h-260v151zM299 1520v20q0 53 28.5 72.5t102.5 19.5h4q74 0 102.5 -19.5t28.5 -72.5v-20q0 -54 -28.5 -73.5t-102.5 -19.5h-4q-74 0 -102.5 19.5t-28.5 73.5z" />
<glyph unicode="k" horiz-adv-x="1302" vert-adv-y="2019" d="M217 0v1556h186v-876h160l400 479h227l-455 -553l486 -606h-228l-428 528h-162v-528h-186z" />
<glyph unicode="l" horiz-adv-x="770" vert-adv-y="2019" d="M217 287v1269h186v-1239q0 -98 46.5 -142t150.5 -44h88v-151h-145q-164 0 -245 76t-81 231z" />
<glyph unicode="m" horiz-adv-x="1996" vert-adv-y="2019" d="M217 1159h160l14 -104q33 64 94.5 94.5t165.5 30.5h127q222 0 293 -142q32 72 95 107t173 35h125q166 0 247 -76.5t81 -231.5v-872h-186v842q0 98 -47.5 142t-151.5 44h-104q-104 0 -151.5 -44t-47.5 -142v-842h-186v842q0 98 -47.5 142t-151.5 44h-105q-104 0 -151 -44 t-47 -142v-842h-187v944z" />
<glyph unicode="n" horiz-adv-x="1400" vert-adv-y="2019" d="M217 1159h160l14 -104q33 64 94.5 94.5t165.5 30.5h217q326 0 326 -308v-872h-186v842q0 98 -47.5 142t-151.5 44h-195q-104 0 -151 -44t-47 -142v-842h-187v944z" />
<glyph unicode="o" horiz-adv-x="1431" vert-adv-y="2019" d="M201 287v585q0 155 80.5 231.5t244.5 76.5h379q326 0 326 -308v-585q0 -155 -81 -231t-245 -76h-379q-164 0 -244.5 76t-80.5 231zM387 317q0 -98 46.5 -142t150.5 -44h262q104 0 151 44t47 142v525q0 98 -47 142t-151 44h-262q-104 0 -150.5 -44t-46.5 -142v-525z" />
<glyph unicode="p" horiz-adv-x="1449" vert-adv-y="2019" d="M217 1159h160l14 -110q33 67 95.5 99t168.5 32h269q164 0 244.5 -76.5t80.5 -231.5v-585q0 -155 -80.5 -231t-244.5 -76h-269q-171 0 -239 92v-535h-187v1407zM416 317q0 -98 47 -142t151 -44h250q104 0 151.5 44t47.5 142v525q0 98 -47.5 142t-151.5 44h-250 q-104 0 -151 -44t-47 -142v-525z" />
<glyph unicode="q" horiz-adv-x="1449" vert-adv-y="2019" d="M201 287v585q0 155 80.5 231.5t244.5 76.5h269q105 0 167 -32t95 -99l14 110h162l-14 -215v-1407h-187v533q-69 -90 -237 -90h-269q-164 0 -244.5 76t-80.5 231zM387 317q0 -98 46.5 -142t150.5 -44h250q105 0 151.5 43.5t46.5 142.5v525q0 99 -46.5 142.5t-151.5 43.5 h-250q-104 0 -150.5 -44t-46.5 -142v-525z" />
<glyph unicode="r" horiz-adv-x="1398" vert-adv-y="2019" d="M145 0v152h306v792l-5 64h-301v151h453l14 -112q35 68 96.5 100.5t163.5 32.5h70q326 0 326 -308v-22l-187 -16v12q0 95 -47 138.5t-151 43.5h-47q-104 0 -151.5 -44t-47.5 -142v-690h432v-152h-924z" />
<glyph unicode="s" horiz-adv-x="1341" vert-adv-y="2019" d="M168 283v22l186 17v-13q0 -95 47.5 -138.5t151.5 -43.5h244q100 0 146 43t46 135v21q0 78 -42.5 109.5t-178.5 51.5l-285 41q-173 26 -239 85.5t-66 189.5v65q0 158 80 235t246 77h338q166 0 245.5 -74.5t79.5 -228.5v-23l-186 -16v12q0 95 -47.5 138.5t-151.5 43.5h-225 q-101 0 -148 -43t-47 -135v-18q0 -74 40 -103.5t165 -48.5l283 -41q185 -26 255.5 -87t70.5 -196v-69q0 -158 -81 -234.5t-247 -76.5h-354q-166 0 -246 74.5t-80 228.5z" />
<glyph unicode="t" horiz-adv-x="1122" vert-adv-y="2019" d="M82 1008v151h270v221h185v-221h444v-151h-444v-691q0 -98 47 -142t151 -44h246v-151h-303q-164 0 -245 76t-81 231v721h-270z" />
<glyph unicode="u" horiz-adv-x="1388" vert-adv-y="1144" d="M207 287v872h184l2 -842q0 -98 46.5 -142t150.5 -44h184q104 0 151.5 44t47.5 142v842h186v-944l15 -215h-162l-15 111q-33 -67 -95.5 -99t-168.5 -32h-201q-164 0 -244.5 76t-80.5 231z" />
<glyph unicode="v" horiz-adv-x="1236" vert-adv-y="2019" d="M82 1159h192l344 -999l345 999h192l-410 -1159h-251z" />
<glyph unicode="w" horiz-adv-x="1859" vert-adv-y="2019" d="M82 1159h186l271 -987l268 987h244l270 -987l268 987h189l-332 -1159h-250l-266 991l-268 -991h-250z" />
<glyph unicode="x" horiz-adv-x="1277" vert-adv-y="2019" d="M82 0l434 590l-424 569h221l326 -444l324 444h221l-422 -569l434 -590h-221l-336 461l-336 -461h-221z" />
<glyph unicode="y" horiz-adv-x="1236" vert-adv-y="2019" d="M82 1159h192l344 -993l345 993h192l-485 -1368q-32 -90 -57.5 -140t-64.5 -82t-86 -42t-126 -10h-213v151h158q97 0 132 26t72 126l64 180h-55z" />
<glyph unicode="z" horiz-adv-x="1245" vert-adv-y="2019" d="M129 0v139l737 869h-706v151h948v-139l-739 -868h749v-152h-989z" />
<glyph unicode="{" horiz-adv-x="1159" vert-adv-y="2019" d="M164 463v168h104q75 0 107.5 34t32.5 115v426q0 194 94 282.5t299 88.5h194v-168h-143q-141 0 -195.5 -50t-54.5 -179v-377q0 -99 -33.5 -161t-107.5 -95q74 -33 107.5 -94t33.5 -160v-379q0 -129 54.5 -179t195.5 -50h143v-168h-194q-206 0 -299.5 88.5t-93.5 281.5v426 q0 81 -32.5 115.5t-107.5 34.5h-104z" />
<glyph unicode="|" horiz-adv-x="520" vert-adv-y="2019" d="M164 -463v2019h194v-2019h-194z" />
<glyph unicode="}" horiz-adv-x="1159" vert-adv-y="2019" d="M164 -315h143q140 0 195 50t55 179v379q0 100 32.5 160.5t106.5 93.5q-74 33 -106.5 94.5t-32.5 161.5v377q0 129 -55 179t-195 50h-143v168h194q204 0 299 -89t95 -282v-426q0 -81 32 -115t107 -34h104v-168h-104q-75 0 -107 -34t-32 -116v-426q0 -193 -94.5 -281.5 t-299.5 -88.5h-194v168z" />
<glyph unicode="~" horiz-adv-x="1228" vert-adv-y="2019" d="M102 573l170 58q131 47 263 -17l151 -77q131 -67 270 -19l170 57v168l-170 -57q-137 -45 -262 19l-151 77q-63 32 -134 37t-137 -18l-170 -58v-170z" />
<glyph unicode="&#xa0;" horiz-adv-x="573" vert-adv-y="2019" />
<glyph unicode="&#xa1;" vert-adv-y="2019" d="M164 1040v21q0 69 27.5 94t105.5 25h4q78 0 106.5 -25t28.5 -94v-21q0 -69 -28.5 -93.5t-106.5 -24.5h-4q-78 0 -105.5 24.5t-27.5 93.5zM203 176l14 535h166l14 -535v-463h-194v463z" />
<glyph unicode="&#xa2;" horiz-adv-x="1392" vert-adv-y="2019" d="M201 287v585q0 155 80.5 231.5t244.5 76.5h74v204h195v-204h86q164 0 244.5 -76.5t80.5 -231.5v-22l-186 -16v12q0 95 -47.5 138.5t-151.5 43.5h-237q-104 0 -150.5 -44t-46.5 -142v-525q0 -98 46.5 -142t150.5 -44h237q104 0 151.5 43.5t47.5 138.5v13l186 -17v-22 q0 -155 -80.5 -231t-244.5 -76h-86v-205h-195v205h-74q-164 0 -244.5 76t-80.5 231z" />
<glyph unicode="&#xa3;" horiz-adv-x="1654" vert-adv-y="2019" d="M102 0v168h244v428h-244v168h244v332q0 193 94.5 281.5t298.5 88.5h318q206 0 300.5 -88t94.5 -278q0 -13 -2 -17l-193 -24v14q0 126 -55 175.5t-194 49.5h-217q-140 0 -195 -50t-55 -179v-305h612v-168h-612v-428h911v-168h-1350z" />
<glyph unicode="&#xa4;" horiz-adv-x="1540" vert-adv-y="2019" d="M139 221l189 180q-29 69 -29 158v232q0 93 29 155l-189 182l140 138l186 -193q70 25 160 25h288q92 0 162 -25l187 193l139 -138l-189 -182q29 -62 29 -155v-232q0 -89 -29 -158l189 -180l-139 -139l-187 192q-67 -24 -162 -24h-288q-93 0 -160 24l-186 -192zM485 588 q0 -97 47.5 -141t151.5 -44h172q104 0 151.5 44t47.5 141v172q0 98 -47.5 142t-151.5 44h-172q-104 0 -151.5 -44t-47.5 -142v-172z" />
<glyph unicode="&#xa5;" horiz-adv-x="1515" vert-adv-y="2019" d="M102 1446h217l441 -725l436 725h217l-493 -823h268v-134h-332v-163h332v-133h-332v-193h-197v193h-331v133h331v163h-331v134h266z" />
<glyph unicode="&#xa6;" horiz-adv-x="520" vert-adv-y="2019" d="M164 373h194v-836h-194v836zM164 721v835h194v-835h-194z" />
<glyph unicode="&#xa7;" horiz-adv-x="1351" vert-adv-y="2019" d="M164 668v96q0 178 94 248q-68 57 -68 188v66q0 158 80 234.5t246 76.5h338q166 0 246 -74.5t80 -228.5v-23l-187 -16v12q0 97 -47 140t-151 43h-226q-101 0 -146.5 -43t-45.5 -136v-18q0 -74 39 -103.5t164 -46.5l282 -43q186 -26 256 -86.5t70 -195.5v-96 q0 -176 -94 -246q67 -59 67 -191v-65q0 -158 -80.5 -235t-244.5 -77h-338q-166 0 -247 75t-81 229q0 16 2 22l184 16v-12q0 -95 48 -138.5t151 -43.5h227q101 0 147 42.5t46 135.5v19q0 74 -39.5 103t-165.5 48l-283 41q-184 26 -253.5 87t-69.5 196zM350 702q0 -79 42 -110 t177 -51l285 -41q76 9 111.5 51.5t35.5 124.5v47q0 79 -42 110.5t-179 51.5l-282 41q-77 -9 -112.5 -51t-35.5 -125v-48z" />
<glyph unicode="&#xa8;" horiz-adv-x="1228" vert-adv-y="2019" d="M164 1520v20q0 53 26 72.5t91 19.5h2q64 0 90 -19.5t26 -72.5v-20q0 -53 -26 -73t-90 -20h-2q-64 0 -90.5 20t-26.5 73zM612 1520v20q0 53 26 72.5t91 19.5h2q65 0 91 -19.5t26 -72.5v-20q0 -53 -26.5 -73t-90.5 -20h-2q-64 0 -90.5 20t-26.5 73z" />
<glyph unicode="&#xa9;" horiz-adv-x="1431" vert-adv-y="2019" d="M164 1024q0 245 153.5 399t399.5 154q245 0 399 -154.5t154 -398.5t-154 -398.5t-399 -154.5q-246 0 -399.5 154t-153.5 399zM248 1024q0 -212 130 -343.5t339 -131.5t339 131.5t130 343.5t-130 343.5t-339 131.5t-339 -131.5t-130 -343.5zM469 881v286q0 154 162 154 h174q77 0 119.5 -40.5t42.5 -113.5v-10l-103 -10v10q0 78 -92 78h-108q-55 0 -75 -18t-20 -68v-250q0 -50 20 -68t75 -18h108q92 0 92 78v10l103 -10v-10q0 -73 -42.5 -113.5t-119.5 -40.5h-174q-162 0 -162 154z" />
<glyph unicode="&#xab;" horiz-adv-x="1206" vert-adv-y="2019" d="M164 582l242 393h215l-244 -393l244 -396h-215zM586 582l241 393h217l-243 -393l243 -396h-217z" />
<glyph unicode="&#xac;" horiz-adv-x="1349" vert-adv-y="2019" d="M164 645v168h1024v-420h-207v252h-817z" />
<glyph unicode="&#xad;" horiz-adv-x="1349" vert-adv-y="2019" d="M164 573v168h1024v-168h-1024z" />
<glyph unicode="&#xae;" horiz-adv-x="1431" vert-adv-y="2019" d="M164 1024q0 245 153.5 399t399.5 154q245 0 399 -154.5t154 -398.5t-154 -398.5t-399 -154.5q-246 0 -399.5 154t-153.5 399zM248 1024q0 -212 130 -343.5t339 -131.5t339 131.5t130 343.5t-130 343.5t-339 131.5t-339 -131.5t-130 -343.5zM500 750v557h295 q157 0 157 -146v-51q0 -125 -112 -143l166 -217h-123l-162 213h-121v-213h-100zM600 1049h156q54 0 74 18t20 66v2q0 51 -20 69.5t-74 18.5h-156v-174z" />
<glyph unicode="&#xaf;" horiz-adv-x="1228" vert-adv-y="2019" d="M164 1464v152h713v-152h-713z" />
<glyph unicode="&#xb0;" horiz-adv-x="948" vert-adv-y="2019" d="M164 1280v31q0 138 70.5 202t222.5 64h35q152 0 222 -64t70 -202v-31q0 -138 -70 -202t-222 -64h-35q-152 0 -222.5 64t-70.5 202zM301 1286q0 -87 35.5 -120t128.5 -33h16q94 0 130 33t36 120v19q0 87 -36 120t-130 33h-16q-93 0 -128.5 -33t-35.5 -120v-19z" />
<glyph unicode="&#xb1;" horiz-adv-x="1351" vert-adv-y="2019" d="M164 178v168h1024v-168h-1024zM164 735v168h426v266h172v-266h426v-168h-426v-268h-172v268h-426z" />
<glyph unicode="&#xb2;" horiz-adv-x="1122" vert-adv-y="2019" d="M164 686v236q0 95 44 137.5t177 77.5l252 69q106 27 133 48t27 73v19q0 82 -33.5 112.5t-122.5 30.5h-162q-89 0 -122 -30.5t-33 -112.5v-9l-152 17q-2 6 -2 30q0 117 59.5 174.5t182.5 57.5h295q124 0 183.5 -57.5t59.5 -176.5v-86q0 -99 -49 -140.5t-215 -86.5 l-219 -59q-80 -22 -102.5 -44.5t-22.5 -82.5v-68h619v-129h-797z" />
<glyph unicode="&#xb3;" horiz-adv-x="1122" vert-adv-y="2019" d="M164 897v29l151 18v-10q0 -79 34 -109t124 -30h176q89 0 122.5 31.5t33.5 111.5v6q0 80 -33.5 109.5t-124.5 29.5h-184v129h166q93 0 125 25t32 100v9q0 82 -33.5 112.5t-123.5 30.5h-150q-89 0 -123 -30t-34 -109v-13l-152 19q-2 6 -2 30q0 116 60 173t184 57h284 q123 0 182.5 -57.5t59.5 -174.5v-53q0 -71 -22.5 -112t-81.5 -68q67 -24 95.5 -71t28.5 -128v-55q0 -117 -59.5 -174t-183.5 -57h-307q-124 0 -184 57t-60 174z" />
<glyph unicode="&#xb4;" horiz-adv-x="1228" vert-adv-y="2019" d="M164 1491l532 244l58 -140l-533 -245z" />
<glyph unicode="&#xb6;" horiz-adv-x="1490" vert-adv-y="2019" d="M164 967v163q0 165 79 240.5t251 75.5h835v-1909h-194v1741h-447v-1741h-194v1116q-172 0 -251 74.5t-79 239.5z" />
<glyph unicode="&#xb7;" vert-adv-y="2019" d="M164 590v20q0 69 27.5 94t105.5 25h4q78 0 106.5 -25t28.5 -94v-20q0 -69 -28.5 -94t-106.5 -25h-4q-78 0 -105.5 25t-27.5 94z" />
<glyph unicode="&#xb8;" horiz-adv-x="1228" vert-adv-y="2019" d="M164 -172l86 188l156 -16l-56 -119h62q115 0 165 -43t50 -139v-12q0 -95 -50.5 -139t-164.5 -44h-248v109h190q71 0 96 17t25 63v2q0 46 -25 63t-96 17h-190v53z" />
<glyph unicode="&#xb9;" horiz-adv-x="1017" vert-adv-y="2019" d="M164 1397l301 198h147v-780h242v-129h-649v129h254v612l-226 -147z" />
<glyph unicode="&#xbb;" horiz-adv-x="1198" vert-adv-y="2019" d="M156 186l243 396l-243 393h215l241 -393l-241 -396h-215zM578 186l243 396l-243 393h215l241 -393l-241 -396h-215z" />
<glyph unicode="&#xbc;" horiz-adv-x="2373" vert-adv-y="2019" d="M164 1151l301 199h147v-781h242v-129h-649v129h254v613l-226 -148zM788 0l533 1446h170l-530 -1446h-173zM1331 190v125l160 594h154l-160 -590h389v355h154l-3 -355h185v-129h-185v-190h-151v190h-543z" />
<glyph unicode="&#xbd;" horiz-adv-x="2383" vert-adv-y="2019" d="M164 1151l301 199h147v-781h242v-129h-649v129h254v613l-226 -148zM788 0l533 1446h170l-530 -1446h-173zM1425 0v236q0 95 44.5 137t177.5 78l251 69q106 27 133 48t27 73v18q0 82 -33 113t-122 31h-162q-89 0 -122.5 -31t-33.5 -113v-8l-151 17q-2 6 -2 30 q0 117 59 174.5t182 57.5h295q124 0 184 -57.5t60 -176.5v-86q0 -99 -49 -140.5t-215 -86.5l-219 -59q-80 -22 -102.5 -44.5t-22.5 -82.5v-68h618v-129h-797z" />
<glyph unicode="&#xbe;" horiz-adv-x="2478" vert-adv-y="2019" d="M164 651v29l151 18v-10q0 -79 34 -109t124 -30h176q89 0 122.5 31.5t33.5 111.5v6q0 80 -34 110t-124 30h-184v129h166q93 0 125 25t32 100v8q0 82 -33.5 112.5t-123.5 30.5h-150q-89 0 -123 -30t-34 -109v-12l-152 18q-2 6 -2 31q0 116 60 172.5t184 56.5h284 q123 0 182.5 -57t59.5 -174v-54q0 -71 -22.5 -112t-81.5 -68q67 -24 95.5 -71t28.5 -127v-56q0 -117 -59.5 -174t-183.5 -57h-307q-124 0 -184 57t-60 174zM893 0l532 1446h170l-530 -1446h-172zM1436 190v125l159 594h154l-160 -590h389v355h154l-2 -355h184v-129h-184 v-190h-152v190h-542z" />
<glyph unicode="&#xbf;" horiz-adv-x="1396" vert-adv-y="2019" d="M147 63v80q0 194 94.5 282.5t299.5 88.5h94l6 197h166l12 -353h-229q-139 0 -193.5 -50.5t-54.5 -178.5v-39q0 -128 54.5 -178.5t193.5 -50.5h217q139 0 194.5 50t55.5 175v14l192 -24q2 -4 2 -17q0 -190 -94.5 -278t-298.5 -88h-317q-206 0 -300 88.5t-94 281.5z M588 1040v21q0 69 28 94t107 25h2q79 0 107 -25t28 -94v-21q0 -69 -28 -93.5t-107 -24.5h-2q-79 0 -107 24.5t-28 93.5z" />
<glyph unicode="&#xc0;" horiz-adv-x="1521" vert-adv-y="2019" d="M102 0l519 1446h280l518 -1446h-198l-150 422h-620l-150 -422h-199zM385 1882l57 139l533 -243l-57 -142zM512 590h498l-248 700z" />
<glyph unicode="&#xc1;" horiz-adv-x="1521" vert-adv-y="2019" d="M102 0l519 1446h280l518 -1446h-198l-150 422h-620l-150 -422h-199zM512 590h498l-248 700zM549 1778l532 243l58 -139l-533 -246z" />
<glyph unicode="&#xc2;" horiz-adv-x="1521" vert-adv-y="2019" d="M102 0l519 1446h280l518 -1446h-198l-150 422h-620l-150 -422h-199zM311 1790l453 211l455 -211l-58 -139l-395 188l-397 -188zM512 590h498l-248 700z" />
<glyph unicode="&#xc3;" horiz-adv-x="1521" vert-adv-y="2019" d="M102 0l519 1446h280l518 -1446h-198l-150 422h-620l-150 -422h-199zM383 1751v154q122 41 190 41q64 0 190.5 -47.5t186.5 -47.5q47 0 191 43v-153q-122 -41 -191 -41q-64 0 -191 47t-186 47q-62 0 -190 -43zM512 590h498l-248 700z" />
<glyph unicode="&#xc4;" horiz-adv-x="1521" vert-adv-y="2019" d="M102 0l519 1446h280l518 -1446h-198l-150 422h-620l-150 -422h-199zM420 1806v21q0 53 26 72.5t91 19.5h2q64 0 90 -19.5t26 -72.5v-21q0 -53 -26 -72.5t-90 -19.5h-2q-65 0 -91 19.5t-26 72.5zM512 590h498l-248 700zM868 1806v21q0 53 26 72.5t91 19.5h2q65 0 91 -19.5 t26 -72.5v-21q0 -53 -26 -72.5t-91 -19.5h-2q-65 0 -91 19.5t-26 72.5z" />
<glyph unicode="&#xc5;" horiz-adv-x="1521" vert-adv-y="2019" d="M102 0l519 1446h280l518 -1446h-198l-150 422h-620l-150 -422h-199zM489 1812v27q0 123 62.5 179.5t196.5 56.5h28q134 0 196 -56.5t62 -179.5v-27q0 -122 -62.5 -178.5t-195.5 -56.5h-28q-134 0 -196.5 57t-62.5 178zM512 590h498l-248 700zM612 1819q0 -76 31.5 -106 t112.5 -30h12q81 0 112 30t31 106v14q0 76 -31 105.5t-112 29.5h-12q-81 0 -112.5 -30t-31.5 -105v-14z" />
<glyph unicode="&#xc6;" horiz-adv-x="2035" vert-adv-y="2019" d="M102 0l570 1446h1235v-168h-813v-449h727v-167h-727v-494h813v-168h-1008v422h-432l-166 -422h-199zM535 590h364v688h-94z" />
<glyph unicode="&#xc7;" horiz-adv-x="1546" vert-adv-y="2019" d="M217 350v746q0 193 93.5 281.5t299.5 88.5h351q205 0 299 -87.5t94 -278.5v-17l-195 -24v14q0 126 -54.5 175.5t-193.5 49.5h-252q-139 0 -193 -50t-54 -179v-692q0 -128 54 -179t193 -51h252q139 0 193.5 50.5t54.5 175.5v14l195 -25v-16q0 -191 -94 -278.5t-299 -87.5 h-93l-45 -99h62q115 0 165 -43t50 -139v-12q0 -95 -50.5 -139t-164.5 -44h-248v109h190q71 0 96 17t25 63v2q0 46 -25 63t-96 17h-190v53l70 152h-97q-206 0 -299.5 88.5t-93.5 281.5z" />
<glyph unicode="&#xc8;" horiz-adv-x="1374" vert-adv-y="2019" d="M238 0v1446h1007v-168h-813v-449h727v-167h-727v-494h813v-168h-1007zM365 1882l57 139l532 -243l-57 -142z" />
<glyph unicode="&#xc9;" horiz-adv-x="1374" vert-adv-y="2019" d="M238 0v1446h1007v-168h-813v-449h727v-167h-727v-494h813v-168h-1007zM528 1778l533 243l57 -139l-532 -246z" />
<glyph unicode="&#xca;" horiz-adv-x="1374" vert-adv-y="2019" d="M238 0v1446h1007v-168h-813v-449h727v-167h-727v-494h813v-168h-1007zM291 1790l452 211l455 -211l-57 -139l-396 188l-397 -188z" />
<glyph unicode="&#xcb;" horiz-adv-x="1374" vert-adv-y="2019" d="M238 0v1446h1007v-168h-813v-449h727v-167h-727v-494h813v-168h-1007zM397 1806v21q0 53 26 72.5t91 19.5h2q65 0 91 -19.5t26 -72.5v-21q0 -53 -26 -72.5t-91 -19.5h-2q-65 0 -91 19.5t-26 72.5zM846 1806v21q0 53 26 72.5t91 19.5h2q64 0 90 -19.5t26 -72.5v-21 q0 -53 -26 -72.5t-90 -19.5h-2q-65 0 -91 19.5t-26 72.5z" />
<glyph unicode="&#xcc;" horiz-adv-x="667" vert-adv-y="2019" d="M-43 1882l57 139l533 -243l-58 -142zM238 0v1446h194v-1446h-194z" />
<glyph unicode="&#xcd;" horiz-adv-x="667" vert-adv-y="2019" d="M121 1778l532 243l58 -139l-533 -246zM238 0v1446h194v-1446h-194z" />
<glyph unicode="&#xce;" horiz-adv-x="667" vert-adv-y="2019" d="M-115 1790l453 211l455 -211l-58 -139l-395 188l-397 -188zM238 0v1446h194v-1446h-194z" />
<glyph unicode="&#xcf;" horiz-adv-x="667" vert-adv-y="2019" d="M-8 1806v21q0 53 26 72.5t91 19.5h2q64 0 90 -19.5t26 -72.5v-21q0 -53 -26 -72.5t-90 -19.5h-2q-65 0 -91 19.5t-26 72.5zM238 0v1446h194v-1446h-194zM440 1806v21q0 53 26 72.5t91 19.5h2q65 0 91 -19.5t26 -72.5v-21q0 -53 -26 -72.5t-91 -19.5h-2q-65 0 -91 19.5 t-26 72.5z" />
<glyph unicode="&#xd0;" horiz-adv-x="1540" vert-adv-y="2019" d="M68 639v168h170v639h694q204 0 298.5 -89t94.5 -282v-704q0 -193 -94.5 -282t-298.5 -89h-694v639h-170zM432 168h449q139 0 194 50.5t55 178.5v652q0 129 -54.5 179t-194.5 50h-449v-471h311v-168h-311v-471z" />
<glyph unicode="&#xd1;" horiz-adv-x="1583" vert-adv-y="2019" d="M233 0v1446h195l729 -1133v1133h195v-1446h-197l-727 1130v-1130h-195zM414 1751v154q122 41 190 41q64 0 190.5 -47.5t186.5 -47.5q46 0 190 43v-153q-122 -41 -190 -41q-65 0 -192 47t-185 47q-62 0 -190 -43z" />
<glyph unicode="&#xd2;" horiz-adv-x="1570" vert-adv-y="2019" d="M217 350v746q0 193 93.5 281.5t299.5 88.5h351q206 0 299.5 -88.5t93.5 -281.5v-746q0 -193 -93.5 -281.5t-299.5 -88.5h-351q-206 0 -299.5 88.5t-93.5 281.5zM410 1882l57 139l532 -243l-57 -142zM412 377q0 -128 54 -179t193 -51h252q139 0 193.5 51t54.5 179v692 q0 129 -54 179t-194 50h-252q-139 0 -193 -50t-54 -179v-692z" />
<glyph unicode="&#xd3;" horiz-adv-x="1570" vert-adv-y="2019" d="M217 350v746q0 193 93.5 281.5t299.5 88.5h351q206 0 299.5 -88.5t93.5 -281.5v-746q0 -193 -93.5 -281.5t-299.5 -88.5h-351q-206 0 -299.5 88.5t-93.5 281.5zM412 377q0 -128 54 -179t193 -51h252q139 0 193.5 51t54.5 179v692q0 129 -54 179t-194 50h-252 q-139 0 -193 -50t-54 -179v-692zM573 1778l533 243l57 -139l-532 -246z" />
<glyph unicode="&#xd4;" horiz-adv-x="1570" vert-adv-y="2019" d="M217 350v746q0 193 93.5 281.5t299.5 88.5h351q206 0 299.5 -88.5t93.5 -281.5v-746q0 -193 -93.5 -281.5t-299.5 -88.5h-351q-206 0 -299.5 88.5t-93.5 281.5zM336 1790l452 211l455 -211l-57 -139l-395 188l-398 -188zM412 377q0 -128 54 -179t193 -51h252 q139 0 193.5 51t54.5 179v692q0 129 -54 179t-194 50h-252q-139 0 -193 -50t-54 -179v-692z" />
<glyph unicode="&#xd5;" horiz-adv-x="1570" vert-adv-y="2019" d="M217 350v746q0 193 93.5 281.5t299.5 88.5h351q206 0 299.5 -88.5t93.5 -281.5v-746q0 -193 -93.5 -281.5t-299.5 -88.5h-351q-206 0 -299.5 88.5t-93.5 281.5zM408 1751v154q122 41 190 41q64 0 190.5 -47.5t186.5 -47.5q46 0 190 43v-153q-122 -41 -190 -41 q-65 0 -192 47t-185 47q-62 0 -190 -43zM412 377q0 -128 54 -179t193 -51h252q139 0 193.5 51t54.5 179v692q0 129 -54 179t-194 50h-252q-139 0 -193 -50t-54 -179v-692z" />
<glyph unicode="&#xd6;" horiz-adv-x="1570" vert-adv-y="2019" d="M217 350v746q0 193 93.5 281.5t299.5 88.5h351q206 0 299.5 -88.5t93.5 -281.5v-746q0 -193 -93.5 -281.5t-299.5 -88.5h-351q-206 0 -299.5 88.5t-93.5 281.5zM412 377q0 -128 54 -179t193 -51h252q139 0 193.5 51t54.5 179v692q0 129 -54 179t-194 50h-252 q-139 0 -193 -50t-54 -179v-692zM442 1806v21q0 53 26 72.5t91 19.5h2q65 0 91 -19.5t26 -72.5v-21q0 -53 -26 -72.5t-91 -19.5h-2q-65 0 -91 19.5t-26 72.5zM891 1806v21q0 53 26 72.5t91 19.5h2q64 0 90 -19.5t26 -72.5v-21q0 -53 -26 -72.5t-90 -19.5h-2q-65 0 -91 19.5 t-26 72.5z" />
<glyph unicode="&#xd7;" horiz-adv-x="1171" vert-adv-y="2019" d="M164 422l303 303l-303 303l119 119l303 -303l303 303l119 -119l-303 -303l303 -303l-119 -119l-303 303l-303 -303z" />
<glyph unicode="&#xd8;" horiz-adv-x="1570" vert-adv-y="2019" d="M217 350v746q0 193 93.5 281.5t299.5 88.5h351q77 0 135 -12l92 184h108l-106 -213q164 -77 164 -329v-746q0 -193 -93.5 -281.5t-299.5 -88.5h-351q-76 0 -137 12l-98 -197h-107l113 225q-164 77 -164 330zM412 377q0 -131 57 -180l545 1093q-39 8 -103 8h-252 q-139 0 -193 -50t-54 -179v-692zM555 156q44 -9 104 -9h252q139 0 193.5 51t54.5 179v692q0 131 -57 182z" />
<glyph unicode="&#xd9;" horiz-adv-x="1574" vert-adv-y="2019" d="M238 350v1096h194v-1069q0 -128 54.5 -179t193.5 -51h219q139 0 194.5 51t55.5 179v1069h194v-1096q0 -193 -94.5 -281.5t-300.5 -88.5h-317q-206 0 -299.5 88.5t-93.5 281.5zM414 1882l57 139l533 -243l-58 -142z" />
<glyph unicode="&#xda;" horiz-adv-x="1574" vert-adv-y="2019" d="M238 350v1096h194v-1069q0 -128 54.5 -179t193.5 -51h219q139 0 194.5 51t55.5 179v1069h194v-1096q0 -193 -94.5 -281.5t-300.5 -88.5h-317q-206 0 -299.5 88.5t-93.5 281.5zM578 1778l532 243l57 -139l-532 -246z" />
<glyph unicode="&#xdb;" horiz-adv-x="1574" vert-adv-y="2019" d="M238 350v1096h194v-1069q0 -128 54.5 -179t193.5 -51h219q139 0 194.5 51t55.5 179v1069h194v-1096q0 -193 -94.5 -281.5t-300.5 -88.5h-317q-206 0 -299.5 88.5t-93.5 281.5zM340 1790l453 211l454 -211l-57 -139l-395 188l-398 -188z" />
<glyph unicode="&#xdc;" horiz-adv-x="1574" vert-adv-y="2019" d="M238 350v1096h194v-1069q0 -128 54.5 -179t193.5 -51h219q139 0 194.5 51t55.5 179v1069h194v-1096q0 -193 -94.5 -281.5t-300.5 -88.5h-317q-206 0 -299.5 88.5t-93.5 281.5zM446 1806v21q0 53 26 72.5t91 19.5h2q65 0 91 -19.5t26 -72.5v-21q0 -53 -26 -72.5t-91 -19.5 h-2q-65 0 -91 19.5t-26 72.5zM895 1806v21q0 53 26 72.5t91 19.5h2q64 0 90 -19.5t26 -72.5v-21q0 -53 -26 -72.5t-90 -19.5h-2q-65 0 -91 19.5t-26 72.5z" />
<glyph unicode="&#xdd;" horiz-adv-x="1515" vert-adv-y="2019" d="M102 1446h217l441 -725l436 725h217l-557 -932v-514h-197v512zM545 1778l532 243l58 -139l-533 -246z" />
<glyph unicode="&#xde;" horiz-adv-x="1445" vert-adv-y="2019" d="M238 0v1446h194v-260h496q206 0 300.5 -89t94.5 -282v-135q0 -193 -94.5 -282t-300.5 -89h-496v-309h-194zM432 477h447q139 0 194 51t55 179v81q0 129 -54.5 179.5t-194.5 50.5h-447v-541z" />
<glyph unicode="&#xdf;" horiz-adv-x="1423" vert-adv-y="2019" d="M217 0v1270q0 155 81 231t245 76h391q163 0 240 -72.5t77 -226.5v-236q0 -84 -33 -139.5t-100 -91.5q80 -31 120 -90.5t40 -165.5v-252q0 -155 -80 -229t-246 -74h-420v152h361q106 0 152.5 42t46.5 138v219q0 95 -46.5 136.5t-152.5 41.5h-268v152h241q107 0 153 41.5 t46 136.5v190q0 95 -46 135.5t-153 40.5h-266q-103 0 -150 -43t-47 -139v-1243h-186z" />
<glyph unicode="&#xe0;" horiz-adv-x="1429" vert-adv-y="2019" d="M195 289v90q0 153 79 226t246 73h430q45 0 68 -10v174q0 98 -47.5 142t-151.5 44h-227q-105 0 -152 -43t-47 -139v-12l-186 16v22q0 155 80.5 231.5t244.5 76.5h347q164 0 244.5 -76.5t80.5 -231.5v-657l15 -215h-162l-13 94q-66 -114 -266 -114h-258q-164 0 -244.5 76 t-80.5 233zM334 1593l57 140l533 -244l-58 -141zM381 313q0 -96 46.5 -139t152.5 -43h239q105 0 152 43t47 139v207q-18 6 -53 6h-385q-106 0 -152.5 -43t-46.5 -139v-31z" />
<glyph unicode="&#xe1;" horiz-adv-x="1429" vert-adv-y="2019" d="M195 289v90q0 153 79 226t246 73h430q45 0 68 -10v174q0 98 -47.5 142t-151.5 44h-227q-105 0 -152 -43t-47 -139v-12l-186 16v22q0 155 80.5 231.5t244.5 76.5h347q164 0 244.5 -76.5t80.5 -231.5v-657l15 -215h-162l-13 94q-66 -114 -266 -114h-258q-164 0 -244.5 76 t-80.5 233zM381 313q0 -96 46.5 -139t152.5 -43h239q105 0 152 43t47 139v207q-18 6 -53 6h-385q-106 0 -152.5 -43t-46.5 -139v-31zM498 1489l532 244l57 -140l-532 -245z" />
<glyph unicode="&#xe2;" horiz-adv-x="1429" vert-adv-y="2019" d="M195 289v90q0 153 79 226t246 73h430q45 0 68 -10v174q0 98 -47.5 142t-151.5 44h-227q-105 0 -152 -43t-47 -139v-12l-186 16v22q0 155 80.5 231.5t244.5 76.5h347q164 0 244.5 -76.5t80.5 -231.5v-657l15 -215h-162l-13 94q-66 -114 -266 -114h-258q-164 0 -244.5 76 t-80.5 233zM260 1501l453 211l454 -211l-57 -139l-395 188l-398 -188zM381 313q0 -96 46.5 -139t152.5 -43h239q105 0 152 43t47 139v207q-18 6 -53 6h-385q-106 0 -152.5 -43t-46.5 -139v-31z" />
<glyph unicode="&#xe3;" horiz-adv-x="1429" vert-adv-y="2019" d="M195 289v90q0 153 79 226t246 73h430q45 0 68 -10v174q0 98 -47.5 142t-151.5 44h-227q-105 0 -152 -43t-47 -139v-12l-186 16v22q0 155 80.5 231.5t244.5 76.5h347q164 0 244.5 -76.5t80.5 -231.5v-657l15 -215h-162l-13 94q-66 -114 -266 -114h-258q-164 0 -244.5 76 t-80.5 233zM332 1462v154q122 41 190 41q64 0 190.5 -47t186.5 -47q47 0 191 43v-154q-122 -41 -191 -41q-65 0 -192 47t-185 47q-62 0 -190 -43zM381 313q0 -96 46.5 -139t152.5 -43h239q105 0 152 43t47 139v207q-18 6 -53 6h-385q-106 0 -152.5 -43t-46.5 -139v-31z" />
<glyph unicode="&#xe4;" horiz-adv-x="1429" vert-adv-y="2019" d="M195 289v90q0 153 79 226t246 73h430q45 0 68 -10v174q0 98 -47.5 142t-151.5 44h-227q-105 0 -152 -43t-47 -139v-12l-186 16v22q0 155 80.5 231.5t244.5 76.5h347q164 0 244.5 -76.5t80.5 -231.5v-657l15 -215h-162l-13 94q-66 -114 -266 -114h-258q-164 0 -244.5 76 t-80.5 233zM367 1518v20q0 53 26 72.5t90 19.5h2q65 0 91 -19.5t26 -72.5v-20q0 -53 -26.5 -73t-90.5 -20h-2q-64 0 -90 20t-26 73zM381 313q0 -96 46.5 -139t152.5 -43h239q105 0 152 43t47 139v207q-18 6 -53 6h-385q-106 0 -152.5 -43t-46.5 -139v-31zM815 1518v20 q0 53 26 72.5t91 19.5h2q65 0 91 -19.5t26 -72.5v-20q0 -53 -26.5 -73t-90.5 -20h-2q-64 0 -90.5 20t-26.5 73z" />
<glyph unicode="&#xe5;" horiz-adv-x="1429" vert-adv-y="2019" d="M195 289v90q0 153 79 226t246 73h430q45 0 68 -10v174q0 98 -47.5 142t-151.5 44h-227q-105 0 -152 -43t-47 -139v-12l-186 16v22q0 155 80.5 231.5t244.5 76.5h347q164 0 244.5 -76.5t80.5 -231.5v-657l15 -215h-162l-13 94q-66 -114 -266 -114h-258q-164 0 -244.5 76 t-80.5 233zM381 313q0 -96 46.5 -139t152.5 -43h239q105 0 152 43t47 139v207q-18 6 -53 6h-385q-106 0 -152.5 -43t-46.5 -139v-31zM438 1524v26q0 123 62 179.5t196 56.5h29q134 0 196 -56.5t62 -179.5v-26q0 -122 -62.5 -179t-195.5 -57h-29q-133 0 -195.5 57t-62.5 179z M561 1530q0 -75 31.5 -105t112.5 -30h12q81 0 112 29.5t31 105.5v14q0 76 -31 105.5t-112 29.5h-12q-81 0 -112.5 -30t-31.5 -105v-14z" />
<glyph unicode="&#xe6;" horiz-adv-x="2226" vert-adv-y="2019" d="M195 289v90q0 153 79 226t246 73h430q45 0 68 -10v174q0 98 -47.5 142t-151.5 44h-227q-105 0 -152 -43t-47 -139v-12l-186 16v22q0 155 80.5 231.5t244.5 76.5h347q152 0 233 -66q78 66 231 66h365q326 0 326 -308v-348h-830v-207q0 -98 47.5 -142t151.5 -44h246 q103 0 150.5 43.5t47.5 138.5v13l185 -17q2 -6 2 -20q0 -156 -80.5 -232.5t-245.5 -76.5h-365q-216 0 -288 133q-62 -133 -277 -133h-258q-164 0 -244.5 76t-80.5 233zM381 313q0 -96 46.5 -139t152.5 -43h239q105 0 152 43t47 139v207q-18 6 -53 6h-385q-106 0 -152.5 -43 t-46.5 -139v-31zM1204 676h643v166q0 98 -47 142t-151 44h-246q-104 0 -151.5 -44t-47.5 -142v-166z" />
<glyph unicode="&#xe7;" horiz-adv-x="1392" vert-adv-y="2019" d="M201 287v585q0 155 80.5 231.5t244.5 76.5h355q164 0 244.5 -76.5t80.5 -231.5v-22l-186 -16v12q0 95 -47.5 138.5t-151.5 43.5h-237q-104 0 -150.5 -44t-46.5 -142v-525q0 -98 46.5 -142t150.5 -44h237q104 0 151.5 43.5t47.5 138.5v13l186 -17v-22q0 -155 -80.5 -231 t-244.5 -76h-97l-45 -99h62q115 0 165 -43t50 -139v-12q0 -95 -50.5 -139t-164.5 -44h-248v109h190q71 0 96 17t25 63v2q0 46 -25 63t-96 17h-190v53l70 152h-97q-164 0 -244.5 76t-80.5 231z" />
<glyph unicode="&#xe8;" horiz-adv-x="1404" vert-adv-y="2019" d="M199 289v583q0 155 80.5 231.5t244.5 76.5h363q164 0 244.5 -76.5t80.5 -231.5v-348h-827v-207q0 -98 46.5 -142t152.5 -44h243q104 0 151.5 43.5t47.5 138.5v13l186 -17v-20q0 -157 -80.5 -233t-244.5 -76h-363q-164 0 -244.5 76t-80.5 233zM328 1595l57 140l533 -244 l-58 -141zM385 676h641v166q0 98 -47.5 142t-151.5 44h-243q-106 0 -152.5 -44t-46.5 -142v-166z" />
<glyph unicode="&#xe9;" horiz-adv-x="1404" vert-adv-y="2019" d="M199 289v583q0 155 80.5 231.5t244.5 76.5h363q164 0 244.5 -76.5t80.5 -231.5v-348h-827v-207q0 -98 46.5 -142t152.5 -44h243q104 0 151.5 43.5t47.5 138.5v13l186 -17v-20q0 -157 -80.5 -233t-244.5 -76h-363q-164 0 -244.5 76t-80.5 233zM385 676h641v166 q0 98 -47.5 142t-151.5 44h-243q-106 0 -152.5 -44t-46.5 -142v-166zM492 1491l532 244l57 -140l-532 -245z" />
<glyph unicode="&#xea;" horiz-adv-x="1404" vert-adv-y="2019" d="M199 289v583q0 155 80.5 231.5t244.5 76.5h363q164 0 244.5 -76.5t80.5 -231.5v-348h-827v-207q0 -98 46.5 -142t152.5 -44h243q104 0 151.5 43.5t47.5 138.5v13l186 -17v-20q0 -157 -80.5 -233t-244.5 -76h-363q-164 0 -244.5 76t-80.5 233zM256 1503l453 211l454 -211 l-57 -139l-395 188l-398 -188zM385 676h641v166q0 98 -47.5 142t-151.5 44h-243q-106 0 -152.5 -44t-46.5 -142v-166z" />
<glyph unicode="&#xeb;" horiz-adv-x="1404" vert-adv-y="2019" d="M199 289v583q0 155 80.5 231.5t244.5 76.5h363q164 0 244.5 -76.5t80.5 -231.5v-348h-827v-207q0 -98 46.5 -142t152.5 -44h243q104 0 151.5 43.5t47.5 138.5v13l186 -17v-20q0 -157 -80.5 -233t-244.5 -76h-363q-164 0 -244.5 76t-80.5 233zM362 1520v20q0 53 26 72.5 t91 19.5h2q65 0 91 -19.5t26 -72.5v-20q0 -53 -26.5 -73t-90.5 -20h-2q-64 0 -90.5 20t-26.5 73zM385 676h641v166q0 98 -47.5 142t-151.5 44h-243q-106 0 -152.5 -44t-46.5 -142v-166zM811 1520v20q0 53 26 72.5t91 19.5h2q65 0 91 -19.5t26 -72.5v-20q0 -53 -26.5 -73 t-90.5 -20h-2q-64 0 -90.5 20t-26.5 73z" />
<glyph unicode="&#xec;" horiz-adv-x="1036" vert-adv-y="2019" d="M139 1595l58 140l532 -244l-57 -141zM158 0v152h305v856h-305v151h491v-1007h305v-152h-796z" />
<glyph unicode="&#xed;" horiz-adv-x="1036" vert-adv-y="2019" d="M158 0v152h305v856h-305v151h491v-1007h305v-152h-796zM303 1491l533 244l57 -140l-533 -245z" />
<glyph unicode="&#xee;" horiz-adv-x="1036" vert-adv-y="2019" d="M68 1503l452 211l455 -211l-57 -139l-396 188l-397 -188zM158 0v152h305v856h-305v151h491v-1007h305v-152h-796z" />
<glyph unicode="&#xef;" horiz-adv-x="1036" vert-adv-y="2019" d="M158 0v152h305v856h-305v151h491v-1007h305v-152h-796zM174 1520v20q0 53 26 72.5t91 19.5h2q65 0 91 -19.5t26 -72.5v-20q0 -53 -26.5 -73t-90.5 -20h-2q-64 0 -90.5 20t-26.5 73zM623 1520v20q0 53 26 72.5t90 19.5h2q65 0 91 -19.5t26 -72.5v-20q0 -53 -26.5 -73 t-90.5 -20h-2q-64 0 -90 20t-26 73z" />
<glyph unicode="&#xf0;" horiz-adv-x="1419" vert-adv-y="2019" d="M201 287v313q0 155 80.5 231t244.5 76h269q168 0 237 -90v205q0 91 -44.5 132t-160.5 60l-86 15l-75 -223l-127 16l75 227l-352 60v151l402 -65l61 182l127 -16l-64 -187l21 -4q234 -38 322 -124.5t88 -282.5v-676q0 -155 -81 -231t-245 -76h-367q-164 0 -244.5 76 t-80.5 231zM387 317q0 -98 46.5 -142t150.5 -44h250q105 0 151.5 43.5t46.5 142.5v252q0 99 -46.5 143t-151.5 44h-250q-104 0 -150.5 -44.5t-46.5 -142.5v-252z" />
<glyph unicode="&#xf1;" horiz-adv-x="1400" vert-adv-y="2019" d="M217 1159h160l14 -104q33 64 94.5 94.5t165.5 30.5h217q326 0 326 -308v-872h-186v842q0 98 -47.5 142t-151.5 44h-195q-104 0 -151 -44t-47 -142v-842h-187v944zM328 1464v154q122 41 190 41q64 0 190.5 -47t186.5 -47q46 0 190 43v-154q-122 -41 -190 -41 q-64 0 -191 47t-186 47q-62 0 -190 -43z" />
<glyph unicode="&#xf2;" horiz-adv-x="1431" vert-adv-y="2019" d="M201 287v585q0 155 80.5 231.5t244.5 76.5h379q326 0 326 -308v-585q0 -155 -81 -231t-245 -76h-379q-164 0 -244.5 76t-80.5 231zM340 1595l57 140l533 -244l-58 -141zM387 317q0 -98 46.5 -142t150.5 -44h262q104 0 151 44t47 142v525q0 98 -47 142t-151 44h-262 q-104 0 -150.5 -44t-46.5 -142v-525z" />
<glyph unicode="&#xf3;" horiz-adv-x="1431" vert-adv-y="2019" d="M201 287v585q0 155 80.5 231.5t244.5 76.5h379q326 0 326 -308v-585q0 -155 -81 -231t-245 -76h-379q-164 0 -244.5 76t-80.5 231zM387 317q0 -98 46.5 -142t150.5 -44h262q104 0 151 44t47 142v525q0 98 -47 142t-151 44h-262q-104 0 -150.5 -44t-46.5 -142v-525z M504 1491l532 244l58 -140l-533 -245z" />
<glyph unicode="&#xf4;" horiz-adv-x="1431" vert-adv-y="2019" d="M201 287v585q0 155 80.5 231.5t244.5 76.5h379q326 0 326 -308v-585q0 -155 -81 -231t-245 -76h-379q-164 0 -244.5 76t-80.5 231zM266 1503l453 211l455 -211l-58 -139l-395 188l-397 -188zM387 317q0 -98 46.5 -142t150.5 -44h262q104 0 151 44t47 142v525 q0 98 -47 142t-151 44h-262q-104 0 -150.5 -44t-46.5 -142v-525z" />
<glyph unicode="&#xf5;" horiz-adv-x="1431" vert-adv-y="2019" d="M201 287v585q0 155 80.5 231.5t244.5 76.5h379q326 0 326 -308v-585q0 -155 -81 -231t-245 -76h-379q-164 0 -244.5 76t-80.5 231zM338 1464v154q122 41 190 41q64 0 190.5 -47t186.5 -47q47 0 191 43v-154q-122 -41 -191 -41q-65 0 -192 47t-185 47q-62 0 -190 -43z M387 317q0 -98 46.5 -142t150.5 -44h262q104 0 151 44t47 142v525q0 98 -47 142t-151 44h-262q-104 0 -150.5 -44t-46.5 -142v-525z" />
<glyph unicode="&#xf6;" horiz-adv-x="1431" vert-adv-y="2019" d="M201 287v585q0 155 80.5 231.5t244.5 76.5h379q326 0 326 -308v-585q0 -155 -81 -231t-245 -76h-379q-164 0 -244.5 76t-80.5 231zM373 1520v20q0 53 26 72.5t90 19.5h3q64 0 90 -19.5t26 -72.5v-20q0 -53 -26 -73t-90 -20h-3q-64 0 -90 20t-26 73zM387 317 q0 -98 46.5 -142t150.5 -44h262q104 0 151 44t47 142v525q0 98 -47 142t-151 44h-262q-104 0 -150.5 -44t-46.5 -142v-525zM821 1520v20q0 53 26 72.5t91 19.5h2q65 0 91 -19.5t26 -72.5v-20q0 -53 -26.5 -73t-90.5 -20h-2q-64 0 -90.5 20t-26.5 73z" />
<glyph unicode="&#xf7;" horiz-adv-x="1349" vert-adv-y="2019" d="M164 573v168h1024v-168h-1024zM543 289v22q0 52 28.5 72t102.5 20h4q74 0 102.5 -20t28.5 -72v-22q0 -52 -28.5 -71t-102.5 -19h-4q-74 0 -102.5 19t-28.5 71zM543 1004v22q0 52 28.5 72t102.5 20h4q74 0 102.5 -20t28.5 -72v-22q0 -52 -28.5 -71.5t-102.5 -19.5h-4 q-74 0 -102.5 19.5t-28.5 71.5z" />
<glyph unicode="&#xf8;" horiz-adv-x="1431" vert-adv-y="2019" d="M201 287v585q0 155 80.5 231.5t244.5 76.5h379q38 0 56 -2l94 188h106l-104 -209q174 -58 174 -285v-585q0 -155 -81 -231t-245 -76h-379q-39 0 -55 2l-94 -187h-109l105 207q-172 60 -172 285zM387 317q0 -112 64 -155l434 864q-12 2 -39 2h-262q-104 0 -150.5 -44 t-46.5 -142v-525zM545 133q12 -2 39 -2h262q104 0 151 44t47 142v525q0 115 -65 157z" />
<glyph unicode="&#xf9;" horiz-adv-x="1388" vert-adv-y="2019" d="M207 287v872h184l2 -842q0 -98 46.5 -142t150.5 -44h184q104 0 151.5 44t47.5 142v842h186v-944l15 -215h-162l-15 111q-33 -67 -95.5 -99t-168.5 -32h-201q-164 0 -244.5 76t-80.5 231zM305 1595l57 140l533 -244l-57 -141z" />
<glyph unicode="&#xfa;" horiz-adv-x="1388" vert-adv-y="2019" d="M207 287v872h184l2 -842q0 -98 46.5 -142t150.5 -44h184q104 0 151.5 44t47.5 142v842h186v-944l15 -215h-162l-15 111q-33 -67 -95.5 -99t-168.5 -32h-201q-164 0 -244.5 76t-80.5 231zM469 1491l532 244l58 -140l-533 -245z" />
<glyph unicode="&#xfb;" horiz-adv-x="1388" vert-adv-y="2019" d="M207 287v872h184l2 -842q0 -98 46.5 -142t150.5 -44h184q104 0 151.5 44t47.5 142v842h186v-944l15 -215h-162l-15 111q-33 -67 -95.5 -99t-168.5 -32h-201q-164 0 -244.5 76t-80.5 231zM231 1503l453 211l455 -211l-58 -139l-395 188l-397 -188z" />
<glyph unicode="&#xfc;" horiz-adv-x="1388" vert-adv-y="2019" d="M207 287v872h184l2 -842q0 -98 46.5 -142t150.5 -44h184q104 0 151.5 44t47.5 142v842h186v-944l15 -215h-162l-15 111q-33 -67 -95.5 -99t-168.5 -32h-201q-164 0 -244.5 76t-80.5 231zM338 1520v20q0 53 26 72.5t91 19.5h2q64 0 90 -19.5t26 -72.5v-20q0 -53 -26 -73 t-90 -20h-2q-64 0 -90.5 20t-26.5 73zM786 1520v20q0 53 26 72.5t91 19.5h2q65 0 91 -19.5t26 -72.5v-20q0 -53 -26.5 -73t-90.5 -20h-2q-64 0 -90.5 20t-26.5 73z" />
<glyph unicode="&#xfd;" horiz-adv-x="1236" vert-adv-y="2019" d="M82 1159h192l344 -993l345 993h192l-485 -1368q-32 -90 -57.5 -140t-64.5 -82t-86 -42t-126 -10h-213v151h158q97 0 132 26t72 126l64 180h-55zM408 1491l532 244l57 -140l-532 -245z" />
<glyph unicode="&#xfe;" horiz-adv-x="1435" vert-adv-y="2019" d="M217 -463v2019h186v-466q69 90 238 90h268q326 0 326 -308v-585q0 -155 -81 -231t-245 -76h-268q-169 0 -238 90v-533h-186zM403 317q0 -98 46.5 -142t150.5 -44h250q106 0 152.5 44t46.5 142v525q0 98 -46.5 142t-152.5 44h-250q-104 0 -150.5 -44t-46.5 -142v-525z" />
<glyph unicode="&#xff;" horiz-adv-x="1236" vert-adv-y="2019" d="M82 1159h192l344 -993l345 993h192l-485 -1368q-32 -90 -57.5 -140t-64.5 -82t-86 -42t-126 -10h-213v151h158q97 0 132 26t72 126l64 180h-55zM276 1520v20q0 53 26 72.5t91 19.5h2q65 0 91 -19.5t26 -72.5v-20q0 -53 -26.5 -73t-90.5 -20h-2q-64 0 -90.5 20t-26.5 73z M725 1520v20q0 53 26 72.5t91 19.5h2q65 0 91 -19.5t26 -72.5v-20q0 -53 -26.5 -73t-90.5 -20h-2q-64 0 -90.5 20t-26.5 73z" />
<glyph unicode="&#x152;" horiz-adv-x="2295" vert-adv-y="2019" d="M217 350v746q0 193 93.5 281.5t299.5 88.5h351q116 0 198 -28v8h1010v-168h-815v-449h729v-167h-729v-494h815v-168h-1010v8q-82 -28 -198 -28h-351q-206 0 -299.5 88.5t-93.5 281.5zM412 377q0 -128 54 -179t193 -51h252q139 0 193.5 51t54.5 179v692q0 129 -54 179 t-194 50h-252q-139 0 -193 -50t-54 -179v-692z" />
<glyph unicode="&#x153;" horiz-adv-x="2250" vert-adv-y="2019" d="M201 289v583q0 155 80.5 231.5t244.5 76.5h379q153 0 234 -66q78 66 231 66h365q164 0 244.5 -76.5t80.5 -231.5v-348h-829v-207q0 -98 47.5 -142t151.5 -44h245q103 0 151 43.5t48 138.5v13l184 -17q2 -6 2 -20q0 -157 -80.5 -233t-244.5 -76h-365q-154 0 -231 65 q-79 -65 -234 -65h-379q-164 0 -244.5 76t-80.5 233zM387 317q0 -98 46.5 -142t152.5 -44h260q104 0 151 44t47 142v525q0 98 -47 142t-151 44h-260q-106 0 -152.5 -44t-46.5 -142v-525zM1231 676h643v166q0 98 -47.5 142t-151.5 44h-245q-104 0 -151.5 -44t-47.5 -142v-166 z" />
<glyph unicode="&#x178;" horiz-adv-x="1515" vert-adv-y="2019" d="M102 1446h217l441 -725l436 725h217l-557 -932v-514h-197v512zM416 1806v21q0 53 26 72.5t90 19.5h3q64 0 90 -19.5t26 -72.5v-21q0 -53 -26 -72.5t-90 -19.5h-3q-64 0 -90 19.5t-26 72.5zM864 1806v21q0 53 26 72.5t91 19.5h2q65 0 91 -19.5t26 -72.5v-21 q0 -53 -26 -72.5t-91 -19.5h-2q-65 0 -91 19.5t-26 72.5z" />
<glyph unicode="&#x2c6;" horiz-adv-x="1228" vert-adv-y="2019" d="M164 1503l452 211l455 -211l-57 -139l-396 188l-397 -188z" />
<glyph unicode="&#x2dc;" horiz-adv-x="1228" vert-adv-y="2019" d="M164 1464v154q122 41 190 41q64 0 190.5 -47t186.5 -47q47 0 191 43v-154q-122 -41 -191 -41q-65 0 -192 47t-185 47q-62 0 -190 -43z" />
<glyph unicode="&#x2000;" horiz-adv-x="1037" vert-adv-y="0" />
<glyph unicode="&#x2001;" horiz-adv-x="2075" vert-adv-y="0" />
<glyph unicode="&#x2002;" horiz-adv-x="1037" vert-adv-y="0" />
<glyph unicode="&#x2003;" horiz-adv-x="2075" vert-adv-y="0" />
<glyph unicode="&#x2004;" horiz-adv-x="691" vert-adv-y="0" />
<glyph unicode="&#x2005;" horiz-adv-x="518" vert-adv-y="0" />
<glyph unicode="&#x2006;" horiz-adv-x="345" vert-adv-y="0" />
<glyph unicode="&#x2007;" horiz-adv-x="345" vert-adv-y="0" />
<glyph unicode="&#x2008;" horiz-adv-x="259" vert-adv-y="0" />
<glyph unicode="&#x2009;" horiz-adv-x="415" vert-adv-y="0" />
<glyph unicode="&#x200a;" horiz-adv-x="115" vert-adv-y="0" />
<glyph unicode="&#x2010;" horiz-adv-x="1349" vert-adv-y="2019" d="M164 573v168h1024v-168h-1024z" />
<glyph unicode="&#x2011;" horiz-adv-x="1349" vert-adv-y="2019" d="M164 573v168h1024v-168h-1024z" />
<glyph unicode="&#x2012;" horiz-adv-x="1349" vert-adv-y="2019" d="M164 573v168h1024v-168h-1024z" />
<glyph unicode="&#x2013;" horiz-adv-x="1228" vert-adv-y="2019" d="M164 573v168h901v-168h-901z" />
<glyph unicode="&#x2014;" horiz-adv-x="1884" vert-adv-y="2019" d="M164 573v168h1556v-168h-1556z" />
<glyph unicode="&#x2018;" vert-adv-y="2019" d="M164 950v21q0 172 54 281t190 214l77 -104q-79 -71 -115.5 -132t-45.5 -140q64 -3 88 -28.5t24 -90.5v-21q0 -69 -28.5 -94t-106.5 -25h-4q-78 0 -105.5 25t-27.5 94z" />
<glyph unicode="&#x2019;" vert-adv-y="2019" d="M115 936q78 72 115 133t46 139q-65 3 -88.5 28.5t-23.5 90.5v21q0 69 27.5 93.5t105.5 24.5h4q78 0 106.5 -24.5t28.5 -93.5v-21q0 -172 -55 -281.5t-191 -214.5z" />
<glyph unicode="&#x201a;" vert-adv-y="2019" d="M115 -293q78 72 115 133.5t46 139.5q-65 3 -88.5 28t-23.5 90v21q0 69 27.5 94t105.5 25h4q78 0 106.5 -25t28.5 -94v-21q0 -172 -55 -281t-191 -214z" />
<glyph unicode="&#x201c;" horiz-adv-x="1042" vert-adv-y="2019" d="M164 950v21q0 172 54 281t190 214l77 -104q-79 -71 -115.5 -132t-45.5 -140q64 -3 88 -28.5t24 -90.5v-21q0 -69 -28.5 -94t-106.5 -25h-4q-78 0 -105.5 25t-27.5 94zM606 950v21q0 172 55 281t191 214l76 -104q-79 -73 -116 -134t-46 -138q65 -3 89 -28.5t24 -90.5v-21 q0 -69 -28 -94t-106 -25h-4q-78 0 -106.5 25t-28.5 94z" />
<glyph unicode="&#x201d;" horiz-adv-x="1042" vert-adv-y="2019" d="M115 936q78 72 115 133t46 139q-65 3 -88.5 28.5t-23.5 90.5v21q0 69 27.5 93.5t105.5 24.5h4q78 0 106.5 -24.5t28.5 -93.5v-21q0 -172 -55 -281.5t-191 -214.5zM557 936q80 72 117.5 133t46.5 139q-66 3 -90.5 28.5t-24.5 90.5v21q0 69 28.5 93.5t106.5 24.5h4 q78 0 106 -24.5t28 -93.5v-21q0 -172 -54 -281.5t-190 -214.5z" />
<glyph unicode="&#x201e;" horiz-adv-x="1042" vert-adv-y="2019" d="M115 -293q78 72 115 133.5t46 139.5q-65 3 -88.5 28t-23.5 90v21q0 69 27.5 94t105.5 25h4q78 0 106.5 -25t28.5 -94v-21q0 -172 -55 -281t-191 -214zM557 -293q80 72 117.5 133.5t46.5 139.5q-66 3 -90.5 28t-24.5 90v21q0 69 28.5 94t106.5 25h4q78 0 106 -25t28 -94 v-21q0 -172 -54 -281t-190 -214z" />
<glyph unicode="&#x2022;" horiz-adv-x="788" vert-adv-y="2019" d="M164 668v26q0 121 45.5 161t183.5 40h2q138 0 184 -40t46 -161v-26q0 -121 -46.5 -161t-183.5 -40h-2q-138 0 -183.5 40t-45.5 161z" />
<glyph unicode="&#x2026;" horiz-adv-x="1673" vert-adv-y="2019" d="M164 98v21q0 69 27.5 94t105.5 25h4q78 0 106.5 -25t28.5 -94v-21q0 -69 -28.5 -93.5t-106.5 -24.5h-4q-78 0 -105.5 24.5t-27.5 93.5zM700 98v21q0 69 28.5 94t107.5 25h2q79 0 107 -25t28 -94v-21q0 -69 -28 -93.5t-107 -24.5h-2q-80 0 -108 24.5t-28 93.5zM1237 98v21 q0 69 28.5 94t106.5 25h4q78 0 106.5 -25t28.5 -94v-21q0 -69 -28.5 -93.5t-106.5 -24.5h-4q-78 0 -106.5 24.5t-28.5 93.5z" />
<glyph unicode="&#x202f;" horiz-adv-x="415" vert-adv-y="0" />
<glyph unicode="&#x2039;" horiz-adv-x="784" vert-adv-y="2019" d="M164 582l242 393h215l-244 -393l244 -396h-215z" />
<glyph unicode="&#x203a;" horiz-adv-x="774" vert-adv-y="2019" d="M152 186l243 396l-243 393h217l241 -393l-241 -396h-217z" />
<glyph unicode="&#x205f;" horiz-adv-x="518" vert-adv-y="0" />
<glyph unicode="&#x20ac;" horiz-adv-x="1695" vert-adv-y="2019" d="M102 481v133h265v224h-265v133h265v125q0 193 93.5 281.5t299.5 88.5h350q205 0 299 -87.5t94 -278.5v-17l-194 -24v14q0 126 -54.5 175.5t-193.5 49.5h-252q-140 0 -194 -50t-54 -179v-98h490v-133h-490v-224h490v-133h-490v-104q0 -128 54.5 -179t193.5 -51h252 q139 0 193.5 50.5t54.5 175.5v14l194 -25v-16q0 -191 -94 -278.5t-299 -87.5h-350q-206 0 -299.5 88.5t-93.5 281.5v131h-265z" />
<glyph unicode="&#x2122;" horiz-adv-x="1812" vert-adv-y="2019" d="M164 1327v119h612v-119h-237v-543h-138v543h-237zM899 784v662h154l221 -334l221 334h154v-662h-138v471l-217 -325h-41l-217 327v-473h-137z" />
<glyph unicode="&#x25fc;" horiz-adv-x="1157" vert-adv-y="2314" d="M0 0v1157h1157v-1157h-1157z" />
</font>
</defs>
</svg>
